<?xml version="1.0" encoding="UTF-8"?>
<svg width="1em" height="1em" viewBox="0 0 81 81" version="1.1" xmlns="http://www.w3.org/2000/svg" xmlns:xlink="http://www.w3.org/1999/xlink">
    <!-- Generator: Sketch 60.1 (88133) - https://sketch.com -->
    <title>Group</title>
    <desc>Created with Sketch.</desc>
    <g id="Desktop" stroke="none" stroke-width="1" fill="none" fill-rule="evenodd">
        <g id="Methods-and-data-sharing" transform="translate(-51.000000, -2336.000000)">
            <g id="Group" transform="translate(51.000000, 2336.000000)">
                <rect id="Rectangle" fill="#141923" x="0" y="0" width="81" height="81"></rect>
                <g id="noun_protection_1378918" transform="translate(16.000000, 17.000000)" fill="#FFFFFF" fill-rule="nonzero">
                    <path d="M47.1820408,16.0065306 C46.0756423,15.0656319 44.5234665,14.8530858 43.2048567,15.4619176 C41.8862469,16.0707494 41.0413682,17.3900695 41.04,18.842449 L41.04,26.2236735 C40.7842883,26.1365697 40.519886,26.0774487 40.2514286,26.0473469 C39.1323557,25.9225357 38.0175726,26.3157764 37.2244898,27.115102 L28.1485714,36.1812245 C26.8848885,37.448157 26.1795807,39.1673448 26.1892868,40.9567347 L26.1892868,46.682449 C26.1892868,47.358716 26.7376105,47.9069388 27.4138776,47.9069388 C28.0901446,47.9069388 28.6383673,47.358716 28.6383673,46.682449 L28.6383673,40.9616327 C28.6287395,39.8215255 29.0748399,38.7247883 29.877551,37.915102 L38.9485714,28.8489796 C39.4422464,28.3553047 40.2426516,28.3553047 40.7363265,28.8489796 C41.2300014,29.3426546 41.2300014,30.1430597 40.7363265,30.6367347 L35.4808163,35.8922449 C35.0033718,36.373747 35.0066611,37.1511269 35.4881633,37.6285714 C35.9696654,38.106016 36.7470453,38.1027266 37.2244898,37.6212245 L42.4702041,32.3657143 C43.3742565,31.460903 43.7449683,30.1522901 43.4497959,28.9077551 C43.4561298,28.836058 43.4561298,28.763942 43.4497959,28.6922449 L43.4497959,18.842449 C43.4476823,18.343229 43.7363677,17.8884522 44.189025,17.6779139 C44.6416823,17.4673756 45.1754845,17.5396001 45.5559184,17.8628571 C45.845451,18.10527 46.0108618,18.4648588 46.0065306,18.842449 L46.0065306,32.5910204 C46.0101472,33.9751606 45.4598746,35.3032223 44.4783673,36.2791837 L37.2244898,43.5918367 C36.9949862,43.8219202 36.8663584,44.1337987 36.8669388,44.4587755 L36.8669388,46.7020408 C36.8669388,47.3783078 37.4151616,47.9265305 38.0914286,47.9265305 C38.7676956,47.9265305 39.3159183,47.3783078 39.3159184,46.7020408 L39.3159184,44.9485714 L46.2465306,38.0081633 C47.6876791,36.5744613 48.4954385,34.6238456 48.4898253,32.5910204 L48.4898253,18.842449 C48.4906517,17.7511483 48.0125841,16.71444 47.1820408,16.0065306 L47.1820408,16.0065306 Z" id="Path"></path>
                    <path d="M9.67346939,44.9485714 L9.67346939,46.6873469 C9.67346939,47.363614 10.2216921,47.9118367 10.8979592,47.9118367 C11.5742262,47.9118367 12.122449,47.363614 12.122449,46.6873469 L12.122449,44.4391837 C12.1152925,44.1196141 11.9834561,43.8155114 11.755102,43.5918367 L4.46693878,36.2742857 C3.48663947,35.29952 2.93646721,33.9734638 2.93877551,32.5910204 L2.93877551,18.842449 C2.93887502,18.4701155 3.10129933,18.1163275 3.3835971,17.8735514 C3.66589487,17.6307754 4.04000992,17.5231395 4.40816327,17.5787755 C5.02843105,17.6778188 5.48384235,18.2143307 5.48081633,18.842449 L5.48081633,28.6873469 C5.47448241,28.7590441 5.47448241,28.83116 5.48081633,28.9028571 C5.18564391,30.1473922 5.55635576,31.456005 6.46040816,32.3608163 L11.755102,37.6212245 C12.2338991,38.1000215 13.0101825,38.1000215 13.4889796,37.6212245 C13.9677766,37.1424274 13.9677766,36.366144 13.4889796,35.8873469 L8.24326531,30.6367347 C7.74959037,30.1430598 7.74959037,29.3426545 8.24326531,28.8489796 C8.73694025,28.3553047 9.53734547,28.3553047 10.0310204,28.8489796 L19.1020408,37.915102 C19.9137306,38.7207573 20.3688542,39.8179934 20.3657143,40.9616327 L20.3657143,46.682449 C20.3657143,47.358716 20.913937,47.9069388 21.5902041,47.9069388 C22.2664711,47.9069388 22.8147948,47.358716 22.8147948,46.682449 L22.8147948,40.9616327 C22.824501,39.1722427 22.1191932,37.4530549 20.8555102,36.1861224 L11.755102,27.115102 C10.9612292,26.3170256 9.84706745,25.9240042 8.72816327,26.0473469 C8.4597058,26.0774487 8.19530351,26.1365697 7.93959184,26.2236735 L7.93959184,18.842449 C7.98902464,17.4794564 7.2900728,16.1983009 6.11723716,15.5021335 C4.94440151,14.8059662 3.48498624,14.8059662 2.3121506,15.5021335 C1.13931495,16.1983009 0.440363112,17.4794564 0.489795918,18.842449 L0.489795918,32.5910204 C0.484153289,34.6238456 1.29191277,36.5744613 2.73306122,38.0081633 L9.67346939,44.9485714 Z" id="Path"></path>
                    <path d="M24.0881633,32.6693878 C24.3483013,32.7597098 24.6312906,32.7597098 24.8914286,32.6693878 C39.0955102,27.7371429 38.9142857,17.28 38.7477551,8.88 C38.7477551,7.99346939 38.7134694,7.11673469 38.7134694,6.2644898 C38.7142395,5.75572511 38.4003322,5.2994872 37.924898,5.11836735 L24.9257143,0.171428571 C24.644944,0.0644668652 24.3346478,0.0644668652 24.0538776,0.171428571 L11.0546939,5.11836735 C10.5869646,5.3057977 10.2818065,5.76061919 10.2857143,6.2644898 C10.2857143,7.11673469 10.2857143,7.98857143 10.2514286,8.88 C10.0653061,17.28 9.85959184,27.7371429 24.0881633,32.6693878 Z M36.2987755,8.92408163 C36.4555102,16.9420408 36.6171429,25.2146939 25.7142857,29.7306122 L25.7142857,3.09061224 L36.2693878,7.10693878 C36.2742857,7.70938776 36.2889796,8.32653061 36.2987755,8.92408163 Z M12.6759184,8.92408163 C12.6759184,8.31183673 12.6759184,7.7044898 12.7053061,7.10693878 L23.2653061,3.09061224 L23.2653061,29.7355102 C12.362449,25.2195918 12.5240816,16.9420408 12.6808163,8.92408163 L12.6759184,8.92408163 Z" id="Shape"></path>
                </g>
            </g>
        </g>
    </g>
</svg>
