<svg xmlns="http://www.w3.org/2000/svg" width="105" height="49" viewBox="0 0 105 49">
  <g fill="#FFF">
    <path d="M57.15 1.27c.16-.3.11-.7-.14-.92a.74.74 0 00-.93-.07c-8.39 5.5-18.94 13.55-27.09 23.43a70.23 70.23 0 00-8.94-2.7v.1c0 .5-.12.96-.35 1.4 2.58.58 5.34 1.36 8.27 2.45a64.64 64.64 0 00-6.06 9.02c-1.6 2.91-2.7 5.48-3.42 7.62a29.47 29.47 0 00-.81-4.08c-1.44-5.18-5.04-11.99-13.94-16.35 2.18-.16 5.62-.23 10.01.3-.02-.11-.02-.23-.02-.35 0-.41.1-.8.23-1.17-8.01-1-12.96.02-13.2.07a.76.76 0 00-.6.67c-.02.32.17.64.49.76 8.15 3.2 13.38 8.72 15.54 16.39.68 2.38.93 4.6.98 6.4a3.29 3.29 0 011.5-.24c.22.03.43.05.61.12a43.8 43.8 0 014-9.54 65.52 65.52 0 016.15-9.05 79.4 79.4 0 017.85 3.58c.17-.48.45-.92.82-1.27a84.9 84.9 0 00-7.65-3.55c7.3-8.73 16.5-16 24.26-21.29-.58 1.5-1.3 3.7-1.93 6.53h.11c.5 0 .96.12 1.38.33.16-.74.32-1.41.48-2.03 1.16-4.3 2.4-6.54 2.4-6.56zM51.8 15.58c-.35 3.1-.5 6.68-.37 10.72-1.3.25-4.44.94-8.38 2.3.25.44.39.95.39 1.5 5.06-1.75 8.8-2.4 8.9-2.42.37-.07.65-.4.62-.78-.18-4.25 0-7.97.35-11.13-.14.02-.28.02-.42.02-.37 0-.74-.07-1.09-.2z"/>
    <path d="M48.48 36.15c-2.41-.02-6.36.07-10.8.83-5.9 1.02-10.9 2.9-14.78 5.57 4.3-4.69 9.9-7.99 15.06-10.3-.35-.37-.6-.83-.75-1.36-5.76 2.59-12.84 6.81-17.63 13.32.26.1.5.23.7.4.42.3.74.69.98 1.15 10.29-9.44 29.29-8.01 29.5-7.99.32.02.65-.16.76-.48a.79.79 0 00-.23-.88 91.43 91.43 0 00-7.97-5.57c-.11.51-.37.97-.7 1.34a90.6 90.6 0 015.86 3.97z"/>
    <path d="M40.28 28.35c-.4 0-.74.14-1.04.35-.38.27-.65.69-.7 1.2l-.02.2c0 .72.44 1.34 1.06 1.62.21.1.45.14.68.14.11 0 .23-.02.35-.05a1.76 1.76 0 001.41-1.7 1.73 1.73 0 00-1.74-1.76zM16.52 22.83c.11.03.23.05.35.05a1.76 1.76 0 100-3.5c-.98-.01-1.77.77-1.77 1.74 0 .84.6 1.55 1.42 1.71zM51.8 11.31a1.63 1.63 0 00-.6 1.55c.07.5.35.95.77 1.22.27.19.62.3.97.3.23 0 .47-.04.68-.14.5-.2.88-.64 1.02-1.17l.04-.21c0-.07.03-.14.03-.2a1.76 1.76 0 00-2.9-1.35zM19.68 45.87c-.03-.02-.05-.02-.05-.04a1.48 1.48 0 00-.51-.33 1.76 1.76 0 00-1.37 3.23c.2.1.44.14.67.14.47 0 .88-.18 1.2-.46.06-.04.1-.09.15-.14.05-.04.1-.11.14-.16.18-.27.3-.62.3-.97 0-.46-.19-.87-.49-1.2l-.04-.07z"/>
    <g>
      <path d="M75.17 21.08v1.6l-1.8.45c.32.51.48 1.09.48 1.73 0 1.23-.44 2.2-1.3 2.89a5.61 5.61 0 01-3.6 1.04l-.56-.02-.47-.05c-.32.25-.48.53-.48.83 0 .46.58.67 1.74.67h1.97c1.28 0 2.23.28 2.9.8.68.54 1 1.35 1 2.39a3.5 3.5 0 01-1.69 3.11c-1.11.74-2.74 1.11-4.85 1.11-1.6 0-2.84-.28-3.7-.83a2.64 2.64 0 01-1.28-2.35c0-.7.21-1.27.65-1.74.45-.46 1.07-.8 1.91-.99-.33-.14-.6-.37-.84-.67a1.65 1.65 0 010-2.08c.26-.3.63-.57 1.12-.85-.6-.25-1.1-.67-1.44-1.25a3.84 3.84 0 01-.54-2.03c0-1.25.42-2.22 1.24-2.9.8-.7 2-1.02 3.5-1.02.33 0 .7.02 1.16.09.45.07.72.1.86.14h4.02v-.07zm-8.92 13.09c0 .44.21.76.63 1.01.42.26 1 .37 1.74.37 1.14 0 2.02-.16 2.65-.46.65-.3.95-.74.95-1.27 0-.44-.18-.74-.56-.9a4.74 4.74 0 00-1.76-.25h-1.63c-.58 0-1.07.14-1.46.41-.37.3-.56.65-.56 1.09zm1.14-9.35c0 .62.14 1.1.42 1.48.28.37.72.55 1.3.55.6 0 1.02-.18 1.3-.55.28-.37.42-.86.42-1.48 0-1.39-.58-2.08-1.72-2.08-1.14.02-1.72.72-1.72 2.08zM77.08 21.08h3.16v11.47h-3.16zM78.66 16.25c-1 0-1.8.81-1.8 1.78 0 1 .82 1.78 1.8 1.78 1 0 1.79-.81 1.79-1.78 0-1-.8-1.78-1.8-1.78zM93.6 21.08v1.6l-1.82.45c.33.51.49 1.09.49 1.73 0 1.23-.44 2.2-1.3 2.89a5.61 5.61 0 01-3.6 1.04l-.56-.02-.46-.05c-.33.25-.5.53-.5.83 0 .46.59.67 1.75.67h1.98c1.27 0 2.23.28 2.9.8.67.54 1 1.35 1 2.39a3.5 3.5 0 01-1.7 3.11c-1.11.74-2.74 1.11-4.85 1.11-1.6 0-2.84-.28-3.7-.83a2.64 2.64 0 01-1.27-2.35c0-.7.2-1.27.65-1.74.44-.46 1.06-.8 1.9-.99-.32-.14-.6-.37-.84-.67a1.65 1.65 0 010-2.08c.26-.3.63-.57 1.12-.85-.6-.25-1.1-.67-1.44-1.25a3.84 3.84 0 01-.53-2.03c0-1.25.41-2.22 1.23-2.9.81-.7 2-1.02 3.5-1.02.33 0 .7.02 1.17.09.44.07.72.1.86.14h4.01v-.07zm-8.93 13.09c0 .44.21.76.63 1.01.42.26 1 .37 1.74.37 1.14 0 2.02-.16 2.65-.46.65-.3.95-.74.95-1.27 0-.44-.18-.74-.55-.9a4.74 4.74 0 00-1.77-.25H86.7c-.58 0-1.06.14-1.46.41-.37.3-.56.65-.56 1.09zm1.14-9.35c0 .62.14 1.1.42 1.48.28.37.72.55 1.3.55.6 0 1.02-.18 1.3-.55.28-.37.42-.86.42-1.48 0-1.39-.58-2.08-1.72-2.08-1.14.02-1.72.72-1.72 2.08zM102.82 32.55l-.6-1.57h-.1a4.48 4.48 0 01-1.65 1.39c-.56.25-1.3.39-2.2.39a3.62 3.62 0 01-2.63-.95c-.63-.62-.95-1.52-.95-2.7 0-1.22.41-2.12 1.27-2.7.86-.58 2.16-.9 3.88-.97l2-.07v-.5c0-1.16-.6-1.76-1.79-1.76-.93 0-2 .28-3.25.83l-1.05-2.12a9.42 9.42 0 014.42-1.04c1.55 0 2.74.34 3.55 1.01.84.67 1.23 1.69 1.23 3.07v7.7h-2.13zm-.93-5.3l-1.21.04c-.9.02-1.6.18-2.05.48-.44.3-.67.77-.67 1.39 0 .88.51 1.31 1.53 1.31.72 0 1.33-.2 1.75-.62.44-.41.65-.97.65-1.66v-.95z"/>
    </g>
  </g>
</svg>

