<?xml version="1.0" encoding="UTF-8"?>
<svg width="105px" height="49px" viewBox="0 0 105 49" version="1.1" xmlns="http://www.w3.org/2000/svg" xmlns:xlink="http://www.w3.org/1999/xlink">
    <!-- Generator: Sketch 60.1 (88133) - https://sketch.com -->
    <title>GIGA_white_horizontal Copy</title>
    <desc>Created with Sketch.</desc>
    <g id="Desktop" stroke="none" stroke-width="1" fill="none" fill-rule="evenodd">
        <g id="About" transform="translate(-439.000000, -4686.000000)" fill="#FFFFFF" fill-rule="nonzero">
            <g id="GIGA_white_horizontal-Copy" transform="translate(439.000000, 4686.000000)">
                <g id="Group">
                    <path d="M57.1460177,1.26976811 C57.3086283,0.969641101 57.2621681,0.577167322 57.0066372,0.346300393 C56.7511062,0.115433464 56.3561947,0.0692600787 56.0774336,0.277040315 C47.6913717,5.77167322 37.1449115,13.828929 28.9911504,23.7100336 C25.7389381,22.4864389 22.7422566,21.6322312 20.0475664,21.0088905 C20.0475664,21.0319772 20.0475664,21.0781506 20.0475664,21.1012373 C20.0475664,21.6091445 19.9314159,22.0708784 19.699115,22.5095256 C22.2776549,23.0866929 25.0420354,23.8716404 27.9690265,24.956715 C25.6924779,27.8194649 23.6482301,30.820735 21.9059735,33.9836119 C20.3030973,36.8925352 19.2112832,39.4551581 18.4911504,41.6022206 C18.3285398,40.3324525 18.0730088,38.9472509 17.6780973,37.5158759 C16.2378319,32.3444567 12.6371681,25.5338823 3.74004425,21.1704974 C5.92367257,21.0088905 9.36172566,20.9396304 13.7522124,21.4706244 C13.7289823,21.3551909 13.7289823,21.2397575 13.7289823,21.124324 C13.7289823,20.7087635 13.8219027,20.3162897 13.9612832,19.9469027 C5.94690265,18.9541749 0.998893805,19.9699893 0.76659292,20.0161627 C0.441371681,20.0854228 0.185840708,20.3624631 0.162610619,20.6856768 C0.139380531,21.0088905 0.325221239,21.3321042 0.650442478,21.4475377 C8.80420354,24.656588 14.0309735,30.1743076 16.1913717,37.8390896 C16.8650442,40.217019 17.1205752,42.4333415 17.1670354,44.2341036 C17.5619469,44.0724967 17.9800885,43.98015 18.4214602,43.98015 C18.5143805,43.98015 18.5840708,43.98015 18.6769912,44.0032366 C18.8860619,44.0263233 19.0951327,44.04941 19.2809735,44.1186701 C19.9314159,41.717654 21.1393805,38.4624304 23.2765487,34.5838659 C25.0420354,31.420989 27.1327434,28.3966323 29.4325221,25.5338823 C31.9413717,26.5035234 34.5663717,27.7040315 37.284292,29.1123197 C37.4469027,28.6274992 37.7256637,28.188852 38.0973451,27.8425516 C35.449115,26.4342634 32.8705752,25.2799287 30.454646,24.2872009 C37.7488938,15.560431 46.9480088,8.28812275 54.7068584,3.00127008 C54.1261062,4.50190511 53.4059735,6.69514094 52.7787611,9.53480416 C52.8252212,9.53480416 52.8484513,9.53480416 52.8949115,9.53480416 C53.3827434,9.53480416 53.8473451,9.65023763 54.2654867,9.85801786 C54.4280973,9.11924369 54.590708,8.4497296 54.7533186,7.82638889 C55.914823,3.53226401 57.1460177,1.2928548 57.1460177,1.26976811 Z" id="Path"></path>
                    <path d="M51.8030973,15.5835177 C51.454646,18.6771345 51.2920354,22.2555719 51.4314159,26.2957432 C50.130531,26.5496968 46.994469,27.2422976 43.045354,28.6044125 C43.300885,29.0430597 43.4402655,29.5509669 43.4402655,30.1050475 C48.5044248,28.3504589 52.244469,27.7040315 52.3373894,27.6809448 C52.7090708,27.6116847 52.9878319,27.288471 52.9646018,26.8959972 C52.7787611,22.6480457 52.9646018,18.9310882 53.3130531,15.7682112 C53.1736726,15.7912979 53.034292,15.7912979 52.8949115,15.7912979 C52.5232301,15.7912979 52.1515487,15.7220379 51.8030973,15.5835177 Z" id="Path"></path>
                    <path d="M48.4811947,36.1537611 C46.0652655,36.1306744 42.1161504,36.2230211 37.6792035,36.984882 C31.7787611,38.0006965 26.784292,39.8707186 22.9048673,42.548775 C27.2024336,37.8621763 32.800885,34.5607793 37.9579646,32.25211 C37.6095133,31.8827229 37.3539823,31.420989 37.2146018,30.8899951 C31.4535398,33.4757047 24.3683628,37.7005695 19.5829646,44.2110169 C19.8384956,44.3033637 20.0707965,44.4418838 20.2798673,44.6034907 C20.6980088,44.9036177 21.0232301,45.2960914 21.255531,45.7578253 C31.5464602,36.3153679 50.5486726,37.7467429 50.7577434,37.7698296 C51.0829646,37.7929163 51.4081858,37.6082227 51.5243363,37.285009 C51.6404867,36.984882 51.5475664,36.6154949 51.2920354,36.4077147 C48.5973451,34.3068256 45.925885,32.4598902 43.324115,30.8438217 C43.2079646,31.3517289 42.9524336,31.8134628 42.6272124,32.1828499 C44.5553097,33.3833579 46.5066372,34.6992994 48.4811947,36.1537611 Z" id="Path"></path>
                    <path d="M40.2809735,28.3504589 C39.8860619,28.3504589 39.5376106,28.488979 39.2356195,28.6967593 C38.8639381,28.9737996 38.585177,29.38936 38.5387168,29.8972673 C38.5387168,29.9665274 38.5154867,30.0357874 38.5154867,30.1050475 C38.5154867,30.820735 38.9568584,31.4440757 39.5840708,31.721116 C39.7931416,31.8134628 40.0254425,31.8596362 40.2577434,31.8596362 C40.3738938,31.8596362 40.4900442,31.8365495 40.6061947,31.8134628 C41.4192478,31.6518559 42.0232301,30.9361685 42.0232301,30.1050475 C42.0464602,29.1354064 41.2566372,28.3504589 40.2809735,28.3504589 Z" id="Path"></path>
                    <path d="M16.5165929,22.8327393 C16.6327434,22.855826 16.7488938,22.8789127 16.8650442,22.8789127 C17.840708,22.8789127 18.630531,22.0939651 18.630531,21.124324 C18.630531,20.1546829 17.840708,19.3697353 16.8650442,19.3697353 C15.8893805,19.3697353 15.0995575,20.1546829 15.0995575,21.124324 C15.0995575,21.9554449 15.7035398,22.6711324 16.5165929,22.8327393 Z" id="Path"></path>
                    <path d="M51.8030973,11.3124795 C51.6172566,11.4740864 51.454646,11.6818666 51.3384956,11.8896468 C51.2223451,12.1205138 51.175885,12.3744674 51.175885,12.628421 C51.175885,12.6976811 51.175885,12.7669412 51.199115,12.8592879 C51.2688053,13.3671952 51.5475664,13.8058423 51.965708,14.0828827 C52.244469,14.2675762 52.5929204,14.3830097 52.9413717,14.3830097 C53.1736726,14.3830097 53.4059735,14.3368363 53.6150442,14.2444895 C54.1261062,14.0367093 54.4977876,13.5980621 54.6371681,13.0670682 C54.6603982,12.9978081 54.6603982,12.928548 54.6836283,12.8592879 C54.6836283,12.7900279 54.7068584,12.7207678 54.7068584,12.6515077 C54.7068584,11.6818666 53.9170354,10.896919 52.9413717,10.896919 C52.5,10.896919 52.1050885,11.0585259 51.8030973,11.3124795 Z" id="Path"></path>
                    <path d="M19.675885,45.8732588 C19.6526549,45.8501721 19.6294248,45.8501721 19.6294248,45.8270854 C19.4900442,45.6885652 19.3042035,45.5731318 19.1183628,45.5038717 C18.909292,45.4115249 18.6769912,45.3653515 18.4446903,45.3653515 C17.4690265,45.3653515 16.6792035,46.1502991 16.6792035,47.1199402 C16.6792035,47.7201942 16.9811947,48.2511881 17.4457965,48.5744018 C17.5387168,48.6436619 17.6316372,48.6898353 17.7477876,48.7360087 C17.9568584,48.8283555 18.1891593,48.8745288 18.4214602,48.8745288 C18.8860619,48.8745288 19.3042035,48.6898353 19.6294248,48.412795 C19.675885,48.3666216 19.7223451,48.3204482 19.7688053,48.2742748 C19.8152655,48.2281014 19.8617257,48.1588414 19.9081858,48.112668 C20.0940265,47.8356277 20.210177,47.4893273 20.210177,47.1430269 C20.210177,46.681293 20.0243363,46.2657325 19.7223451,45.9425188 C19.699115,45.9194322 19.699115,45.8963455 19.675885,45.8732588 Z" id="Path"></path>
                </g>
                <g id="Group" transform="translate(63.418142, 16.160685)">
                    <path d="M11.7544248,4.91746559 L11.7544248,6.51044739 L9.94247788,6.97218125 C10.2676991,7.4800885 10.4303097,8.05725582 10.4303097,8.70368322 C10.4303097,9.92727794 9.98893805,10.896919 9.12942478,11.5895198 C8.2699115,12.2821206 7.0619469,12.628421 5.52876106,12.628421 L4.97123894,12.6053343 L4.50663717,12.5591609 C4.18141593,12.8131146 4.01880531,13.0901549 4.01880531,13.3902819 C4.01880531,13.8520157 4.59955752,14.059796 5.76106195,14.059796 L7.73561947,14.059796 C9.01327434,14.059796 9.96570796,14.3368363 10.6393805,14.8678302 C11.3130531,15.3988242 11.6382743,16.2068584 11.6382743,17.2457596 C11.6382743,18.5847878 11.0807522,19.623689 9.94247788,20.3624631 C8.82743363,21.1012373 7.20132743,21.4706244 5.08738938,21.4706244 C3.48451327,21.4706244 2.25331858,21.1935841 1.39380531,20.6395034 C0.534292035,20.0854228 0.116150442,19.3004753 0.116150442,18.2846608 C0.116150442,17.59206 0.325221239,17.0148927 0.76659292,16.5531588 C1.2079646,16.0914249 1.83517699,15.7451245 2.67146018,15.560431 C2.34623894,15.4219108 2.06747788,15.1910439 1.83517699,14.8909169 C1.60287611,14.5907899 1.46349558,14.2444895 1.46349558,13.8981891 C1.46349558,13.459542 1.57964602,13.0901549 1.83517699,12.8131146 C2.09070796,12.5129875 2.46238938,12.2359472 2.95022124,11.9589069 C2.34623894,11.7049533 1.85840708,11.2893928 1.50995575,10.7122255 C1.16150442,10.1350582 0.975663717,9.46554408 0.975663717,8.68059653 C0.975663717,7.43391511 1.39380531,6.46427401 2.20685841,5.77167322 C3.0199115,5.07907244 4.20464602,4.75585873 5.71460177,4.75585873 C6.03982301,4.75585873 6.41150442,4.77894543 6.87610619,4.84820551 C7.31747788,4.91746559 7.59623894,4.94055228 7.73561947,4.98672566 L11.7544248,4.98672566 L11.7544248,4.91746559 Z M2.8340708,18.0076205 C2.8340708,18.4462676 3.04314159,18.7694813 3.46128319,19.0234349 C3.87942478,19.2773886 4.46017699,19.392822 5.20353982,19.392822 C6.34181416,19.392822 7.22455752,19.2312152 7.85176991,18.9310882 C8.50221239,18.6309612 8.80420354,18.192314 8.80420354,17.6613201 C8.80420354,17.2226729 8.61836283,16.9225459 8.24668142,16.760939 C7.875,16.5993322 7.2710177,16.5069854 6.48119469,16.5069854 L4.8550885,16.5069854 C4.27433628,16.5069854 3.78650442,16.6455056 3.39159292,16.9225459 C3.0199115,17.2226729 2.8340708,17.5689733 2.8340708,18.0076205 Z M3.97234513,8.65750983 C3.97234513,9.28085054 4.11172566,9.76567109 4.39048673,10.1350582 C4.66924779,10.5044453 5.11061947,10.6891388 5.69137168,10.6891388 C6.29535398,10.6891388 6.71349558,10.5044453 6.99225664,10.1350582 C7.2710177,9.76567109 7.41039823,9.28085054 7.41039823,8.65750983 C7.41039823,7.27230826 6.82964602,6.57970747 5.69137168,6.57970747 C4.55309735,6.60279417 3.97234513,7.29539495 3.97234513,8.65750983 Z" id="Shape"></path>
                    <rect id="Rectangle" x="13.659292" y="4.91746559" width="3.15929204" height="11.4740864"></rect>
                    <path d="M15.2389381,0.0923467716 C14.2400442,0.0923467716 13.4502212,0.900381023 13.4502212,1.87002212 C13.4502212,2.86274992 14.2632743,3.64769748 15.2389381,3.64769748 C16.2378319,3.64769748 17.0276549,2.83966323 17.0276549,1.87002212 C17.0276549,0.87729433 16.2378319,0.0923467716 15.2389381,0.0923467716 Z" id="Path"></path>
                    <path d="M30.175885,4.91746559 L30.175885,6.51044739 L28.3639381,6.97218125 C28.6891593,7.4800885 28.8517699,8.05725582 28.8517699,8.70368322 C28.8517699,9.92727794 28.4103982,10.896919 27.550885,11.5895198 C26.6913717,12.2821206 25.4834071,12.628421 23.9502212,12.628421 L23.3926991,12.6053343 L22.9280973,12.5591609 C22.6028761,12.8131146 22.4402655,13.0901549 22.4402655,13.3902819 C22.4402655,13.8520157 23.0210177,14.059796 24.1825221,14.059796 L26.1570796,14.059796 C27.4347345,14.059796 28.3871681,14.3368363 29.0608407,14.8678302 C29.7345133,15.3988242 30.0597345,16.2068584 30.0597345,17.2457596 C30.0597345,18.5847878 29.5022124,19.623689 28.3639381,20.3624631 C27.2488938,21.1012373 25.6227876,21.4706244 23.5088496,21.4706244 C21.9059735,21.4706244 20.6747788,21.1935841 19.8152655,20.6395034 C18.9557522,20.0854228 18.5376106,19.3004753 18.5376106,18.2846608 C18.5376106,17.59206 18.7466814,17.0148927 19.1880531,16.5531588 C19.6294248,16.0914249 20.2566372,15.7451245 21.0929204,15.560431 C20.7676991,15.4219108 20.4889381,15.1910439 20.2566372,14.8909169 C20.0243363,14.5907899 19.8849558,14.2444895 19.8849558,13.8981891 C19.8849558,13.459542 20.0011062,13.0901549 20.2566372,12.8131146 C20.5121681,12.5129875 20.8838496,12.2359472 21.3716814,11.9589069 C20.7676991,11.7049533 20.2798673,11.2893928 19.9314159,10.7122255 C19.5829646,10.1350582 19.3971239,9.46554408 19.3971239,8.68059653 C19.3971239,7.43391511 19.8152655,6.46427401 20.6283186,5.77167322 C21.4413717,5.07907244 22.6261062,4.75585873 24.1360619,4.75585873 C24.4612832,4.75585873 24.8329646,4.77894543 25.2975664,4.84820551 C25.7389381,4.91746559 26.0176991,4.94055228 26.1570796,4.98672566 L30.175885,4.98672566 L30.175885,4.91746559 Z M21.255531,18.0076205 C21.255531,18.4462676 21.4646018,18.7694813 21.8827434,19.0234349 C22.300885,19.2773886 22.8816372,19.392822 23.625,19.392822 C24.7632743,19.392822 25.6460177,19.2312152 26.2732301,18.9310882 C26.9236726,18.6309612 27.2256637,18.192314 27.2256637,17.6613201 C27.2256637,17.2226729 27.039823,16.9225459 26.6681416,16.760939 C26.2964602,16.5993322 25.6924779,16.5069854 24.9026549,16.5069854 L23.2765487,16.5069854 C22.6957965,16.5069854 22.2079646,16.6455056 21.8130531,16.9225459 C21.4413717,17.2226729 21.255531,17.5689733 21.255531,18.0076205 Z M22.3938053,8.65750983 C22.3938053,9.28085054 22.5331858,9.76567109 22.8119469,10.1350582 C23.090708,10.5044453 23.5320796,10.6891388 24.1128319,10.6891388 C24.7168142,10.6891388 25.1349558,10.5044453 25.4137168,10.1350582 C25.6924779,9.76567109 25.8318584,9.28085054 25.8318584,8.65750983 C25.8318584,7.27230826 25.2511062,6.57970747 24.1128319,6.57970747 C22.9745575,6.60279417 22.3938053,7.29539495 22.3938053,8.65750983 Z" id="Shape"></path>
                    <path d="M39.3982301,16.391552 L38.7942478,14.8216568 L38.7013274,14.8216568 C38.1670354,15.4911709 37.6327434,15.9529048 37.0519912,16.2068584 C36.494469,16.460812 35.7511062,16.5993322 34.8451327,16.5993322 C33.7300885,16.5993322 32.8705752,16.2761185 32.2201327,15.6527778 C31.5929204,15.0294371 31.2676991,14.129056 31.2676991,12.9516347 C31.2676991,11.72804 31.6858407,10.827659 32.545354,10.2504916 C33.4048673,9.67332432 34.7057522,9.35011062 36.4247788,9.28085054 L38.4225664,9.21159046 L38.4225664,8.70368322 C38.4225664,7.54934857 37.8185841,6.94909456 36.6338496,6.94909456 C35.704646,6.94909456 34.6360619,7.22613487 33.3816372,7.7802155 L32.3362832,5.65623976 C33.6603982,4.96363897 35.1471239,4.61733858 36.75,4.61733858 C38.3064159,4.61733858 39.4911504,4.96363897 40.3042035,5.63315306 C41.1404867,6.30266716 41.5353982,7.31848165 41.5353982,8.70368322 L41.5353982,16.391552 L39.3982301,16.391552 Z M38.4690265,11.0816126 L37.2610619,11.127786 C36.3550885,11.1508727 35.6581858,11.3124795 35.2168142,11.6126065 C34.7754425,11.9127335 34.5431416,12.3744674 34.5431416,12.9978081 C34.5431416,13.8751024 35.0542035,14.3137496 36.0763274,14.3137496 C36.7964602,14.3137496 37.4004425,14.1059694 37.8185841,13.6904089 C38.2599558,13.2748484 38.4690265,12.7207678 38.4690265,12.028167 L38.4690265,11.0816126 L38.4690265,11.0816126 Z" id="Shape"></path>
                </g>
            </g>
        </g>
    </g>
</svg>