<svg version="1.1" xmlns="http://www.w3.org/2000/svg" width="1em" height="1em" viewBox="0 0 512 512">
<path fill="currentColor" d="M264.007 103.99c-8.834 0-15.985 7.15-15.985 15.985v148.232c0.137 0.515 0.275 1.031 0.482 1.547l0.619 1.375 0.722 1.341 0.893 1.272 0.963 1.203 1.272 1.203 0.722 0.688 96.014 72.019c4.572 3.438 10.623 4.159 15.882 1.925s8.938-7.115 9.591-12.788c0.688-5.707-1.719-11.31-6.291-14.748l-88.829-67.275v-135.994c0-8.835-7.185-15.985-16.019-15.985z"></path>
<path fill="currentColor" d="M272.016 15.986c-117.121 0-217.123 84.532-236.649 200.004l-6.050-9.042c-4.951-7.322-14.919-9.281-22.241-4.332-7.356 4.951-9.281 14.919-4.332 22.242l31.971 47.989c2.647 4.022 6.944 6.635 11.688 7.151h1.615c4.229-0.034 8.285-1.719 11.276-4.744l40.014-39.946c6.257-6.256 6.257-16.398 0-22.655s-16.397-6.256-22.654 0l-9.9 10.004c17.704-109.146 117.706-185.325 227.573-173.464 109.937 11.86 191.341 107.599 185.428 217.948-5.947 110.418-97.183 196.84-207.738 196.84-64.353 1.169-125.2-29.186-162.946-81.267-3.335-4.675-8.87-7.219-14.576-6.669-5.672 0.55-10.657 4.091-13.063 9.281-2.338 5.19-1.753 11.276 1.547 15.916 43.727 60.606 114.336 95.945 189.038 94.742 132.556 0 239.983-107.462 239.983-240.018 0-132.522-107.427-239.983-239.983-239.983z"></path>
</svg>
