<svg xmlns="http://www.w3.org/2000/svg" width="1em" height="1em" viewBox="0 0 32 32">
    <path fill="currentColor" fill-rule="evenodd" d="M32 0v32H0V0h32zM16 4.414c-7.008 0-12.69 5.318-12.69 11.88 0 5.248 3.636 9.7 8.68 11.272.634.109.865-.258.865-.573 0-.282-.01-1.029-.017-2.02-3.53.718-4.275-1.593-4.275-1.593-.577-1.372-1.408-1.737-1.408-1.737-1.153-.737.087-.722.087-.722 1.273.083 1.943 1.224 1.943 1.224 1.132 1.815 2.97 1.291 3.693.987.115-.768.444-1.292.806-1.589-2.818-.3-5.78-1.318-5.78-5.87 0-1.297.494-2.358 1.306-3.188-.13-.301-.566-1.508.124-3.144 0 0 1.066-.32 3.49 1.218 1.012-.264 2.097-.395 3.177-.4 1.078.005 2.163.136 3.177.4C21.6 9.022 22.664 9.34 22.664 9.34c.692 1.636.257 2.843.126 3.144.813.83 1.304 1.89 1.304 3.188 0 4.563-2.967 5.568-5.793 5.862.455.366.861 1.091.861 2.2 0 1.588-.016 2.868-.016 3.258 0 .318.229.688.873.571 5.038-1.574 8.67-6.023 8.67-11.27 0-6.562-5.681-11.88-12.69-11.88z"/>
</svg>
