<svg xmlns="http://www.w3.org/2000/svg" width="1em" height="1em" viewBox="0 0 81 81">
    <g fill="none" fill-rule="evenodd">
        <g>
            <g>
                <path fill="#141923" d="M0 0H81V81H0z" transform="translate(-622 -1154) translate(622 1154)"/>
                <g fill="#FFF" fill-rule="nonzero">
                    <path d="M41.36 3.676h-4.595V.92c0-.507-.411-.919-.92-.919-.508 0-.919.412-.919.92v2.756h-5.514V.92C29.412.412 29 0 28.492 0c-.508 0-.918.412-.918.92v2.756h-5.515V.92c0-.507-.412-.919-.92-.919-.507 0-.918.412-.918.92v2.756h-5.515V.92c0-.507-.412-.919-.92-.919-.507 0-.918.412-.918.92v2.756H7.353V.92C7.353.412 6.94 0 6.433 0c-.507 0-.918.412-.918.92v2.756H.919c-.507 0-.919.412-.919.92v44.117c0 .509.412.92.92.92h40.44c.509 0 .92-.411.92-.92V4.596c0-.508-.411-.92-.92-.92zm-.919 44.118H1.838V5.514h3.677v2.758c0 .507.411.92.919.92.507 0 .919-.413.919-.92V5.515h5.515v2.757c0 .507.411.92.919.92.507 0 .919-.413.919-.92V5.515h5.515v2.757c0 .507.411.92.919.92.507 0 .919-.413.919-.92V5.515h5.515v2.757c0 .507.41.92.919.92.508 0 .919-.413.919-.92V5.515h5.514v2.757c0 .507.411.92.92.92.508 0 .919-.413.919-.92V5.515h3.676v42.28z" transform="translate(-622 -1154) translate(622 1154) translate(19 15)"/>
                    <path d="M25.465 21.14c-.338-.379-.918-.41-1.298-.072L11.838 32.1c-.182.163-.291.39-.305.633l-.143 2.596c-.028.507.36.94.866.969l2.596.143.05.002c.227 0 .445-.083.614-.234l12.329-11.032c.18-.162.29-.39.304-.634.014-.243-.07-.481-.233-.663l-2.45-2.74zM14.574 34.585l-1.298-.071.071-1.298 11.36-10.165 1.227 1.37-11.36 10.164zM28.206 18.688c-.337-.38-.92-.41-1.298-.072-.378.338-.41.919-.072 1.298l2.45 2.74c.182.203.434.306.686.306.217 0 .437-.078.613-.234.377-.338.41-.919.071-1.298l-2.45-2.74z" transform="translate(-622 -1154) translate(622 1154) translate(19 15)"/>
                </g>
            </g>
        </g>
    </g>
</svg>
