<svg version="1.1" xmlns="http://www.w3.org/2000/svg" width="1em" height="1em" viewBox="0 0 768 768">
<path fill="currentColor" d="M547.574 10.88h-472.325c-41.578 0-75.249 33.709-75.249 75.249v294.557c0 41.539 33.671 75.249 75.249 75.249h69.811v78.065c0 41.578 33.671 75.288 75.249 75.288h199.174l128.862 141.667c4.706 5.168 11.918 7.328 18.707 5.554 6.788-1.813 11.995-7.213 13.577-14.039l30.74-133.297h81.383c41.578 0 75.249-33.671 75.249-75.249v-294.442c0-41.578-33.671-75.249-75.249-75.249h-69.889v-78.143c0-41.501-33.709-75.212-75.326-75.212zM145.137 239.483v178.732h-69.889c-20.789 0-37.606-16.856-37.606-37.645v-294.442c0-20.789 16.817-37.606 37.606-37.606h472.325c20.827 0 37.645 16.816 37.645 37.606v78.104h-364.753c-41.578 0-75.288 33.671-75.288 75.212zM730.356 239.483v294.634c0 20.789-16.817 37.606-37.606 37.606h-96.425c-8.755 0-16.393 6.055-18.359 14.618l-25.957 112.855-110.232-121.34c-3.587-3.896-8.639-6.132-13.924-6.132h-207.428c-20.827 0-37.645-16.817-37.645-37.606v-294.673c0-20.75 16.856-37.606 37.645-37.606h472.325c20.789 0 37.606 16.856 37.606 37.645z"></path>
<path fill="currentColor" d="M269.447 355.848h239.865c10.414 0 18.822-8.408 18.822-18.822s-8.447-18.822-18.822-18.822h-239.904c-10.414 0-18.822 8.447-18.822 18.822 0 10.414 8.447 18.822 18.822 18.822zM269.447 459.33h380.954c10.414 0 18.822-8.447 18.822-18.822 0-10.414-8.408-18.822-18.822-18.822h-380.953c-10.414 0-18.822 8.447-18.822 18.822 0 10.414 8.447 18.822 18.822 18.822z"></path>
</svg>

