<svg version="1.1" xmlns="http://www.w3.org/2000/svg" width="1em" height="1em" viewBox="0 0 768 768">
<path fill="currentColor" d="M596.375 64.208c-151.966-101.336-350.645-79.319-477.389 42.099v-104.951h-66.314v212.167h198.943v-66.314h-96.715c108.677-105.656 280.272-125.213 411.334-37.778 123.688 82.481 176.776 238.246 129.090 378.81l51.448 17.437c55.584-163.849-6.224-345.394-150.401-441.473z"></path>
<path fill="currentColor" d="M497.459 256.368l-173.683 173.646-56.254-56.254-38.448 38.448 103.159 103.159 212.093-212.13z"></path>
<path fill="currentColor" d="M702.437 595.244v-36.993h-198.905v66.313h103.196c-43.923 40.608-98.243 68.548-158.374 80.584-86.059 17.174-173.72-0.149-246.741-48.84-18.070-12.035-34.648-25.705-49.624-40.682-85.574-85.574-118.993-214.328-81.327-332.464l-51.785-16.505c-43.886 137.695-4.991 287.723 94.781 387.528 17.437 17.399 36.772 33.342 57.782 47.353 85.126 56.739 187.283 76.969 287.609 56.928 72.758-14.566 138.217-49.177 190.372-99.47v109.008h53.014s0.111-172.603 0.185-172.677l-0.185-0.111z"></path>
</svg>
