<svg version="1.1" xmlns="http://www.w3.org/2000/svg" width="1em" height="1em" viewBox="0 0 768 768">
  <path fill="currentColor" d="M384 0c-176.765 0-320.042 143.277-320.042 320.042 0 221.879 295.106 435.053 307.651 443.963 7.424 5.326 17.36 5.326 24.785 0 12.546-8.91 307.651-222.083 307.651-443.963 0-176.765-143.277-320.042-320.042-320.042zM384 720.121c-55.457-42.707-277.387-224.286-277.387-400.079 0-153.211 124.177-277.387 277.387-277.387s277.387 124.177 277.387 277.387c0 175.793-221.93 357.424-277.387 400.079zM384 149.37c-94.22 0-170.673 76.4-170.673 170.673 0 94.22 76.4 170.673 170.673 170.673 94.22 0 170.673-76.4 170.673-170.673 0-45.267-17.923-88.69-49.978-120.694-32.004-32.004-75.428-49.978-120.694-49.978zM384 448.060c-70.666 0-128.017-57.352-128.017-128.017s57.352-128.017 128.017-128.017 128.017 57.352 128.017 128.017c0 33.95-13.468 66.517-37.483 90.534-24.067 24.017-56.584 37.483-90.534 37.483z"></path>
</svg>
