<svg xmlns="http://www.w3.org/2000/svg" width="1em" height="1em" viewBox="0 0 81 81">
    <g fill="none" fill-rule="evenodd">
        <g>
            <g>
                <path fill="#141923" d="M0 0H81V81H0z" transform="translate(-622 -658) translate(622 658)"/>
                <g fill="#FFF" fill-rule="nonzero">
                    <path d="M40.833 50.9c-.218 0-.428-.088-.583-.242l-2.9-2.891c-.156-.158-.243-.37-.242-.592.003-.22.09-.432.242-.592L48.933 35c.157-.158.37-.246.592-.246.222 0 .435.088.592.246l2.891 2.892c.154.155.241.364.242.583.001.222-.086.434-.242.592L41.433 50.658c-.159.158-.375.246-.6.242zm-1.666-3.725l1.666 1.717 10.409-10.4-1.717-1.667-10.358 10.35z" transform="translate(-622 -658) translate(622 658) translate(14 13)"/>
                    <path d="M39.383 46.542c-.221 0-.434-.086-.591-.242l-2.559-2.558-2.783.558c-2.768.546-5.626-.326-7.617-2.325l-4.341-4.333c-.696-.69-.993-1.687-.789-2.646.204-.959.88-1.748 1.797-2.096l-3.933-3.942c-.82-.824-1.065-2.06-.62-3.135.444-1.074 1.49-1.777 2.653-1.781-.004-.769.299-1.507.842-2.05.543-.543 1.281-.846 2.05-.842-.005-.765.296-1.5.836-2.044.54-.542 1.273-.848 2.039-.848-.003-1.165.697-2.218 1.773-2.667 1.076-.448 2.317-.205 3.143.617L43.05 27.95c.93.94 1.631 2.08 2.05 3.333l.833 2.45 2.75 2.75c.156.158.243.37.242.592.001.222-.086.434-.242.592L40 46.3c-.163.162-.387.25-.617.242zM36.508 42c.22.003.43.093.584.25l2.291 2.283 7.5-7.5-2.3-2.308c-.094-.09-.165-.202-.208-.325l-.833-2.625c-.34-1.005-.91-1.916-1.667-2.658l-11.75-11.75c-.486-.355-1.16-.297-1.578.135-.42.431-.457 1.106-.089 1.581l7.5 7.55c.157.154.247.364.25.584.002.338-.2.644-.513.774s-.673.058-.912-.183l-7.55-7.55c-.48-.459-1.236-.459-1.716 0-.468.477-.468 1.24 0 1.717l7.55 7.55c.323.325.323.85 0 1.175-.325.323-.85.323-1.175 0l-7.55-7.533c-.482-.455-1.235-.455-1.717 0-.229.227-.358.536-.358.858 0 .322.129.631.358.858l7.55 7.55c.156.158.243.37.242.592-.002.337-.206.64-.518.768-.312.127-.67.055-.907-.185l-7.5-7.5c-.48-.459-1.237-.459-1.717 0-.449.465-.449 1.202 0 1.667l5.783 5.783 1.834 1.825c.211.212.294.52.216.809-.077.288-.303.514-.591.591-.29.078-.597-.005-.809-.216l-1.825-1.834c-.483-.45-1.233-.45-1.716 0-.219.223-.344.521-.35.834.004.312.13.611.35.833l4.3 4.433c1.611 1.613 3.922 2.314 6.158 1.867l3.217-.65.166-.05zM3.808 19.65c-.221.001-.434-.086-.591-.242L.325 16.517c-.156-.158-.243-.37-.242-.592 0-.222.086-.434.242-.592L11.9 3.767c.325-.323.85-.323 1.175 0l2.9 2.9c.154.155.24.364.242.583 0 .222-.086.434-.242.592L4.4 19.408c-.157.156-.37.243-.592.242zm-1.716-3.725l1.716 1.717 10.359-10.4L12.5 5.533 2.092 15.925z" transform="translate(-622 -658) translate(622 658) translate(14 13)"/>
                    <path d="M22.617 38.459c-.222 0-.435-.086-.592-.242l-11.742-11.75c-.932-.937-1.634-2.079-2.05-3.334l-.833-2.45-2.75-2.758c-.154-.155-.24-.365-.242-.583 0-.222.086-.435.242-.592l8.683-8.633c.325-.323.85-.323 1.175 0l2.559 2.558 2.783-.567c2.78-.553 5.655.32 7.658 2.325l4.342 4.342c.323.325.323.85 0 1.175-.325.323-.85.323-1.175 0l-4.342-4.333c-1.61-1.615-3.92-2.318-6.158-1.875l-3.217.65c-.272.054-.553-.03-.75-.225l-2.291-2.284-7.5 7.5 2.3 2.3c.092.092.163.203.208.325l.875 2.634c.34 1.004.911 1.914 1.667 2.658l11.75 11.75c.323.325.323.85 0 1.175-.161.155-.377.24-.6.234zM14.8 54.375c-.219 0-.428-.088-.583-.242L2.642 42.558c-.158-.156-.247-.37-.247-.591 0-.223.089-.436.247-.592l2.891-2.892c.325-.323.85-.323 1.175 0l11.575 11.575c.323.325.323.85 0 1.175l-2.891 2.934c-.163.144-.375.218-.592.208zM4.408 41.967l10.392 10.4 1.717-1.717-10.392-10.4-1.717 1.717z" transform="translate(-622 -658) translate(622 658) translate(14 13)"/>
                    <path d="M16.25 50c-.222.001-.434-.086-.592-.242L7 41.092c-.323-.325-.323-.85 0-1.175l2.558-2.559-.566-2.783c-.552-2.783.32-5.659 2.325-7.667.326-.326.856-.326 1.183 0 .327.327.327.857 0 1.184-1.614 1.607-2.315 3.916-1.867 6.15l.65 3.258c.056.276-.032.561-.233.758L8.767 40.5l7.5 7.5 2.308-2.308c.091-.091.203-.16.325-.2l2.625-.875c1.002-.344 1.912-.915 2.658-1.667l1.925-1.925c.325-.323.85-.323 1.175 0 .158.156.247.37.247.592 0 .222-.089.435-.247.591l-1.933 1.959c-.937.93-2.079 1.629-3.333 2.041l-2.45.834-2.75 2.758c-.158.135-.36.206-.567.2zM46.667 16.758c-.222.002-.435-.085-.592-.241L34.467 4.942c-.323-.325-.323-.85 0-1.175L37.358.833c.157-.157.37-.246.592-.246.222 0 .435.089.592.246l11.575 11.609c.157.156.246.37.246.591 0 .223-.089.436-.246.592l-2.892 2.892c-.149.148-.348.234-.558.241zM36.233 4.35l10.434 10.4 1.666-1.717-10.383-10.4-1.717 1.717z" transform="translate(-622 -658) translate(622 658) translate(14 13)"/>
                    <path d="M41.133 28.042c-.221 0-.434-.086-.591-.242-.323-.325-.323-.85 0-1.175 1.53-1.54 2.132-3.774 1.583-5.875l-.65-3.208c-.057-.275.027-.56.225-.759l2.292-2.283-7.5-7.5-2.325 2.283c-.092.091-.203.16-.325.2l-2.634.875c-1.001.347-1.91.917-2.658 1.667l-1.308 1.308c-.331.283-.824.264-1.132-.043-.307-.308-.326-.801-.043-1.132l1.341-1.325c.938-.93 2.079-1.629 3.334-2.041l2.441-.834L35.942 5.2c.157-.156.37-.243.591-.242.219.001.428.088.584.242l8.666 8.7c.323.325.323.85 0 1.175l-2.558 2.567.558 2.775c.657 2.644-.113 5.44-2.033 7.375-.162.165-.385.256-.617.25z" transform="translate(-622 -658) translate(622 658) translate(14 13)"/>
                </g>
            </g>
        </g>
    </g>
</svg>
