<svg version="1.1" xmlns="http://www.w3.org/2000/svg" width="1em" height="1em" viewBox="0 0 768 768">
<path fill="currentColor" d="M736.885 159.249c-18.865-10.36-40.529-10.36-58.45 0.945l-123.445 72.554v-14.105c0-39.584-32.024-71.644-71.609-71.644h-411.773c-39.55 0-71.609 32.060-71.609 71.644v330.748c0 39.55 32.024 71.609 71.609 71.609h412.718c39.584 0 71.609-32.059 71.609-71.609v-16.975l124.424 72.554c9.45 5.67 19.81 8.47 29.224 8.47 10.36 0 19.774-2.8 29.19-7.525 18.865-10.36 29.225-29.225 29.225-50.89l-0.945-344.888c0-20.72-11.305-39.55-30.134-50.89zM518.242 549.392c0 18.829-15.050 33.914-33.914 33.914h-412.718c-18.865 0-33.95-15.085-33.95-33.95v-329.768c0-18.829 15.085-33.914 33.95-33.914h412.718c18.865 0 33.949 15.085 33.949 33.95v329.803zM719.911 572.946c-2.8 1.855-11.305 5.635-20.72 0l-143.254-83.894v-211.994l142.309-84.805c9.415-5.67 17.885-1.89 20.719 0 2.8 1.89 10.36 7.525 10.36 17.885l0.945 344.888c0 11.305-7.525 16.030-10.36 17.92z"></path>
</svg>
