<svg xmlns="http://www.w3.org/2000/svg" width="1em" height="1em" viewBox="0 0 81 81">
    <g fill="none" fill-rule="evenodd">
        <g>
            <g>
                <path fill="#141923" d="M0 0H81V81H0z" transform="translate(-622 -437) translate(622 437)"/>
                <g fill="#FFF" fill-rule="nonzero">
                    <path d="M18.392 9.07L7.194 4.345c.005-.07.021-.136.021-.206.008-.842-.28-1.66-.812-2.313C5.87 1.174 5.126.73 4.299.568 3.472.408 2.616.541 1.877.947 1.14 1.352.566 2.003.257 2.787c-.308.783-.332 1.65-.068 2.45.264.8.8 1.481 1.514 1.927.715.446 1.563.627 2.397.513.835-.114 1.603-.517 2.17-1.138l10.47 4.417v9.925H6.995c-.28-.794-.833-1.464-1.56-1.89-.727-.426-1.58-.582-2.411-.44-.83.143-1.584.574-2.127 1.218-.543.645-.84 1.46-.84 2.302 0 .843.297 1.658.84 2.302.543.644 1.297 1.076 2.127 1.218.83.143 1.684-.013 2.411-.439.727-.426 1.28-1.096 1.56-1.89h9.743v9.917L6.29 37.49c-.559-.615-1.315-1.014-2.138-1.129-.822-.114-1.659.062-2.365.5C1.08 37.299.55 37.97.287 38.758c-.263.788-.242 1.643.06 2.417.301.773.864 1.417 1.59 1.82.727.402 1.571.537 2.387.382.816-.155 1.552-.591 2.08-1.232.528-.64.815-1.446.811-2.277 0-.06-.015-.118-.018-.178l11.186-4.614c.218-.09.405-.242.536-.438s.201-.426.201-.662v-23.81c0-.233-.069-.462-.198-.657-.13-.195-.314-.348-.53-.439zM3.644 5.33c-.235 0-.466-.07-.661-.201-.196-.131-.349-.317-.439-.535-.09-.217-.114-.457-.068-.688.046-.23.16-.443.326-.61.167-.166.379-.279.61-.325.23-.046.47-.022.688.068.217.09.403.243.534.438.13.196.2.426.2.662 0 .315-.126.618-.349.841-.223.223-.525.349-.841.35zm0 17.932c-.235 0-.466-.07-.661-.2-.196-.131-.349-.318-.439-.535-.09-.218-.114-.457-.068-.688.046-.23.16-.443.326-.61.167-.166.379-.28.61-.325.23-.046.47-.023.688.068.217.09.403.242.534.438.13.196.2.426.2.661 0 .316-.126.619-.349.842-.223.223-.525.348-.841.349zm0 17.797c-.235 0-.466-.07-.661-.201-.196-.13-.349-.317-.439-.534-.09-.218-.114-.457-.068-.688.046-.231.16-.443.326-.61.167-.166.379-.28.61-.325.23-.046.47-.023.688.067.217.09.403.243.534.439.13.196.2.426.2.661 0 .316-.126.618-.349.841-.223.223-.525.349-.841.35zM26.263 23.262h9.743c.281.794.833 1.464 1.56 1.89.727.426 1.581.582 2.411.44.83-.143 1.584-.575 2.127-1.219.543-.644.84-1.46.84-2.302 0-.842-.297-1.657-.84-2.302-.543-.644-1.297-1.075-2.127-1.218-.83-.142-1.684.014-2.41.44-.728.426-1.28 1.096-1.56 1.89h-9.744v-9.925l10.468-4.417c.563.609 1.322 1.002 2.144 1.112.822.11 1.657-.072 2.36-.513.703-.441 1.23-1.114 1.488-1.902.26-.788.235-1.642-.069-2.414-.304-.772-.868-1.414-1.595-1.814-.726-.4-1.57-.533-2.385-.377-.815.156-1.55.592-2.077 1.233-.527.64-.813 1.445-.81 2.275 0 .07.017.136.02.206L24.61 9.07c-.216.091-.4.244-.53.439s-.198.424-.198.658v23.81c0 .235.07.465.201.661.132.196.318.348.536.438l11.186 4.615c-.003.06-.018.116-.018.177-.009.844.28 1.665.814 2.319.534.654 1.28 1.1 2.11 1.26.829.16 1.688.024 2.427-.384.74-.408 1.312-1.063 1.618-1.85.307-.787.327-1.656.059-2.456-.269-.8-.81-1.482-1.529-1.925-.719-.443-1.57-.62-2.406-.499-.836.12-1.603.53-2.168 1.158L26.264 33.18v-9.917zm13.095-2.381c.236 0 .466.07.662.2.195.131.348.317.438.535.09.217.114.457.068.688-.046.23-.16.443-.326.61-.166.166-.379.279-.61.325-.23.046-.47.022-.687-.068-.218-.09-.404-.242-.535-.438-.13-.196-.2-.426-.2-.662 0-.315.126-.618.349-.841.223-.223.526-.349.841-.35zm0-17.933c.236 0 .466.07.662.2.195.132.348.318.438.535.09.218.114.457.068.688-.046.23-.16.443-.326.61-.166.166-.379.28-.61.325-.23.046-.47.023-.687-.067-.218-.09-.404-.243-.535-.439-.13-.196-.2-.426-.2-.661 0-.316.126-.618.349-.842.223-.223.526-.348.841-.349zm0 35.73c.236 0 .466.07.662.2.195.131.348.317.438.535.09.217.114.456.068.687-.046.231-.16.443-.326.61-.166.166-.379.28-.61.326-.23.046-.47.022-.687-.068-.218-.09-.404-.243-.535-.439-.13-.195-.2-.425-.2-.661 0-.316.126-.618.35-.841.222-.223.525-.349.84-.35z" transform="translate(-622 -437) translate(622 437) translate(19 19)"/>
                </g>
            </g>
        </g>
    </g>
</svg>
