<svg xmlns="http://www.w3.org/2000/svg" width="27" height="27" viewBox="0 0 27 27">
    <g fill="#B6BBC6">
        <path d="M16.195 1.866C12.116-.854 6.783-.263 3.381 2.996V.179h-1.78v5.695h5.34v-1.78H4.345C7.262 1.258 11.868.733 15.386 3.08c3.32 2.214 4.745 6.395 3.465 10.168l1.381.468c1.492-4.398-.167-9.271-4.037-11.85z"/>
        <path d="M13.54 7.024L8.878 11.685 7.368 10.175 6.336 11.207 9.105 13.976 14.798 8.282z"/>
        <path d="M19.042 16.12v-.993h-5.339v1.78h2.77c-1.179 1.09-2.637 1.84-4.251 2.163-2.31.461-4.663-.004-6.623-1.311-.485-.323-.93-.69-1.332-1.092-2.297-2.297-3.194-5.753-2.183-8.924L.694 7.3C-.484 10.996.56 15.023 3.238 17.702c.468.467.987.895 1.551 1.271 2.285 1.523 5.027 2.066 7.72 1.528 1.953-.391 3.71-1.32 5.11-2.67v2.926h1.423s.003-4.633.005-4.635l-.005-.003z"/>
    </g>
</svg>
