<svg xmlns="http://www.w3.org/2000/svg" width="1em" height="1em" viewBox="0 0 81 81">
    <g fill="none" fill-rule="evenodd">
        <path fill="#141923" d="M0 0H81V81H0z"/>
        <g>
            <path fill="#FFF" fill-rule="nonzero" d="M17.959 0C8.04 0 0 8.04 0 17.959c0 9.918 8.04 17.958 17.959 17.958 9.918 0 17.958-8.04 17.958-17.958C35.917 8.04 27.877 0 17.96 0zm0 33.922c-8.817 0-15.964-7.147-15.964-15.963 0-8.817 7.147-15.964 15.964-15.964 8.816 0 15.963 7.147 15.963 15.964-.01 8.812-7.151 15.953-15.963 15.963zm1.225-10.219c-.047 0-.095-.002-.144-.005-.867-.049-1.599-.662-1.8-1.507l-2.494-9.977-2.343 5.859c-.452 1.138-1.554 1.885-2.78 1.881h-2.64c-.55 0-.997-.447-.997-.998 0-.55.447-.997.998-.997h2.64c.408 0 .775-.248.926-.628l2.343-5.857c.321-.804 1.124-1.31 1.988-1.25.863.058 1.59.667 1.8 1.507l2.494 9.977 2.845-7.113c.146-.364.493-.61.885-.626.396-.031.77.189.935.55l1.443 2.888c.168.34.515.553.893.552h2.757c.551 0 .998.446.998.997 0 .551-.447.998-.998.998h-2.757c-1.135.004-2.173-.638-2.677-1.654l-.45-.9-2.02 5.048c-.294.761-1.029 1.261-1.845 1.255z" transform="translate(22 17)"/>
            <path stroke="#FFF" stroke-linecap="square" stroke-width="2" d="M30.746 37.566L36.358 45.598" transform="translate(22 17)"/>
        </g>
    </g>
</svg>
