<svg xmlns="http://www.w3.org/2000/svg" width="1em" height="1em" viewBox="0 0 32 32">
    <path fill="currentColor" fill-rule="evenodd" d="M32 0v32H0V0h32zM20.107 7.724c-2.207 0-3.996 1.831-3.996 4.089 0 .32.035.632.103.931-3.32-.17-6.265-1.798-8.236-4.272-.345.602-.54 1.305-.54 2.055 0 1.419.706 2.67 1.777 3.403-.655-.022-1.271-.206-1.81-.513v.051c0 1.98 1.378 3.634 3.205 4.01-.335.092-.688.143-1.053.143-.258 0-.508-.026-.752-.076.508 1.626 1.984 2.808 3.732 2.84-1.367 1.097-3.091 1.748-4.963 1.748-.323 0-.64-.02-.953-.056 1.768 1.163 3.868 1.84 6.125 1.84 7.351 0 11.37-6.23 11.37-11.635l-.014-.53c.785-.572 1.465-1.292 2-2.112-.718.325-1.487.546-2.296.644.826-.506 1.458-1.308 1.757-2.26-.774.467-1.629.808-2.54.992-.728-.796-1.766-1.292-2.916-1.292z"/>
</svg>
