<svg version="1.1" xmlns="http://www.w3.org/2000/svg" width="1em" height="1em" viewBox="0 0 768 768">
<path fill="currentColor" d="M451.972 397.286l-129.764-81.111v162.254l129.83-81.144zM314.111 271.555l178.483 111.552c10.147 6.082 10.147 22.31 0 28.392l-178.483 111.552c-10.147 8.098-26.376 0-26.376-14.213v-223.104c0-14.213 14.212-22.31 26.376-14.213z"></path>
<path fill="none" stroke-linejoin="miter" stroke-linecap="butt" stroke-miterlimit="4" stroke-width="28.4444" stroke="currentColor" d="M89.386 136.106h589.226c36.508 0 66.105 29.596 66.105 66.105v363.577c0 36.508-29.596 66.105-66.105 66.105h-589.226c-36.508 0-66.105-29.596-66.105-66.105v-363.577c0-36.508 29.597-66.105 66.105-66.105z"></path>
</svg>
