<svg xmlns="http://www.w3.org/2000/svg" width="20" height="20" viewBox="0 0 20 20">
    <g fill="none" fill-rule="evenodd">
        <g fill="#FFF" fill-rule="nonzero">
            <g>
                <g>
                    <path d="M6.725.094C3.07.094.094 3.069.094 6.725c0 3.657 2.975 6.632 6.631 6.632 3.657 0 6.632-2.975 6.632-6.632 0-3.656-2.975-6.631-6.632-6.631zm0 12.512c-3.243 0-5.88-2.638-5.88-5.88 0-3.243 2.638-5.881 5.88-5.881 3.243 0 5.881 2.638 5.881 5.88 0 3.244-2.637 5.881-5.88 5.881zm.5-3.222c0 .277-.223.501-.5.501-.276 0-.5-.224-.5-.5 0-.277.224-.502.5-.502.277 0 .5.225.5.501zm1.44-4.255c0 .953-.673 1.74-1.564 1.916v.912c0 .207-.169.376-.376.376s-.375-.169-.375-.376v-1.25c0-.208.168-.376.375-.376.656 0 1.19-.533 1.19-1.188 0-.67-.535-1.202-1.19-1.202-.655 0-1.188.533-1.188 1.188 0 .208-.169.382-.376.382s-.375-.161-.375-.369v-.013c0-1.07.87-1.94 1.94-1.94 1.069 0 1.939.87 1.939 1.94z" transform="translate(-310 -181) translate(310 181) translate(3 3)"/>
                </g>
            </g>
        </g>
    </g>
</svg>
