<svg version="1.1" xmlns="http://www.w3.org/2000/svg" width="1em" height="1em" viewBox="0 0 768 768">
<path fill="currentColor" d="M48.045 572.803c-13.311 0-24.023 10.763-24.023 24.023v147.152c0 13.259 10.711 24.022 24.023 24.022h671.962c13.259 0 23.971-10.763 23.971-24.022v-147.152c0-13.259-10.712-24.023-23.971-24.023s-24.023 10.763-24.023 24.023v123.181h-623.968v-123.233c0-13.207-10.712-23.919-23.971-23.919z"></path>
<path fill="currentColor" d="M384 0.053c-13.259 0-23.971 10.711-23.971 23.971v516.23l-152.248-147.101c-9.463-9.256-24.699-8.943-33.901 0.571s-8.943 24.699 0.52 33.955l192.91 186.307c0.883 0.832 2.080 1.196 3.016 1.924 1.457 1.040 2.86 2.236 4.577 2.963 2.911 1.196 5.98 1.82 9.1 1.82s6.136-0.677 9.048-1.82c1.612-0.677 2.86-1.768 4.263-2.756 1.092-0.728 2.34-1.196 3.328-2.183l192.91-186.307c9.463-9.256 9.723-24.439 0.52-33.955s-24.439-9.776-33.955-0.572l-152.092 147.101v-516.23c0-13.259-10.763-23.971-24.022-23.971z"></path>
</svg>
