<svg xmlns="http://www.w3.org/2000/svg" width="1em" height="1em" viewBox="0 0 81 81">
    <g fill="none" fill-rule="evenodd">
        <path fill="#141923" d="M0 0H81V81H0z"/>
        <g fill="#FFF" fill-rule="nonzero">
            <path d="M7.13 39.396c.42.315 1.008.273 1.38-.099.371-.371.413-.96.098-1.38-5.926-5.918-7.703-14.825-4.5-22.563C7.31 7.614 14.861 2.568 23.236 2.568s15.925 5.047 19.128 12.786c3.202 7.738 1.426 16.645-4.5 22.563-.33.248-.486.666-.398 1.07.088.403.403.719.807.807.404.088.822-.068 1.07-.398 6.539-6.52 8.504-16.338 4.977-24.871C40.793 5.992 32.47.425 23.236.425S5.679 5.993 2.152 14.526C-1.375 23.058.59 32.876 7.13 39.395z" transform="translate(17 17)"/>
            <path d="M34.326 35.488c.278-.004.544-.118.74-.317 6.522-6.543 6.51-17.133-.025-23.663-6.536-6.529-17.126-6.529-23.663 0-6.536 6.53-6.547 17.12-.024 23.663.42.315 1.009.273 1.38-.098.372-.372.414-.96.099-1.38-5.707-5.716-5.703-14.974.009-20.683 5.712-5.71 14.97-5.71 20.682 0 5.713 5.71 5.717 14.967.01 20.682-.303.309-.388.77-.213 1.166.175.396.573.645 1.005.63z" transform="translate(17 17)"/>
            <path d="M29.15 30.735c.411.402 1.069.402 1.48 0 3.011-3.003 3.916-7.526 2.292-11.457-1.625-3.93-5.46-6.494-9.712-6.494-4.254 0-8.088 2.563-9.713 6.494-1.624 3.931-.72 8.454 2.293 11.457.42.315 1.009.273 1.38-.098.372-.372.414-.96.099-1.38-2.415-2.397-3.145-6.014-1.85-9.16 1.296-3.145 4.362-5.197 7.764-5.197s6.468 2.052 7.764 5.198c1.296 3.145.565 6.762-1.85 9.158-.387.425-.364 1.083.054 1.479z" transform="translate(17 17)"/>
            <path d="M24.292 47V27.091c.659-.177 1.26-.523 1.743-1.003 1.27-1.261 1.537-3.218.65-4.773-.886-1.555-2.705-2.323-4.438-1.872-1.732.451-2.947 2.008-2.963 3.798-.015 1.79 1.172 3.369 2.896 3.85V47h2.112zM21.97 22.021c.708-.681 1.832-.667 2.522.033.69.699.69 1.823 0 2.523-.69.699-1.814.713-2.522.032-.352-.339-.551-.806-.551-1.294s.199-.955.55-1.294z" transform="translate(17 17)"/>
        </g>
    </g>
</svg>
