<svg xmlns="http://www.w3.org/2000/svg" width="1em" height="1em" viewBox="0 0 32 32">
    <path fill="currentColor" fill-rule="evenodd" d="M32 0v32H0V0h32zM17.633 6c-2.474 0-4.073 1.878-4.073 4.784v2.206h-2.214c-.191 0-.346.177-.346.396v3.196c0 .22.155.396.346.396h2.214v8.065c0 .219.155.396.347.396h2.888c.192 0 .347-.178.347-.396v-8.065h2.588c.192 0 .347-.177.347-.396v-3.196c0-.105-.036-.206-.1-.28-.066-.074-.154-.116-.246-.116h-2.59v-1.87c0-.899.188-1.355 1.21-1.355h1.484c.19 0 .346-.178.346-.397V6.4c0-.218-.155-.396-.346-.396L17.633 6z"/>
</svg>
