<svg xmlns="http://www.w3.org/2000/svg" width="1em" height="1em" viewBox="0 0 81 81">
    <g fill="none" fill-rule="evenodd">
        <path fill="#141923" d="M0 0H81V81H0z"/>
        <g>
            <g fill="#FFF" fill-rule="nonzero">
                <path d="M.826.124h43.896c.388 0 .703.315.703.702v43.896c0 .388-.315.703-.703.703H.826c-.387 0-.702-.315-.702-.703V.826C.124.44.44.124.826.124zM44.02 1.53H1.529V44.02H44.02V1.529z" transform="translate(10.562 10.506) translate(7.192 7.192)"/>
                <path d="M14.509 44.722c0 .388.314.703.702.703.388 0 .703-.315.703-.703v-14.51c0-.388-.315-.702-.703-.702-.388 0-.702.314-.702.702v14.51zM.826 25.483c-.387 0-.702.314-.702.702 0 .388.315.703.702.703h9.046c.388 0 .703-.315.703-.703 0-.388-.315-.702-.703-.702H.826zM22.439.826c0-.387-.315-.702-.703-.702-.388 0-.702.315-.702.702v8.157c0 .388.314.702.702.702.388 0 .703-.314.703-.702V.826zM44.722 25.405c.388 0 .703-.315.703-.703 0-.388-.315-.702-.703-.702H22.587v-8.047c0-.388-.315-.703-.702-.703-.388 0-.703.315-.703.703v8.75c0 .387.315.702.703.702h22.837z" transform="translate(10.562 10.506) translate(7.192 7.192)"/>
                <path d="M34.232 36.065c0 .388.315.702.703.702.388 0 .702-.314.702-.702V24.702c0-.388-.314-.702-.702-.702-.388 0-.703.314-.703.702v11.363z" transform="translate(10.562 10.506) translate(7.192 7.192)"/>
            </g>
            <path d="M0 0H59.933V59.933H0z" transform="translate(10.562 10.506)"/>
        </g>
    </g>
</svg>
