<svg width="33" height="44" viewBox="0 0 33 44" fill="none" xmlns="http://www.w3.org/2000/svg">
<path fill-rule="evenodd" clip-rule="evenodd" d="M33 16.5C33 20.3139 31.706 23.8256 29.5331 26.62L16.5 44L3.33295 26.4453C1.24092 23.6799 0 20.2349 0 16.5C0 7.3873 7.3873 0 16.5 0C25.6127 0 33 7.3873 33 16.5ZM11.1464 12.5607L15.0858 16.5L11.1464 20.4393C10.9512 20.6346 10.9512 20.9512 11.1464 21.1464L11.8536 21.8536C12.0488 22.0488 12.3654 22.0488 12.5607 21.8536L16.5 17.9142L20.4393 21.8536C20.6346 22.0488 20.9512 22.0488 21.1464 21.8536L21.8536 21.1464C22.0488 20.9512 22.0488 20.6346 21.8536 20.4393L17.9142 16.5L21.8536 12.5607C22.0488 12.3654 22.0488 12.0488 21.8536 11.8536L21.1464 11.1464C20.9512 10.9512 20.6346 10.9512 20.4393 11.1464L16.5 15.0858L12.5607 11.1464C12.3654 10.9512 12.0488 10.9512 11.8536 11.1464L11.1464 11.8536C10.9512 12.0488 10.9512 12.3654 11.1464 12.5607Z" fill="#AEB2BD"/>
</svg>
