<svg xmlns="http://www.w3.org/2000/svg" width="37" height="40" viewBox="0 0 37 40">
    <g fill="none" fill-rule="evenodd">
        <g fill="#FFF">
            <g>
                <g>
                    <path d="M17.886 18.362v.457c.385.229.77.457 1.156.61 1.31.685 2.697 1.219 4.085 1.6v-.381c-1.31-.381-2.62-.915-3.931-1.524-.463-.229-.848-.457-1.31-.762" transform="translate(-531 -589) translate(316 562) translate(215 27)"/>
                    <path d="M36.075 14.78c-1.079-3.2-2.929-5.942-5.395-8.075h-.077c-1.156-.99-2.39-1.829-3.777-2.514-4.393-2.21-9.171-2.515-13.488-1.296-2.08.61-4.007 1.524-5.703 2.82C6.325 3.884 5.09 1.98 3.78 0c.386.914 1.619 3.429 3.16 6.248-2.004 1.6-3.7 3.58-4.933 6.019-1.156 2.21-1.85 4.647-2.003 7.01v.837C-.15 26.895 3.627 33.524 10.178 36.8c4.393 2.21 9.403 2.514 14.105.99 1.002-.304 1.927-.685 2.852-1.142 3.082 1.295 6.242 2.361 9.248 3.352-2.466-1.219-5.318-2.59-7.861-4.19.54-.381 1.156-.762 1.695-1.22l.078-.076c1.926-1.6 3.545-3.58 4.701-5.866.77-1.372 1.233-2.896 1.619-4.343v-.229c.077-.228.077-.38.154-.61v-.152c.462-2.819.231-5.714-.694-8.533zm-9.48-10.285c1.233.61 2.312 1.296 3.314 2.134-.462 0-1.002 0-1.541.076-.617-.61-1.31-1.143-2.158-1.524-.771-.38-1.542-.61-2.235-.762-.309-.457-.617-.914-.926-1.219 1.234.305 2.39.762 3.546 1.295zM10.487 5.867c.154-.153.23-.381.308-.534 2.697-.61 5.78-.61 8.863.077-.077.076-.154.228-.23.304-.31.61-.31 1.296-.078 2.057.154.305.308.686.54.99-2.467 1.068-4.625 2.439-6.552 4.039-1.079-1.143-2.235-2.438-3.314-3.81-.154-1.142 0-2.209.463-3.123zM9.639 8.38c-.54-.686-1.08-1.371-1.542-2.057.694-.305 1.388-.61 2.158-.838 0 .076-.077.152-.077.228-.462.762-.616 1.676-.54 2.667zm10.096-.762c-.23-.61-.23-1.219.078-1.676l.23-.457c1.62.38 3.238.99 4.78 1.752-1.62.305-3.16.838-4.548 1.372-.231-.305-.462-.61-.54-.99zm5.087-.838c-1.464-.686-2.929-1.219-4.393-1.6.154-.152.462-.229.694-.305.77-.305 1.618-.305 2.62-.152.386.686.771 1.447 1.08 2.057zm-.54-1.905c.54.153 1.157.381 1.773.61.694.38 1.31.762 1.773 1.219-.925.076-1.85.305-2.39.38h-.076c-.309-.685-.694-1.523-1.08-2.209zm.849 2.667c.693 1.447 1.233 2.971 1.618 4.495-1.079 0-2.312-.305-3.468-.914-1.156-.534-2.158-1.295-2.775-2.134 1.465-.609 3.006-1.142 4.625-1.447zm.539.076c1.465.762 2.775 1.676 4.008 2.667 0 .152-.077.38-.154.533-.231.457-.694.838-1.387 1.067-.309.076-.617.152-1.002.152-.309-1.448-.848-2.971-1.465-4.419zm.308-.229c.617-.152 1.465-.228 2.235-.304.925.838 1.465 1.828 1.542 2.743-1.156-.915-2.39-1.753-3.777-2.439zM13.492 3.276c2.852-.762 5.935-.914 8.941-.228.308.304.694.762 1.002 1.219-.925-.076-1.696 0-2.466.228-.386.153-.771.305-1.002.61-3.083-.762-6.09-.762-8.787-.229.54-.685 1.31-1.219 2.312-1.6zm-1.927.686c-.385.305-.693.686-1.001 1.067-.925.228-1.85.533-2.698.99 1.156-.838 2.39-1.524 3.7-2.057zm-1.233 32.457c-1.233-.61-2.466-1.371-3.468-2.286-.54-1.371-.693-2.59-.848-3.885 1.619 1.371 3.546 2.666 5.627 3.733 2.158.99 4.316 1.752 6.397 2.21-.925.609-2.235 1.295-3.777 1.676-1.31-.305-2.62-.762-3.93-1.448zm13.797 1.067c-2.93.914-6.09 1.142-9.018.533 1.387-.457 2.62-1.143 3.391-1.6.077-.076.077-.076.154-.076 2.852.533 5.55.533 7.862 0 .077 0 .077.076.154.076-.77.381-1.619.762-2.543 1.067zm-5.01-1.448c.925-.61 1.772-1.371 2.543-2.133 1.387.838 2.852 1.524 4.24 2.133-2.005.457-4.317.457-6.783 0zm15.569-7.543c-1.156 2.286-2.775 4.267-4.702 5.79-.616.458-1.31.915-2.08 1.22-1.388-.915-2.621-1.829-3.7-2.743 2.004-.457 3.545-1.143 5.395-2.286-.386-.152-.771-.305-1.156-.533 1.079-.076 2.004-.305 2.852-.61 1.85-.61 3.314-1.6 4.238-2.895-.23.686-.539 1.372-.847 2.057zm1.695-5.257c-.077.229-.077.534-.154.762v.152c-.154.381-.308.839-.54 1.296-.77 1.6-2.389 2.819-4.47 3.504-1.079.381-2.158.61-3.391.686-.693-.38-1.464-.838-2.158-1.219l.463-1.143c-.078-.076-.232-.076-.309-.152-.154.38-.308.762-.54 1.066-2.543-1.523-5.01-3.428-7.398-5.409v2.59c1.31 1.143 2.62 2.21 3.853 3.277-.154.076-.385.228-.616.304-1.465-.38-2.929-.838-4.394-1.447h-.924c1.541.685 3.16 1.295 4.701 1.676-1.387.61-3.468 1.22-3.93 1.295 1.54 1.22 3.082 2.286 4.7 3.276-.77.762-1.772 1.524-2.774 2.21-2.158-.457-4.47-1.22-6.705-2.362-2.158-1.067-4.162-2.438-5.78-3.886-.078-.762-.078-1.524 0-2.21H5.63c-.077.61-.077 1.22-.077 1.83-.617-.61-1.156-1.22-1.696-1.83h-.54c.617.839 1.465 1.6 2.313 2.363v.152c.077.99.154 2.21.616 3.58-3.082-2.818-5.086-6.628-5.703-10.666.463 1.143 1.08 2.362 1.927 3.505v-.076h.462C1.392 24.229.467 22.095.39 20.038c.077-2.59.693-5.18 1.927-7.619.385-.686.77-1.371 1.156-1.98-.386 1.142-.386 2.437-.154 3.732h.385c-.308-1.6-.154-3.123.54-4.419.23-.457.693-1.066 1.001-1.447.617-.61 1.234-1.067 1.927-1.524 1.388 2.438 2.852 4.952 4.162 6.629-1.233.076-2.003.076-3.237-.077.154.305.308.61.463.838l.154.381c.385.686.77 1.296 1.156 1.905-.848 1.143-1.541 2.286-2.158 3.505v.914c.617-1.448 1.464-2.819 2.39-4.038l.076.076v-2.666h4.702c-.463-.381-.848-.762-1.233-1.143 1.85-1.6 4.084-2.972 6.474-3.962.694.914 1.695 1.752 2.928 2.362 1.31.61 2.621.99 3.777.914.154.61.309 1.22.386 1.829h.385c-.077-.61-.154-1.22-.308-1.829.308 0 .693-.076 1.002-.152.693-.305 1.31-.686 1.618-1.296 0-.152.077-.228.154-.38 1.31 1.142 2.467 2.361 3.469 3.657h.462c-1.08-1.448-2.39-2.896-3.854-4.115 0-.99-.462-2.057-1.387-3.123.617 0 1.233 0 1.696.076 2.235 1.904 3.93 4.343 5.01 7.162.23.914.23 1.828.076 2.59-.23-.457-.539-.99-.847-1.524v.153h-.386c.463.685.771 1.295 1.08 1.98-.078.23-.155.458-.309.686-.308.61-.77 1.143-1.387 1.6v.534c.77-.534 1.387-1.22 1.773-1.981.076-.077.076-.229.154-.305.693 1.752.924 3.505.77 5.257zm-.616-5.79c.154-.458.231-.915.231-1.372.385 1.295.54 2.59.617 3.886-.232-.838-.463-1.676-.848-2.514z" transform="translate(-531 -589) translate(316 562) translate(215 27)"/>
                    <path d="M7.327 26.21V15.619c0-.457.539-.533 1.078-.533v-.534H2.78v.534c.54 0 1.002.076 1.002.533v10.59c0 .382-.385.458-.925.458v.457H8.33v-.457c-.617 0-1.002-.076-1.002-.457M20.506 18.362h.54v-3.733H10.564v3.733h.54c0-1.219.539-1.753 1.387-1.753h1.541v9.524c0 .229-.077.534-1.002.534v.457h5.55v-.457c-.925 0-1.08-.305-1.08-.534V16.61h1.619c.77 0 1.387.534 1.387 1.753M34.302 14.629h-4.007v.457c.539 0 1.078.076 1.078.61v7.77c0 1.144-1.31 1.753-2.312 1.753-1.079 0-2.312-.61-2.312-1.752v-7.772c0-.38.308-.61.77-.61v-.456h-4.855v.457c.463 0 .848.152.848.61v8.076c0 2.438 2.852 3.504 4.933 3.504 2.08 0 4.932-1.143 4.932-3.504v-8.077c0-.457.386-.61.925-.61v-.456" transform="translate(-531 -589) translate(316 562) translate(215 27)"/>
                    <path d="M17.886 17.448c.308-.077.616-.077.925-.153-.155-.152-.309-.228-.463-.38h-.462v.533M13.724 19.048l-1.08-1.067h1.08v-1.067H12.49c-.848 0-1.002.838-1.002 1.448v.305c.693.914 1.464 1.828 2.235 2.666v-2.285M13.492 26.286c.155-.076.232-.076.232-.153v-.152c-2.39-1.371-4.393-3.048-6.012-4.724v.534c1.541 1.676 3.545 3.2 5.78 4.495M27.366 15.467c.23 1.98.23 3.961 0 5.866l-.077.381c-.077.381-.154.838-.232 1.22v.533c0 .228.078.38.155.533.23-.686.385-1.524.462-2.286 1.233.077 2.312-.076 3.314-.304v-.381c-1.002.228-2.08.38-3.237.304.231-1.905.231-3.885.077-5.866H27.366" transform="translate(-531 -589) translate(316 562) translate(215 27)"/>
                </g>
            </g>
        </g>
    </g>
</svg>
