<svg xmlns="http://www.w3.org/2000/svg" width="194" height="194" viewBox="0 0 194 194">
    <g fill="none" fill-rule="evenodd">
        <path fill="#FFF" d="M0 0H194V194H0z"/>
        <g fill-rule="nonzero">
            <path fill="#373C46" d="M25.494.704H1.7c-.935 0-1.7.765-1.7 1.7v23.795c0 .935.765 1.7 1.7 1.7h23.794c.935 0 1.7-.765 1.7-1.7V2.404c0-.935-.765-1.7-1.7-1.7z" transform="translate(17 80)"/>
            <path fill="#FFF" d="M15.382 23.82c0-.51.17-1.02.34-1.53-.51.424-.68.934-.85 1.614.085-.765.425-5.863.425-6.118 1.274-3.74.68-14.787 2.38-16.232-1.87.34-2.55 2.295-3.145 3.824-.595-1.784-.085-2.974-2.125-3.654 1.615 1.36 1.275 2.55 1.615 4.42-.935-1.276-.68-2.805-1.785-4.08-.34-.34-1.36-1.105-1.36-1.105 0 .085.85 1.7 1.02 2.635.17.85.51 2.634.51 3.314.17 3.57 1.02 7.053 1.7 10.623.085.594.425 2.38.425 2.38l.085.764c-.085-.51-.255-.935-.255-1.105-.17-.51-.595-1.87-.765-2.464-1.53-3.145-4.25-9.178-7.988-10.113 2.124 1.87 4.334 4.334 4.844 6.713-1.105-1.614-5.524-4.928-7.394-6.203 3.4 3.484 6.119 7.138 9.093 11.047.85 1.105 1.955 3.4 2.04 3.91.085.34.085 1.784.17 2.634-1.615-3.994-2.55-6.034-5.609-7.818-.51-.255-2.124-.85-2.124-.85.764.85 1.614.85 2.294 1.954-1.36-.934-2.804-1.104-4.419-1.104 5.099 2.634 7.818 3.399 9.518 8.413.17.85-.085 1.36-.085 2.21h1.105v-1.19c.085-.34.085-1.445.255-1.7.51-1.36 1.36-1.955 2.634-2.804-1.19.425-1.7.255-2.55 1.614zm5.013-11.898c-.424.425-1.7 1.954-1.7 1.954.086-2.21.596-4.589 2.04-6.288-1.954 1.275-3.059 4.504-3.654 6.458-.17.765-2.55 5.354-1.444 7.819.17-.935.68-1.785 1.274-2.55.255-.34 1.36-2.124 2.465-4.589.935-2.464 2.55-3.994 4.759-5.184-1.615.255-2.55 1.19-3.74 2.38z" transform="translate(17 80)"/>
            <path fill="#373C46" d="M41.64 5.803v4.164c0-.085-.679-.085-.934-.17-.255 0-.51-.085-.935-.085-.68 0-1.36.085-1.87.34s-.934.595-1.274 1.02c-.34.425-.595 1.02-.765 1.7-.085.68-.17 1.444-.17 2.21 0 1.614.255 2.889.85 3.738.595.85 1.445 1.275 2.464 1.275.68 0 1.19-.085 1.615-.34.425-.255.765-.425 1.105-1.02l.085 1.53h1.53V5.803h-1.7zm0 9.773c0 .425-.084.85-.17 1.275-.084.425-.254.765-.509 1.02-.17.254-.425.51-.765.68-.255.17-.595.254-.935.254-.68 0-1.19-.34-1.53-1.02-.34-.68-.51-1.614-.51-2.974 0-1.274.17-2.21.596-2.89.34-.679 1.02-.934 1.87-.934.424 0 .764 0 1.104.085.34.085.85.17.85.255v4.25zm8.329 4.08c-.595.254-1.275.424-1.955.424-1.274 0-2.21-.34-2.804-1.105-.595-.765-.935-1.954-.935-3.569 0-1.87.34-3.314 1.02-4.249.68-.935 1.615-1.445 2.804-1.445 1.19 0 2.04.425 2.72 1.275.595.85.85 2.21.765 3.994H45.89v.17c0 1.36.17 2.295.595 2.89.425.594.935.85 1.7.85.424 0 .934-.086 1.36-.256.424-.17.934-.425 1.529-.85l.595 1.02c-.595.34-1.105.595-1.7.85zm-.51-7.99c-.34-.509-.85-.764-1.445-.764-.594 0-1.104.255-1.444.765-.34.51-.51 1.275-.595 2.21h3.994c0-.935-.17-1.7-.51-2.21zm9.348.596c-.17.765-.425 1.53-.68 2.38-.255.764-.51 1.614-.765 2.549-.255.85-.51 1.784-.85 2.72h-1.53c-.34-1.02-.594-1.955-.934-2.805l-.765-2.55c-.255-.765-.425-1.614-.68-2.294-.17-.765-.34-1.53-.51-2.21h1.445l1.02 4.08c.34 1.36.765 2.719 1.19 4.163l1.104-4.079c.34-1.36.68-2.719 1.02-4.164h1.36c0 .68-.17 1.445-.425 2.21zm6.714 7.393c-.595.255-1.275.425-1.955.425-1.275 0-2.21-.34-2.804-1.105-.595-.765-.935-1.954-.935-3.569 0-1.87.34-3.314 1.02-4.249.68-.935 1.614-1.445 2.804-1.445 1.19 0 2.04.425 2.72 1.275.594.85.85 2.21.764 3.994h-5.694v.17c0 1.36.17 2.295.595 2.89.425.594.935.85 1.7.85.425 0 .935-.086 1.36-.256.425-.17.934-.425 1.53-.85l.594 1.02c-.595.34-1.105.595-1.7.85zm-.51-7.988c-.34-.51-.85-.765-1.445-.765-.595 0-1.105.255-1.445.765-.34.51-.51 1.275-.595 2.21h3.91c.085-.935-.085-1.7-.425-2.21zm3.399 8.158V6.228h1.445V19.91H68.41v-.085zm6.458.255c-1.274 0-2.21-.425-2.804-1.19-.595-.85-.935-2.124-.935-3.824 0-1.784.34-3.06.935-3.994.595-.85 1.615-1.275 2.974-1.275 1.275 0 2.21.425 2.805 1.275.595.85.85 2.125.85 3.824 0 3.484-1.275 5.184-3.825 5.184zm1.785-8.158c-.34-.68-.935-1.02-1.785-1.02-.764 0-1.274.34-1.614.935-.34.68-.51 1.615-.51 2.974 0 1.445.17 2.465.51 3.06.34.594.935.934 1.7.934 1.36 0 2.124-1.274 2.124-3.909 0-1.36-.17-2.38-.425-2.974zm10.368 6.713c-.68.935-1.7 1.445-3.145 1.445-.34 0-.68 0-.934-.085-.255 0-.51-.085-.935-.17v3.314h-1.445V9.967h1.275l.085 1.275c.34-.595.68-.935 1.105-1.19.425-.255.934-.34 1.614-.34 1.105 0 1.87.425 2.465 1.275.595.85.85 2.125.85 3.74 0 1.699-.255 2.974-.935 3.908zm-1.105-6.628c-.34-.68-.85-1.02-1.53-1.02-.34 0-.68.085-.934.255-.255.17-.51.425-.68.68-.17.255-.34.595-.51 1.02-.17.425-.17.764-.17 1.274v4.334c.255.085.51.17.85.255.34.085.68.085 1.104.085.85 0 1.445-.34 1.87-.934.425-.595.595-1.615.595-2.89-.085-1.445-.255-2.464-.595-3.06zm14.022 7.818v-6.628c0-.68-.085-1.275-.17-1.7-.085-.425-.425-.595-.935-.595-.34 0-.68.085-1.02.34-.34.255-.764.595-1.36 1.02v7.563H95.01v-6.628c0-.68-.085-1.275-.17-1.7-.085-.425-.425-.595-.935-.595-.34 0-.68.085-1.02.34-.34.255-.764.595-1.36 1.02v7.563H90.08V9.967h1.275l.085 1.19 1.444-1.02c.425-.255.935-.425 1.445-.425.595 0 1.02.17 1.275.425.255.255.51.595.68 1.105.51-.425 1.02-.765 1.53-1.02s.934-.425 1.444-.425c.85 0 1.36.255 1.7.765.34.51.425 1.275.425 2.38v6.968h-1.445v-.085zm8.413-.17c-.595.255-1.275.425-1.955.425-1.274 0-2.209-.34-2.804-1.105-.595-.765-.935-1.954-.935-3.569 0-1.87.34-3.314 1.02-4.249.68-.935 1.615-1.445 2.804-1.445 1.19 0 2.04.425 2.72 1.275.595.85.85 2.21.765 3.994h-5.694v.17c0 1.36.17 2.295.595 2.89.425.594.935.85 1.7.85.424 0 .934-.086 1.36-.256.424-.17.934-.425 1.529-.85l.595 1.02c-.595.34-1.19.595-1.7.85zm-.595-7.988c-.34-.51-.85-.765-1.444-.765-.595 0-1.105.255-1.445.765-.34.51-.51 1.275-.595 2.21h3.994c0-.935-.17-1.7-.51-2.21zm8.583 8.158v-6.628c0-.68-.085-1.275-.255-1.7-.17-.425-.51-.595-1.02-.595-.34 0-.68.085-1.02.34-.34.255-.849.595-1.359 1.02v7.563h-1.445V9.967h1.275l.085 1.19c.51-.34 1.02-.68 1.445-1.02.51-.255.935-.425 1.444-.425.85 0 1.445.255 1.7.765.34.51.51 1.275.51 2.38v6.968h-1.36zm6.629.255c-.51 0-1.02-.085-1.36-.17-.34-.085-.595-.34-.765-.595-.17-.255-.34-.595-.34-1.105-.085-.424-.085-1.02-.085-1.614v-5.439h-1.444v-1.19h1.444v-2.72l1.445-.17v2.89h2.04l-.085 1.19h-1.87v6.374c0 .34.085.594.17.764.085.17.255.34.425.425.17.085.425.17.765.17h.425l.425-.085.17 1.19c-.51 0-.935.085-1.36.085zM133.76 18.04c-.17.425-.424.765-.764 1.02s-.765.51-1.19.68c-.51.17-1.02.255-1.53.255-1.274 0-2.124-.255-2.72-.765-.594-.51-.764-1.274-.679-2.124l1.275-.17c0 .255 0 .425.085.68.085.255.17.425.34.594.17.17.425.34.68.425.34.085.68.17 1.19.17.679 0 1.189-.17 1.614-.51.425-.34.595-.85.595-1.444 0-.51-.17-.935-.425-1.19-.255-.34-.595-.51-1.02-.765-.425-.17-.85-.425-1.36-.595-.51-.17-.934-.425-1.36-.68-.424-.254-.764-.594-1.02-1.02-.254-.424-.424-.934-.424-1.614 0-.425.085-.85.255-1.275.17-.34.425-.68.68-.934.34-.255.68-.425 1.104-.595.425-.17.935-.17 1.53-.17s1.105.085 1.445.255c.425.17.765.34 1.02.595.255.254.425.51.51.85.084.34.17.68.17 1.02l-1.275.17c0-.256 0-.426-.085-.68-.085-.17-.17-.426-.34-.51-.17-.17-.34-.256-.595-.34-.255-.086-.595-.17-.935-.17-.34 0-.68.084-.935.17-.255.084-.51.254-.68.34-.17.17-.34.34-.424.51-.085.17-.17.424-.17.68 0 .509.17.934.425 1.189.255.34.68.51 1.104.765l1.36.595c.51.17.935.424 1.36.68.425.254.765.594 1.104 1.02.255.424.425.934.425 1.614-.085.425-.17.85-.34 1.275zm1.955 1.785V8.268h5.864l-.085 1.19h-4.334v3.824h3.399v1.19h-3.4v4.248h4.505v1.19h-5.949v-.085zm7.733 0V8.268h5.864l-.085 1.19h-4.334v3.824h3.4v1.19h-3.4v4.248h4.504v1.19h-5.949v-.085zm15.297-3.484c-.255.765-.595 1.36-1.02 1.87-.425.51-1.02.934-1.614 1.19-.68.254-1.36.424-2.21.424h-2.464V8.268h2.464c1.7 0 3.06.51 3.91 1.53.849 1.02 1.274 2.379 1.274 4.163 0 .85-.085 1.615-.34 2.38zm-2.04-5.694c-.594-.85-1.53-1.275-2.889-1.275h-.935v9.263h1.19c1.19 0 2.04-.425 2.634-1.19.595-.764.935-1.954.935-3.399-.085-1.444-.34-2.549-.935-3.399z" transform="translate(17 80)"/>
        </g>
    </g>
</svg>
