<svg xmlns="http://www.w3.org/2000/svg" width="194" height="194" viewBox="0 0 194 194">
    <g fill="none" fill-rule="evenodd">
        <path fill="#FFF" d="M0 0H194V194H0z"/>
        <path fill="#373C46" d="M105.356 84.31h5.155v2.01c1.718-2.073 3.76-2.584 5.446-2.584 2.302 0 4.474 1.085 5.706 3.19 1.847-2.584 4.603-3.19 6.548-3.19 2.69 0 5.024 1.244 6.289 3.414.421.733 1.167 2.328 1.167 5.486v13.43h-5.155V94.104c0-2.425-.259-3.414-.486-3.86-.324-.83-1.102-1.914-2.95-1.914-1.264 0-2.366.67-3.047 1.595-.908 1.244-1.005 3.094-1.005 4.944v11.197h-5.154V94.104c0-2.425-.26-3.414-.487-3.86-.324-.83-1.102-1.914-2.95-1.914-1.264 0-2.366.67-3.047 1.595-.908 1.244-1.005 3.094-1.005 4.944v11.197h-5.025V84.31zm-17.764 0h5.154v1.946c.584-.67 1.427-1.403 2.14-1.818 1.005-.574 1.977-.734 3.144-.734 1.265 0 2.626.192 4.052 1.021l-2.107 4.594c-1.167-.734-2.107-.766-2.625-.766-1.103 0-2.205.16-3.21 1.18-1.426 1.5-1.426 3.573-1.426 5.009v11.26h-5.155l.033-21.692zM64.284 95.284c0 3.764 2.399 6.922 6.127 6.922 3.242 0 6.256-2.328 6.256-6.858 0-4.753-2.982-7.018-6.256-7.018-3.728-.032-6.127 3.062-6.127 6.954zM76.31 84.31h5.154v21.724h-5.154v-2.265c-2.27 2.584-5.025 2.935-6.613 2.935-6.808 0-10.698-5.582-10.698-11.548 0-7.081 4.927-11.42 10.763-11.42 1.62 0 4.473.415 6.548 3.095v-2.52z"/>
    </g>
</svg>
