<svg xmlns="http://www.w3.org/2000/svg" width="194" height="194" viewBox="0 0 194 194">
    <g fill="none" fill-rule="evenodd">
        <path fill="#FFF" d="M0 0H194V194H0z"/>
        <g fill="#373C46">
            <path d="M23.286 27.006c.468 2.885 2.863 4.926 5.535 5.16 3.763.33 2.592-.942 5.369 1.8 3.35 3.313 3.887 4.903 5.983 2.804 1.51-1.512 3.41-2.737 1.915-4.257-.605-.617-1.179-1.177-1.791-1.791-.325-.326-.757-.525-.546-1.223.074-.242.429-.808.576-1.169.71-1.721.453-4.651.453-6.744V7.37c-.004-2.318-.97-4.055-2.211-4.989C36.648.936 35.787.945 32.865.945c-2.333.001-4.587-.27-6.408.727-4.163 2.28-3.241 6.575-3.245 11.118-.002 2.253-.142 12.893.074 14.216zm8.287-18.227h.859c.334 0 .607.274.607.607v14.513c0 .334-.273.607-.607.607h-.86c-.334 0-.606-.273-.606-.607V9.386c0-.333.272-.607.607-.607zm41.724-7.764c-.896.302-1.11.817-1.106 1.957.028 9.094-.084 18.382 0 27.412.02 2.378 2.229 1.83 4.345 1.83 2.046 0 4.09-.002 6.136 0 2.278 0 3.341-.233 4.776-1.352 2.886-2.255 2.323-5.427 2.323-9.89V8.802c0-2.313.087-3.353-1.008-5.065-.726-1.136-1.85-2.12-3.558-2.588C84.25.89 74.077.75 73.297 1.015zm8.22 7.788h-1.515V24.45h1.515c.254 0 .462-.206.462-.46V9.265c0-.254-.208-.462-.462-.462zm-29.12 15.435c-.47.153-1.712.378-1.822-.304L50.57 3.688c0-1.62-.022-2.742-1.745-2.754-5.648-.04-6.09-.59-6.087 2.958.007 6.034 0 12.07 0 18.104 0 3.617-.616 7.874 3.823 9.728 1.34.562 2.379.467 3.997.466 3.394-.002 5.34.374 7.58-1.488 2.023-1.682 2.173-3.435 2.173-6.866v-18c0-5.211.464-4.912-4.23-4.9-1.508.002-3.016-.315-3.499.992-.337.913.149 21.18-.187 22.31zM.371 27.006c.423 2.684 2.687 4.933 5.514 5.164.846.068 4.65.126 5.23-.113 1.286-.527.915-2.801.912-4.437-.002-2.15.205-3.28-2.173-3.266-.327.002-1.034.038-1.32-.021-.496-.102-.413-.37-.408-.9.01-.888.005-1.777.005-2.664L8.12 4.61c0-1.771.362-3.631-1.636-3.675-.96-.02-4.699-.142-5.281.128C.527 1.375.3 1.928.3 2.869c0 2.565-.13 22.86.072 24.137zm13.297 4.092c.423 1.44 2.192 1.116 3.752 1.116 1.507 0 3.447.357 3.928-.97.226-.622.105-21.188.105-24.385 0-6.124.668-5.914-3.828-5.923-1.576-.005-3.413-.362-3.905.999-.237.661-.098 8.236-.098 9.629-.001 2.12-.122 18.957.046 19.534zM63.477 1.016C62 1.52 62.384 3.114 62.384 4.814v24.443c0 1.892-.1 2.955 1.978 2.959.836 0 4.3.094 4.815-.08 1.375-.47 1.04-2.266 1.04-3.8V3.892c.002-1.873.097-2.967-1.962-2.958-.942.005-4.152-.131-4.778.082zM48.502 45.218v-8.062h-1.67v-1.592h4.79v1.592h-1.67v8.062h-1.45zm4.526 0v-9.654h4.002v1.604h-2.563v2.234h2.385v1.528h-2.385v2.657h2.625v1.63h-4.064zm5.771 0v-9.654h1.45v8.009h2.624v1.645H58.8zm5.694 0v-9.654h4.005v1.604h-2.563v2.234h2.384v1.528h-2.384v2.657h2.622v1.63h-4.064zm8.872-3.442h1.41c0 .04.002.104.005.184.004.082.005.145.005.193 0 1.116-.19 1.943-.57 2.484-.378.54-.959.811-1.742.811-.371 0-.69-.06-.957-.178-.266-.119-.495-.306-.688-.556-.262-.334-.448-.795-.556-1.377-.109-.586-.163-1.606-.163-3.06 0-.995.033-1.784.098-2.37.063-.588.163-1.026.3-1.314.207-.443.466-.763.778-.962.311-.2.706-.298 1.191-.298.79 0 1.365.254 1.723.763.359.513.54 1.331.544 2.46h-1.41v-.233c0-.521-.068-.911-.204-1.167-.137-.257-.345-.385-.625-.385-.348 0-.584.177-.71.532-.128.355-.19 1.338-.19 2.946 0 1.737.06 2.796.183 3.17.124.378.36.565.707.565.323 0 .549-.147.678-.442.13-.293.193-.838.193-1.633v-.133zm4.545-1.383c0 1.59.073 2.589.224 2.998.15.413.428.62.832.62.398 0 .67-.202.82-.606.144-.402.218-1.408.218-3.012 0-1.605-.075-2.61-.224-3.022-.147-.407-.423-.614-.824-.614-.4 0-.675.207-.824.614-.149.411-.222 1.417-.222 3.022zm-1.484-.002c0-1.024.039-1.842.117-2.455.077-.61.2-1.072.364-1.382.226-.439.497-.75.81-.94.314-.186.726-.28 1.239-.28.514 0 .927.094 1.24.28.313.19.585.501.816.94.162.319.285.78.36 1.393.075.61.114 1.422.114 2.444 0 1.015-.039 1.828-.116 2.44-.077.613-.2 1.076-.358 1.395-.231.439-.503.752-.816.939-.313.189-.726.283-1.24.283-.513 0-.925-.094-1.239-.283-.313-.187-.584-.5-.81-.94-.164-.31-.287-.77-.364-1.381-.078-.611-.117-1.431-.117-2.453zm6.879 4.827v-9.654h2.185l1.069 6.25 1.069-6.25h2.187v9.654h-1.39l.03-8.562-1.45 8.562h-.892l-1.454-8.562.035 8.562h-1.389z" transform="translate(52 72)"/>
        </g>
    </g>
</svg>
