<svg xmlns="http://www.w3.org/2000/svg" width="194" height="194" viewBox="0 0 194 194">
    <g fill="none" fill-rule="evenodd">
        <path fill="#FFF" d="M0 0H194V194H0z"/>
        <g fill="#373C46">
            <path d="M30.714 31.888v.794c.661.397 1.323.794 1.985 1.058 2.25 1.191 4.631 2.117 7.012 2.779v-.662c-2.249-.661-4.498-1.587-6.747-2.646-.794-.397-1.456-.794-2.25-1.323" transform="translate(65 60)"/>
            <path d="M61.94 25.67c-1.852-5.558-5.027-10.321-9.261-14.026h-.133c-1.985-1.72-4.102-3.176-6.483-4.367C38.52 3.44 30.317 2.911 22.908 5.028c-3.573 1.059-6.88 2.646-9.792 4.896C10.866 6.748 8.75 3.44 6.5 0c.662 1.588 2.78 5.954 5.425 10.85-3.44 2.778-6.35 6.219-8.468 10.453C1.472 25.14.28 29.373.017 33.476v1.455C-.248 46.708 6.236 58.22 17.483 63.908c7.542 3.837 16.142 4.367 24.213 1.72 1.72-.529 3.308-1.19 4.896-1.984 5.293 2.25 10.717 4.101 15.878 5.822-4.234-2.117-9.13-4.5-13.496-7.278.926-.661 1.984-1.323 2.91-2.117l.133-.132c3.308-2.779 6.087-6.219 8.071-10.188 1.323-2.382 2.117-5.028 2.779-7.542v-.397c.132-.397.132-.662.265-1.059v-.264c.793-4.896.396-9.924-1.191-14.82zM45.667 7.806c2.117 1.058 3.97 2.25 5.69 3.704-.795 0-1.72 0-2.647.133-1.058-1.059-2.25-1.985-3.705-2.646-1.323-.662-2.646-1.06-3.837-1.324-.53-.793-1.058-1.587-1.588-2.117 2.117.53 4.102 1.324 6.087 2.25zm-27.654 2.381c.264-.264.397-.661.53-.926 4.63-1.058 9.923-1.058 15.215.132-.132.133-.264.397-.397.53-.529 1.058-.529 2.25-.132 3.572.265.53.53 1.191.926 1.72-4.234 1.853-7.939 4.234-11.246 7.013-1.853-1.985-3.838-4.234-5.69-6.616-.265-1.985 0-3.837.794-5.425zm-1.455 4.367c-.927-1.191-1.853-2.382-2.647-3.573 1.19-.529 2.382-1.058 3.705-1.455 0 .132-.132.264-.132.397-.794 1.323-1.059 2.91-.926 4.63zm17.333-1.323c-.397-1.059-.397-2.117.132-2.911l.397-.794c2.779.661 5.557 1.72 8.204 3.043-2.78.53-5.425 1.455-7.807 2.382-.397-.53-.794-1.059-.926-1.72zm8.733-1.456c-2.514-1.19-5.029-2.117-7.542-2.778.264-.265.793-.398 1.19-.53 1.323-.53 2.779-.53 4.499-.264.662 1.19 1.323 2.513 1.853 3.572zm-.927-3.308c.927.265 1.985.662 3.044 1.059 1.19.661 2.249 1.323 3.043 2.117-1.588.132-3.176.53-4.102.662h-.132c-.53-1.191-1.191-2.647-1.853-3.838zm1.456 4.631c1.19 2.514 2.117 5.16 2.778 7.807-1.852 0-3.97-.53-5.954-1.588-1.985-.926-3.705-2.25-4.763-3.705 2.514-1.058 5.16-1.985 7.939-2.514zm.926.133c2.514 1.323 4.764 2.91 6.88 4.63 0 .265-.132.662-.264.927-.397.794-1.191 1.455-2.382 1.852-.53.133-1.059.265-1.72.265-.53-2.514-1.456-5.16-2.514-7.674zm.53-.398c1.058-.264 2.513-.396 3.836-.528 1.588 1.455 2.514 3.175 2.647 4.763-1.985-1.588-4.102-3.044-6.484-4.235zM23.171 5.69c4.896-1.324 10.188-1.588 15.349-.398.529.53 1.19 1.324 1.72 2.117-1.588-.132-2.911 0-4.234.398-.662.264-1.324.529-1.72 1.058-5.293-1.323-10.453-1.323-15.084-.397.926-1.19 2.25-2.117 3.969-2.778zm-3.308 1.19c-.661.53-1.19 1.191-1.72 1.853-1.587.397-3.176.926-4.631 1.72 1.985-1.455 4.102-2.646 6.351-3.572zm-2.117 56.367c-2.117-1.059-4.234-2.382-5.954-3.97-.926-2.381-1.19-4.498-1.455-6.748 2.778 2.382 6.086 4.631 9.658 6.484 3.706 1.72 7.41 3.043 10.983 3.837-1.588 1.058-3.837 2.25-6.484 2.91-2.25-.528-4.499-1.322-6.748-2.513zm23.685 1.852c-5.028 1.588-10.453 1.985-15.481.926 2.381-.793 4.498-1.984 5.822-2.778.132-.132.132-.132.264-.132 4.896.926 9.527.926 13.497 0 .132 0 .132.132.264.132-1.323.661-2.779 1.323-4.366 1.852zm-8.6-2.514c1.587-1.058 3.042-2.381 4.366-3.705 2.381 1.456 4.895 2.647 7.277 3.705-3.44.794-7.41.794-11.644 0zm26.727-13.099c-1.985 3.97-4.763 7.41-8.071 10.056-1.059.794-2.25 1.588-3.573 2.117-2.381-1.588-4.498-3.176-6.351-4.763 3.44-.794 6.087-1.985 9.262-3.97-.662-.264-1.323-.53-1.984-.926 1.852-.132 3.44-.53 4.895-1.058 3.176-1.059 5.69-2.78 7.277-5.029-.397 1.191-.926 2.382-1.455 3.573zm2.911-9.13c-.132.397-.132.927-.265 1.323v.265c-.264.662-.53 1.456-.926 2.25-1.323 2.778-4.102 4.895-7.674 6.086-1.853.662-3.705 1.058-5.822 1.19-1.19-.66-2.514-1.455-3.705-2.116l.794-1.985c-.132-.132-.397-.132-.53-.265-.264.662-.529 1.324-.925 1.853-4.367-2.647-8.601-5.954-12.703-9.395v4.499c2.25 1.985 4.499 3.837 6.616 5.69-.265.132-.662.396-1.059.529-2.514-.662-5.028-1.455-7.542-2.514h-1.587c2.646 1.19 5.424 2.25 8.071 2.91-2.382 1.06-5.955 2.118-6.748 2.25 2.646 2.117 5.292 3.97 8.071 5.69-1.323 1.323-3.043 2.646-4.763 3.837-3.705-.794-7.675-2.117-11.512-4.102-3.704-1.852-7.145-4.234-9.923-6.748-.133-1.323-.133-2.646 0-3.837h-.662c-.133 1.059-.133 2.117-.133 3.176-1.058-1.059-1.984-2.117-2.91-3.176h-.927c1.059 1.455 2.515 2.779 3.97 4.102v.264c.132 1.72.265 3.838 1.058 6.219C5.442 53.455 2.002 46.84.944 39.827c.793 1.985 1.852 4.102 3.307 6.086v-.132h.794C2.4 42.076.811 38.371.68 34.799c.132-4.499 1.19-8.997 3.308-13.231.66-1.191 1.322-2.382 1.984-3.44-.662 1.984-.662 4.233-.265 6.483h.662c-.53-2.779-.264-5.425.926-7.675.397-.794 1.191-1.852 1.72-2.513 1.059-1.059 2.117-1.853 3.308-2.647 2.382 4.234 4.896 8.6 7.145 11.512-2.117.132-3.44.132-5.557-.133.265.53.53 1.059.794 1.456l.264.661c.662 1.191 1.324 2.25 1.985 3.308-1.455 1.985-2.646 3.97-3.704 6.087v1.588c1.058-2.515 2.513-4.896 4.101-7.013l.133.132v-4.63h8.07c-.793-.663-1.455-1.324-2.116-1.986 3.175-2.778 7.012-5.16 11.114-6.88 1.191 1.588 2.911 3.043 5.028 4.102 2.25 1.058 4.499 1.72 6.484 1.588.264 1.058.53 2.117.662 3.175h.66c-.132-1.058-.264-2.117-.528-3.175.529 0 1.19-.133 1.72-.265 1.19-.53 2.25-1.191 2.778-2.25 0-.264.133-.396.265-.661 2.25 1.985 4.234 4.102 5.954 6.351h.794c-1.853-2.514-4.102-5.028-6.616-7.145 0-1.72-.794-3.573-2.381-5.425 1.058 0 2.117 0 2.91.133 3.838 3.307 6.749 7.541 8.601 12.437.397 1.588.397 3.176.132 4.499-.397-.794-.926-1.72-1.455-2.647v.265h-.662c.794 1.191 1.324 2.25 1.853 3.44-.133.397-.265.794-.53 1.191-.529 1.058-1.323 1.985-2.381 2.779v.926c1.323-.926 2.382-2.117 3.043-3.44.132-.133.132-.397.265-.53 1.19 3.044 1.587 6.087 1.323 9.13zM61.411 30.3c.265-.794.397-1.587.397-2.381.662 2.249.926 4.498 1.059 6.748-.397-1.456-.794-2.911-1.456-4.367z" transform="translate(65 60)"/>
            <path d="M12.587 45.517V27.125c0-.794.926-.927 1.852-.927v-.926H4.78v.926c.926 0 1.72.133 1.72.927v18.392c0 .661-.661.793-1.587.793v.794h9.394v-.794c-1.058 0-1.72-.132-1.72-.793M35.213 31.888h.926v-6.483H18.144v6.483h.926c0-2.117.926-3.043 2.382-3.043h2.646v16.54c0 .396-.132.925-1.72.925v.794h9.527v-.794c-1.588 0-1.852-.529-1.852-.926v-16.54h2.778c1.323 0 2.382.927 2.382 3.044M58.897 25.405h-6.88v.793c.926 0 1.852.133 1.852 1.059v13.496c0 1.985-2.249 3.043-3.969 3.043-1.853 0-3.97-1.058-3.97-3.043V27.257c0-.662.53-1.059 1.323-1.059v-.793h-8.335v.793c.793 0 1.455.265 1.455 1.059v14.026c0 4.234 4.896 6.086 8.469 6.086 3.572 0 8.467-1.985 8.467-6.086V27.257c0-.794.662-1.059 1.588-1.059v-.793" transform="translate(65 60)"/>
            <path d="M30.714 30.3c.53-.132 1.059-.132 1.588-.264-.265-.265-.53-.397-.794-.662h-.794v.926M23.57 33.08l-1.853-1.854h1.852v-1.852h-2.117c-1.456 0-1.72 1.456-1.72 2.514v.53c1.19 1.587 2.514 3.175 3.837 4.63V33.08M23.172 45.649c.265-.132.397-.132.397-.265v-.264c-4.102-2.382-7.542-5.293-10.32-8.204v.926c2.646 2.911 6.086 5.558 9.923 7.807M46.989 26.86c.397 3.44.397 6.88 0 10.188l-.132.662c-.132.662-.265 1.455-.397 2.117v.926c0 .397.132.662.265.926.396-1.19.66-2.646.793-3.97 2.117.133 3.97-.132 5.69-.528v-.662c-1.72.397-3.573.662-5.557.53.396-3.309.396-6.749.132-10.189h-.794" transform="translate(65 60)"/>
        </g>
    </g>
</svg>
