<svg xmlns="http://www.w3.org/2000/svg" width="194" height="194" viewBox="0 0 194 194">
    <g fill="none" fill-rule="evenodd">
        <g>
            <g>
                <path fill="#FFF" d="M0 0H194V194H0z" transform="translate(-964 -4086) translate(964 4086)"/>
                <g fill="#373C46" fill-rule="nonzero">
                    <path d="M25.138 1.773c0-.985.76-1.773 1.746-1.773.929 0 1.717.788 1.717 1.773v5.18h3.265c.985 0 1.745.732 1.745 1.69 0 1.013-.731 1.716-1.745 1.716h-3.265v8.924c0 1.295.675 2.111 1.548 2.111.985 0 1.154-.281 1.773-.281.845 0 1.69.62 1.69 1.632 0 .845-.648 1.492-1.492 1.69-.676.14-1.324.197-2 .197-2.758 0-5.01-2.196-5.01-5.32V1.772h.028zm12.724 9.938c0-2.9 2.168-5.096 5.011-5.096.844 0 1.689.113 2.533.282.817.169 1.38.844 1.38 1.689 0 .929-.676 1.633-1.661 1.633-.197 0-.31 0-.563-.057-.535-.14-1.154-.281-1.689-.281-.845 0-1.548.704-1.548 1.576v11.43c0 .984-.789 1.773-1.717 1.773-.986 0-1.746-.789-1.746-1.774V11.711zM55.26 23.618l-5.546-14.61c-.056-.197-.14-.45-.14-.647 0-.901.816-1.746 1.773-1.746.704 0 1.351.45 1.577 1.126l4.053 11.26L60.44 7.826c.225-.704.9-1.21 1.604-1.21.901 0 1.774.76 1.774 1.773 0 .169-.028.366-.113.535L57.68 27.22c-.9 2.815-3.265 4.673-6.475 4.673-.9 0-1.717-.647-1.717-1.689 0-.9.732-1.604 1.661-1.632 1.492-.057 2.759-.676 3.237-2.196l.873-2.759zM77.723 13.54c0-2.167-1.38-3.66-3.603-3.66-2.28 0-3.603 1.324-3.603 3.66v4.251c0 2.28 1.323 3.631 3.603 3.631 2.28 0 3.603-1.323 3.603-3.631v-4.25zm3.463 3.913c0 2.083-.676 3.885-1.943 5.208-1.267 1.295-3.068 1.97-5.123 1.97s-3.829-.675-5.124-1.97c-1.266-1.295-1.942-3.125-1.942-5.208v-3.66c0-2.082.676-3.884 1.942-5.207 1.267-1.295 3.069-1.97 5.124-1.97 2.055 0 3.828.675 5.123 1.97 1.267 1.295 1.943 3.125 1.943 5.208v3.66zm17.03-15.68c0-.985.76-1.773 1.746-1.773.929 0 1.717.788 1.717 1.773v21.085c0 .985-.788 1.774-1.717 1.774-.985 0-1.745-.789-1.745-1.774V1.773zm17.735 15.117h-3.462c-2.928 0-3.097 1.605-3.097 2.196 0 .62.17 2.336 3.097 2.336 1.154 0 2.393-.168 3.462-.45V16.89zm3.463 4.786c0 .957-.62 1.773-1.492 2.083-1.661.591-3.575.9-5.461.9-2.055 0-3.66-.506-4.814-1.491-1.154-.986-1.745-2.393-1.745-4.082 0-1.69.619-2.984 1.745-3.941 1.154-.985 2.759-1.492 4.814-1.492h3.462V12.47c0-1.436-1.041-2.562-2.787-2.562-1.576 0-2.449.197-3.631.929-.282.169-.648.31-.957.31-.901 0-1.661-.676-1.661-1.549 0-.619.281-1.238.844-1.576 1.83-1.07 3.407-1.38 5.827-1.38 3.773 0 5.828 2.76 5.828 5.8v9.233h.028zm14.272-8.502c0-2.083-1.21-3.321-3.294-3.321-1.21 0-2.336.45-3.265 1.238v9.881c1.07.282 2.167.422 3.265.422 2.083 0 3.294-1.182 3.294-3.321v-4.899zm3.462 4.589c0 2.027-.675 3.716-1.886 4.954-1.21 1.267-2.9 1.915-4.87 1.915-1.83 0-3.575-.31-5.264-.901-.872-.31-1.492-1.126-1.492-2.083V1.773c0-.985.76-1.773 1.746-1.773.929 0 1.717.788 1.717 1.773v5.743c1.041-.478 2.393-.9 3.49-.9 2 0 3.463.59 4.673 1.857 1.21 1.239 1.858 3.012 1.858 4.983v4.307h.028zm7.15-1.295c-1.83-.676-3.237-2.111-3.237-4.673 0-3.012 2.45-5.152 5.827-5.152 2.28 0 3.463.338 4.589.845.676.281 1.098.9 1.098 1.605 0 .9-.704 1.632-1.605 1.632-.225 0-.563-.056-.816-.169-.845-.422-2.224-.675-3.322-.675-1.38 0-2.28.675-2.28 1.858 0 .9.676 1.435 1.38 1.689l3.293 1.098c2.224.76 3.575 2.28 3.575 4.785 0 3.012-2.393 5.377-5.996 5.377-1.999 0-3.603-.366-4.842-.957-.647-.31-1.041-.901-1.041-1.577 0-.9.731-1.717 1.689-1.717.225 0 .534.113.788.197.9.479 2.027.788 3.49.788 1.605 0 2.45-.619 2.45-1.773 0-1.267-1.014-1.69-2.253-2.111l-2.786-1.07zM12.105 9.796c-.676 0-1.323.282-1.83.76L3.18 17.791c-.479.507-.76 1.154-.76 1.858 0 .704.281 1.351.76 1.858.479.507 1.126.76 1.83.76.675 0 1.323-.282 1.83-.76l7.093-7.235c1.014-1.013 1.014-2.674 0-3.716-.478-.478-1.126-.76-1.83-.76m-7.093 14.92c-1.323 0-2.59-.535-3.547-1.492C.507 22.267 0 21 0 19.649s.535-2.646 1.464-3.603l7.122-7.207c.957-.957 2.196-1.492 3.547-1.492 1.323 0 2.59.535 3.547 1.492 1.942 1.97 1.942 5.208 0 7.179l-7.122 7.206c-.957.957-2.224 1.492-3.547 1.492m0-22.126c-.676 0-1.323.281-1.83.76-.479.507-.76 1.154-.76 1.858 0 .704.281 1.351.76 1.858l7.094 7.206c.478.507 1.126.76 1.83.76.675 0 1.323-.281 1.83-.76 1.013-1.013 1.013-2.674 0-3.716L6.811 3.35c-.478-.479-1.126-.76-1.801-.76m7.094 14.92c-1.323 0-2.59-.535-3.547-1.492L1.464 8.81C.507 7.854 0 6.587 0 5.236s.535-2.618 1.464-3.603C2.42.676 3.66.14 5.01.14c1.323 0 2.59.535 3.547 1.492l7.122 7.206c1.942 1.97 1.942 5.208 0 7.179-.986.957-2.224 1.492-3.575 1.492m80.707-1.549c0 1.717-1.38 3.097-3.04 3.097-1.69 0-3.04-1.38-3.04-3.097s1.35-3.096 3.04-3.096c1.688 0 3.04 1.38 3.04 3.096" transform="translate(-964 -4086) translate(964 4086) translate(21 81)"/>
                </g>
            </g>
        </g>
    </g>
</svg>
