<svg xmlns="http://www.w3.org/2000/svg" width="195" height="195" viewBox="0 0 195 195">
    <defs>
        <linearGradient id="tbxyg1jl7a" x1="97.776%" x2="27.195%" y1=".409%" y2="73.683%">
            <stop offset="0%" stop-color="#373C46" stop-opacity="0"/>
            <stop offset="33.752%" stop-color="#373C46"/>
            <stop offset="100%" stop-color="#373C46" stop-opacity="0"/>
        </linearGradient>
    </defs>
    <g fill="none" fill-rule="evenodd">
        <path fill="#FFF" d="M0 0H195V195H0z"/>
        <g fill-rule="nonzero">
            <path fill="#373C46" d="M62.637 19.905L66.991 19.905 66.991 15.531 51.551 0.1 47.188 0.1 47.188 4.461 52.723 9.997 47.188 15.531 47.188 19.905 51.539 19.905 57.089 14.359z" transform="translate(41 81)"/>
            <path fill="url(#tbxyg1jl7a)" d="M67.09 5.255L63.03 9.316 57.775 4.061 61.836 0" transform="translate(41 81)"/>
            <path fill="#373C46" d="M61.836 0L67.092 0 67.092 5.257 61.836 5.257zM83.772 15.932l1.918 3.973h4.142v-4.386L82.96.57l-.199-.471H77.18l-.199.466-6.947 14.951v4.386h4.066l1.904-3.973 7.769.004zm-3.834-10.35l2.502 5.942h-5.013l2.511-5.942zM38.09 15.932l1.917 3.973h4.145v-4.386L37.278.57l-.2-.47h-5.581l-.2.466-6.947 14.951v4.386h4.069l1.993-3.973 7.677.002zm-3.842-10.35l2.504 5.942h-5.008l2.504-5.942zM99.937 12.643l.054.063 5.932 7.143h3.664v-3.656l-3.668-4.232.469-.227c.778-.379 1.464-.923 2.01-1.595.844-1.033 1.275-2.335 1.275-3.866 0-1.981-.658-3.528-1.956-4.596C106.452.627 104.771.1 102.712.1h-9.617v19.805h4.924v-7.398h1.804l.114.136zm-1.918-4.597v-3.56h4.97c.96.031 1.72.819 1.72 1.778 0 .96-.76 1.748-1.72 1.78h-4.97v.002zM16.159 19.905L21.075 19.905 21.073.1 15.792.1 15.447.622 10.538 8.6 5.622.616 5.283.1 0 .1.002 19.905 4.918 19.905 4.918 9.615 8.57 15.932 12.509 15.932 16.159 9.615z" transform="translate(41 81)"/>
            <g fill="#373C46">
                <path d="M4.148 1.166L2.855 1.166 2.785 1.234 2.785 4.892 2.717 4.96 1.613 4.96 1.543 4.892 1.543 1.234 1.475 1.166.096 1.166.026 1.096.026.199.096.132 4.148.132 4.218.199 4.218 1.096zM9.369 4.96L5.857 4.96 5.787 4.892 5.787.199 5.857.132 9.369.132 9.439.199 9.439 1.096 9.369 1.166 7.099 1.166 7.029 1.234 7.029 1.924 7.099 1.993 9.238 1.993 9.306 2.063 9.306 2.96 9.238 3.028 7.099 3.028 7.029 3.098 7.029 3.857 7.099 3.925 9.369 3.925 9.439 3.995 9.439 4.892zM10.835 2.546c0-1.657 1.102-2.484 2.414-2.484 1.242 0 1.993.62 2.208 1.517l-.07.07h-1.152l-.09-.07c-.137-.275-.344-.483-.896-.483-.622 0-1.173.345-1.173 1.45 0 1.104.55 1.449 1.173 1.449.552 0 .76-.2.897-.552l.09-.07h1.152l.07.07c-.2.965-.967 1.595-2.21 1.595-1.311-.008-2.413-.836-2.413-2.492zM21.244 4.96L20.134 4.96 20.066 4.892 20.066 3.098 19.997 3.028 18.402 3.028 18.332 3.098 18.332 4.892 18.264 4.96 17.16 4.96 17.09 4.892 17.09.199 17.16.132 18.264.132 18.332.199 18.332 1.924 18.402 1.993 19.997 1.993 20.066 1.924 20.066.199 20.134.132 21.238.132 21.308.199 21.308 4.892zM23.453.132L24.625.132 24.763.199 26.42 2.821 26.489 2.821 26.489.199 26.557.132 27.661.132 27.731.199 27.731 4.892 27.661 4.96 26.489 4.96 26.35 4.892 24.695 2.271 24.625 2.271 24.625 4.892 24.558 4.96 23.453 4.96 23.383 4.892 23.383.199zM31.708.062c1.447 0 2.414.897 2.414 2.484 0 1.586-.967 2.484-2.414 2.484s-2.416-.898-2.416-2.484c0-1.587.967-2.484 2.416-2.484zm0 3.933c.758 0 1.172-.482 1.172-1.45 0-.966-.414-1.449-1.172-1.449-.757 0-1.174.483-1.174 1.45s.415 1.441 1.174 1.441v.008zM39.004 4.96L35.761 4.96 35.693 4.892 35.693.199 35.761.132 36.865.132 36.935.199 36.935 3.857 37.003 3.925 38.996 3.925 39.066 3.995 39.066 4.892zM42.525.062c1.447 0 2.414.897 2.414 2.484 0 1.586-.967 2.484-2.414 2.484s-2.416-.898-2.416-2.484c0-1.587.967-2.484 2.416-2.484zm0 3.933c.757 0 1.172-.482 1.172-1.45 0-.966-.415-1.449-1.172-1.449-.758 0-1.174.483-1.174 1.45s.414 1.441 1.174 1.441v.008zM47.475 2.546c0 1.172.552 1.449 1.242 1.449s.966-.415.966-.76l-.07-.067h-1.102l-.07-.07V2.27l.07-.07h2.345l.07.07v2.621l-.07.068h-.898l-.067-.068-.07-.277h-.068c-.318.293-.742.443-1.174.415-1.38 0-2.346-.898-2.346-2.484 0-1.587.967-2.484 2.484-2.484 1.241 0 1.993.62 2.208 1.517l-.07.07h-1.152l-.09-.07c-.137-.275-.344-.483-.896-.483-.758 0-1.242.345-1.242 1.45zM53.995 4.96L52.893 4.96 52.823 4.892 52.823.199 52.893.132 53.995.132 54.065.199 54.065 4.892zM59.673 4.96L56.152 4.96 56.084 4.892 56.084.199 56.152.132 59.673.132 59.74.199 59.74 1.096 59.673 1.166 57.394 1.166 57.326 1.234 57.326 1.924 57.394 1.993 59.533 1.993 59.603 2.063 59.603 2.96 59.533 3.028 57.394 3.028 57.326 3.098 57.326 3.857 57.394 3.925 59.673 3.925 59.74 3.995 59.74 4.892zM63.58 3.098l-.484-.07c-1.448-.2-1.725-.897-1.725-1.595 0-.76.622-1.38 1.994-1.38 1.242 0 1.993.483 1.993 1.45l-.07.068h-1.104l-.068-.068c0-.277-.2-.484-.76-.484s-.827.14-.827.414c0 .275.275.345.758.415l.482.068c1.45.2 1.727.829 1.727 1.595 0 .765-.553 1.517-2.072 1.517-1.38 0-2.137-.553-2.137-1.595l.068-.07h1.105l.07.07c0 .414.274.62.894.62.553 0 .897-.138.897-.483s-.259-.402-.741-.472z" transform="translate(41 81) translate(24.32 25.716)"/>
            </g>
        </g>
    </g>
</svg>
