<svg xmlns="http://www.w3.org/2000/svg" width="194" height="194" viewBox="0 0 194 194">
    <g fill="none" fill-rule="evenodd">
        <g>
            <g>
                <path fill="#FFF" d="M0 0H194V194H0z" transform="translate(-279 -4394) translate(279 4394)"/>
                <g fill="#373C46" fill-rule="nonzero">
                    <path d="M98.43 8.043c-1.652 0-3.238.677-4.39 1.866V3.617c0-.198-.167-.364-.367-.364h-2.237c-.2 0-.367.166-.367.364v17.01c0 .198.166.363.367.363h2.237c.2 0 .367-.165.367-.363v-1.172c1.152 1.189 2.721 1.866 4.39 1.866 3.49 0 6.311-2.973 6.311-6.64 0-3.666-2.821-6.638-6.31-6.638zm-.517 10.619c-2.12 0-3.84-1.75-3.856-3.93v-.1c.033-2.18 1.736-3.93 3.856-3.93 2.137 0 3.857 1.783 3.857 3.98 0 2.196-1.736 3.98-3.857 3.98zM112.972 8.043c-3.773 0-6.828 2.972-6.828 6.639 0 3.666 3.055 6.639 6.828 6.639s6.828-2.973 6.828-6.64c0-3.666-3.055-6.638-6.828-6.638zm-.017 10.619c-2.137 0-3.856-1.784-3.856-3.98 0-2.197 1.736-3.98 3.856-3.98s3.856 1.783 3.856 3.98c0 2.196-1.736 3.98-3.856 3.98zM71.219 8.373h-2.237c-.2 0-.368.165-.368.363V9.91c-1.151-1.19-2.72-1.866-4.39-1.866-3.49 0-6.31 2.972-6.31 6.639 0 3.666 2.82 6.639 6.31 6.639 1.653 0 3.239-.677 4.39-1.866v1.172c0 .198.167.363.368.363h2.237c.2 0 .367-.165.367-.363V8.737c0-.199-.167-.364-.367-.364zM64.74 18.662c-2.137 0-3.856-1.784-3.856-3.98 0-2.197 1.736-3.98 3.856-3.98s3.84 1.75 3.857 3.93v.1c-.017 2.18-1.736 3.93-3.857 3.93zM82.387 8.043c-1.652 0-3.238.677-4.39 1.866V8.736c0-.198-.167-.363-.368-.363h-2.237c-.2 0-.367.165-.367.363v17.01c0 .199.167.364.367.364h2.237c.2 0 .368-.165.368-.363v-6.292c1.152 1.189 2.721 1.866 4.39 1.866 3.49 0 6.31-2.973 6.31-6.64 0-3.666-2.82-6.638-6.31-6.638zm-.517 10.619c-2.12 0-3.84-1.75-3.857-3.93v-.1c.034-2.18 1.737-3.93 3.857-3.93 2.137 0 3.856 1.783 3.856 3.98 0 2.196-1.72 3.98-3.856 3.98zM51.219 8.043c-1.67.016-3.189.974-3.907 2.477-.818-1.536-2.454-2.494-4.207-2.477-1.369 0-2.654.66-3.456 1.75V8.736c0-.198-.166-.363-.367-.363h-2.237c-.2 0-.367.165-.367.363v11.891c0 .198.167.363.367.363h2.237c.2 0 .367-.165.367-.363V13.51c.084-1.585 1.202-2.857 2.571-2.857 1.42 0 2.605 1.173 2.605 2.709v7.266c0 .198.167.363.367.363h2.254c.2 0 .367-.165.367-.363l-.017-7.399c.2-1.453 1.252-2.576 2.538-2.576 1.419 0 2.604 1.173 2.604 2.709v7.266c0 .198.167.363.368.363h2.253c.2 0 .368-.165.368-.363l-.017-8.175c0-2.444-2.104-4.41-4.691-4.41zM131.837 20.478l-3.874-5.83 3.84-5.78c.1-.148.05-.363-.1-.462-.05-.033-.117-.05-.184-.05h-2.587c-.2 0-.384.1-.484.265l-2.254 3.749-2.254-3.733c-.1-.165-.284-.264-.484-.264h-2.588c-.183 0-.334.149-.334.33 0 .066.017.132.05.182l3.84 5.78-3.873 5.83c-.1.149-.05.363.1.462.05.033.117.05.184.05h2.588c.2 0 .383-.1.484-.264l2.303-3.799 2.304 3.799c.1.165.284.264.484.264h2.555c.183 0 .334-.149.334-.33 0-.066-.017-.132-.05-.199zM14.841 0C6.644 0 0 6.573 0 14.682s6.644 14.682 14.841 14.682 14.842-6.573 14.842-14.682C29.683 6.572 23.038 0 14.84 0zm7.046 18.282c-5.076 5.02-14.14 3.419-14.14 3.419S6.11 12.75 11.201 7.712c2.821-2.79 7.496-2.675 10.45.232 2.956 2.906 3.056 7.547.235 10.338z" transform="translate(-279 -4394) translate(279 4394) translate(31 82)"/>
                    <path d="M16.544 8.604L15.092 11.56 12.104 12.997 15.092 14.434 16.544 17.39 17.997 14.434 20.985 12.997 17.997 11.56z" transform="translate(-279 -4394) translate(279 4394) translate(31 82)"/>
                </g>
            </g>
        </g>
    </g>
</svg>
