<svg xmlns="http://www.w3.org/2000/svg" xmlns:xlink="http://www.w3.org/1999/xlink" width="194" height="194" viewBox="0 0 194 194">
    <defs>
        <path id="bzs09vyofa" d="M0 0.752L43.13 0.752 43.13 18.987 0 18.987z"/>
    </defs>
    <g fill="none" fill-rule="evenodd">
        <path fill="#FFF" d="M0 0H194V194H0z"/>
        <g transform="translate(35 85)">
            <mask id="a2hup3yg7b" fill="#fff">
                <use xlink:href="#bzs09vyofa"/>
            </mask>
            <path fill="#373C46" d="M0 6.837L24.353 6.837 24.353.752 0 .752zM0 18.987L24.353 18.987 24.353 12.921 0 12.921zM41.473 5.11c-.512-2.55-1.047-3.417-3.922-3.417-1.219 0-2.218.346-2.898.94-.586.494-.855 1.115-.855 1.881 0 .695.368 1.54.831 1.984.632.62 1.557 1.164 3.092 1.956 1.901.99 3.338 1.562 4.385 2.773.512.597 1.024 1.71 1.024 2.925 0 1.288-.44 2.451-1.366 3.293-1.022.94-2.63 1.561-4.798 1.561-1.413 0-3.142-.322-4.554-.842-.22-1.536-.488-2.577-.805-3.665l.853-.224c.78 3.046 2.143 3.79 4.725 3.79 1.12 0 2.167-.321 2.924-.917.754-.595 1.244-1.461 1.244-2.577 0-.99-.27-1.585-.781-2.204-.78-.94-2.096-1.535-3.509-2.253-1.485-.768-3.53-1.884-4.237-2.899-.439-.644-.731-1.46-.731-2.377 0-1.064.437-2.13 1.463-2.923.876-.695 2.214-1.163 4.115-1.163 1.559 0 2.824.198 4.069.693.144 1.014.364 2.353.585 3.468l-.854.198" mask="url(#a2hup3yg7b)"/>
            <path fill="#373C46" d="M45.433 12.814c0 2.22.579 3.685 1.519 4.586.969.856 2.127 1.221 3.575 1.221 1.52 0 2.704-.391 3.67-1.268.919-.904 1.474-2.344 1.474-4.539 0-1.927-.53-3.416-1.473-4.368-.942-.903-2.054-1.343-3.671-1.343-1.546 0-2.656.44-3.598 1.32-.966.95-1.496 2.464-1.496 4.391m1.74.025c0-1.88.336-3.099.988-3.954.578-.681 1.378-1.023 2.342-1.023 1.015 0 1.834.342 2.391 1.023.652.855.99 2.074.99 3.954 0 1.975-.412 3.22-1.015 4-.555.637-1.328 1.026-2.342 1.026s-1.788-.39-2.341-1.025c-.604-.781-1.014-2.026-1.014-4M58.855 8.2h-1.878v-.796h1.878V5.832c0-1.521.38-2.67 1.218-3.518.608-.572 1.47-.97 2.588-.97 1.04 0 1.649.273 2.157.597.736.474 1.091 1.098 1.091 1.545 0 .5-.254.775-.71.775-.61 0-.837-.525-1.117-1.073-.28-.549-.61-1.07-1.396-1.07-.507 0-.913.172-1.27.548-.506.597-.81 1.495-.81 3.267v1.47h3.222v.798h-3.222v8.152c0 1.498.102 1.646 2.006 1.646v.622H56.95V18c1.776 0 1.904-.174 1.904-1.696V8.2M65.27 7.928c1.487-.15 2.508-.753 2.81-3.384h.59v3.16h2.502v.801H68.67v8.098c0 1.178.33 1.78 1.155 1.78.546 0 .993-.2 1.466-.576l.377.55c-.613.577-1.346.904-2.314.904-1.203 0-2.311-.602-2.311-2.558V8.505h-1.774v-.577M76.684 10.02h2.99c1.975 0 3.302.342 4.147 1.001.865.657 1.326 1.605 1.326 2.678 0 1.268-.364 2.171-.942 2.78-.82.854-1.928 1.22-3.64 1.22h-2.99c-.747 0-.891-.173-.891-1.196v-6.482zM74.9 16.066c0 1.728-.148 1.85-1.953 1.85v.706h7.858c2.507 0 3.93-.583 4.871-1.51.963-.925 1.349-2.144 1.349-3.362 0-1.34-.674-2.316-1.544-2.997-1.035-.806-2.433-1.219-4-1.268v-.05c1.519-.219 2.53-.706 3.254-1.363.892-.803 1.204-1.878 1.204-2.804 0-1.243-.625-2.216-1.541-2.85-1.303-.878-2.75-1.073-4.967-1.073h-6.484v.707c1.805 0 1.953.12 1.953 1.877v12.137zm1.783-12.942c0-.657.096-.852.722-.852h2.29c1.69 0 2.772.389 3.448.95.531.439.94 1.39.94 2.219 0 1.168-.409 2.022-1.108 2.607-.87.73-2.219 1.048-3.881 1.048h-2.411V3.123zM97.038 10.496c0-1.073-.17-1.733-.791-2.44-.599-.682-1.437-.953-2.873-.953-1.269 0-2.107.319-2.73.685-.765.464-1.243 1.122-1.243 1.707 0 .368.212.708.668.708.504 0 .72-.243.837-.585.216-.538.434-.953.746-1.195.43-.344.908-.561 1.626-.561.79 0 1.366.243 1.722.731.312.415.386 1.147.386 1.707v1.05l-1.413.342c-1.533.342-2.73.829-3.544 1.392-1.052.706-1.483 1.585-1.483 2.707 0 .927.382 1.636.958 2.099.621.513 1.436.731 2.201.731 1.58 0 2.539-.56 3.35-1.341h.072c.217.803.72 1.244 1.558 1.244.622 0 1.052-.147 1.459-.342l-.144-.56c-.19.12-.408.169-.644.169-.479 0-.718-.489-.718-1.584v-5.711m-1.652 5.93c-.6.608-1.413 1.268-2.587 1.268-.718 0-1.22-.243-1.58-.587-.359-.364-.526-.9-.526-1.538 0-1.122.67-1.755 1.603-2.267.885-.56 2.06-.904 3.09-1.194v4.318M109.528 16.4c0 1.397.096 1.598 1.174 1.598v.623h-4.05v-.623c1.15 0 1.222-.149 1.222-1.65v-5.57c0-.974-.12-1.774-.574-2.274-.313-.324-.744-.5-1.39-.5-1.007 0-2.085.95-3.044 2.324v6.02c0 1.501.024 1.65 1.15 1.65v.623h-4.192v-.623c1.292 0 1.388-.149 1.388-1.65v-6.07c0-1.45-.12-1.623-1.388-1.6v-.549c1.053-.175 1.868-.425 2.658-1.026l.24.151.095 1.924h.049c.96-1.274 2.18-2.075 3.498-2.075 1.032 0 1.773.278 2.3.801.553.55.864 1.45.864 2.773v5.722M115.246 12.487l3.566-3.463c.673-.623.848-.998-.35-.998v-.622h3.691v.622c-.723.025-1.123.197-1.695.749l-2.619 2.491 3.815 5.787c.55.872 1.098.971 1.846.946v.622h-2.844l-4.061-6.282-1.398 1.373v2.641c0 1.446.05 1.646 1.422 1.646v.622h-4.637V18c1.443 0 1.493-.2 1.493-1.646V4.533c0-1.445-.148-1.619-1.493-1.619v-.548c1.22-.175 2.068-.449 2.99-1.022l.225.149v10.994h.05"/>
        </g>
    </g>
</svg>
