<svg xmlns="http://www.w3.org/2000/svg" xmlns:xlink="http://www.w3.org/1999/xlink" width="194" height="194" viewBox="0 0 194 194">
    <defs>
        <path id="hf9rwtq42a" d="M0 0L22.273 0 22.273 24.871 0 24.871z"/>
    </defs>
    <g fill="none" fill-rule="evenodd">
        <g>
            <g>
                <path fill="#FFF" d="M0 0H194V194H0z" transform="translate(-736 -3891) translate(736 3891)"/>
                <g>
                    <path fill="#373C46" d="M0 27.48c.512-.809 1.31-.744 2.088-.641 1.22.162 2.367.597 3.513 1.022 1.505.56 2.971 1.216 4.493 1.73.399.136.805.239 1.221.299.202.029.423.026.526-.177.1-.198-.06-.349-.19-.48-.498-.501-1.135-.78-1.758-1.079-1.414-.677-2.88-1.24-4.272-1.967-.68-.355-1.35-.725-1.917-1.252-.209-.195-.4-.405-.519-.669-.352-.775.13-1.563.984-1.615.695-.043 1.346.145 1.986.378 1.98.723 3.8 1.78 5.665 2.74.912.469 1.829.925 2.788 1.29.38.146.769.27 1.185.27.612.004.976-.453.83-1.052-.096-.393-.304-.73-.548-1.041-.51-.652-1.048-1.281-1.54-1.945-.647-.87-1.093-1.822-.989-2.95.051-.55.12-1.124.655-1.414.537-.291 1.006.048 1.43.343 1.237.86 2.221 1.992 3.254 3.07 1.187 1.237 2.342 2.505 3.568 3.706 1.359 1.33 2.543 2.795 3.26 4.584 1.23 3.066.415 6.085-2.202 8.101-1.537 1.184-3.296 1.81-5.215 2.028-1.531.174-3.029.023-4.502-.418-.636-.19-1.277-.047-1.91.01-2.065.183-4.12.478-6.202.403-.508-.018-1.007-.086-1.498-.22-.24-.066-.466-.164-.671-.305-.67-.462-.64-1.29.06-1.696.591-.342 1.25-.456 1.911-.546 1.482-.2 2.978-.195 4.467-.3.505-.036 1.009-.084 1.497-.227.192-.056.41-.126.428-.354.018-.22-.167-.348-.345-.44-.693-.36-1.457-.456-2.212-.577-1.839-.294-3.702-.432-5.527-.818-.919-.195-1.833-.413-2.629-.953-.24-.163-.44-.36-.57-.62-.3-.603-.086-1.21.54-1.46.676-.268 1.385-.21 2.086-.141 1.947.19 3.83.718 5.741 1.1.472.094.942.21 1.428.195.139-.004.337.05.378-.14.038-.178-.157-.23-.28-.298-.323-.183-.673-.306-1.023-.427-2.112-.73-4.283-1.285-6.351-2.14-.502-.207-.996-.436-1.478-.685C.98 29.365.389 28.944 0 28.294v-.814zM27.647 0c.472.251.704.676.839 1.167.345 1.257.309 2.543.255 3.825-.043 1.01-.125 2.018-.19 3.027-.057.899-.11 1.798-.072 2.7.01.257.044.516.1.768.038.174.092.386.321.403.2.014.301-.153.381-.307.256-.49.344-1.028.424-1.564.27-1.805.348-3.634.673-5.432.138-.766.307-1.526.705-2.21.364-.627.914-.875 1.477-.665.394.147.607.458.726.836.22.705.252 1.43.201 2.161-.154 2.245-.63 4.443-.966 6.661-.138.914-.274 1.83-.265 2.759.002.262.041.518.109.767.138.507.516.712 1.023.57.42-.118.7-.42.933-.754.474-.678.916-1.377 1.381-2.06.441-.65.958-1.227 1.636-1.64.562-.342 1.175-.522 1.833-.495.664.028.966.362.942 1.023-.025.694-.314 1.315-.591 1.934-.672 1.501-1.522 2.908-2.296 4.355-.785 1.47-1.537 2.958-2.36 4.406-.782 1.373-1.783 2.576-3.082 3.508-2.35 1.684-5.178 1.763-7.639.15-2.572-1.685-3.996-4.137-4.59-7.109-.11-.557-.158-1.122-.16-1.692 0-.491-.206-.937-.389-1.38-.663-1.61-1.437-3.171-2.038-4.807-.31-.847-.59-1.702-.713-2.6-.054-.396-.052-.79.084-1.17.244-.681.903-.9 1.488-.48.605.436.911 1.096 1.224 1.738.725 1.49 1.2 3.082 1.857 4.6.133.306.27.61.468.88.122.166.242.38.496.31.239-.064.294-.293.323-.5.06-.429.043-.86-.01-1.29-.229-1.888-.694-3.736-.957-5.617-.15-1.063-.294-2.128-.116-3.204.059-.357.155-.702.371-.997.521-.711 1.358-.677 1.83.075.387.618.56 1.316.702 2.018.282 1.405.4 2.832.534 4.256.075.798.14 1.597.304 2.384.03.144.07.287.12.426.037.102.075.23.215.22.14-.01.166-.144.185-.247.065-.352.113-.705.112-1.065 0-1.95-.018-3.901.014-5.851.019-1.122.107-2.244.422-3.332.172-.59.397-1.147.985-1.459h.741z" transform="translate(-736 -3891) translate(736 3891) translate(12 65)"/>
                    <g transform="translate(-736 -3891) translate(736 3891) translate(12 65) translate(13.998 38.498)">
                        <mask id="q9fi6fqe0b" fill="#fff">
                            <use xlink:href="#hf9rwtq42a"/>
                        </mask>
                        <path fill="#373C46" d="M22.267 7.793c.018 2.199-.475 4.105-1.551 5.807-.593.937-.91 1.925-1.134 2.98-.38 1.785-.718 3.581-1.322 5.31-.188.538-.4 1.065-.707 1.546-.106.166-.22.33-.355.472-.328.345-.717.532-1.2.36-.465-.165-.6-.568-.643-.997-.055-.567-.003-1.132.102-1.694.276-1.483.741-2.917 1.094-4.38.104-.43.178-.87.251-1.307.022-.13.015-.273-.015-.403-.08-.35-.31-.437-.602-.225-.326.237-.541.573-.745.912-.536.89-.966 1.833-1.412 2.77-.705 1.48-1.37 2.983-2.303 4.345-.244.357-.504.701-.824.996-.23.21-.482.388-.776.495-.803.295-1.45-.155-1.459-1.005-.008-.779.303-1.468.614-2.153.715-1.576 1.65-3.033 2.508-4.532.288-.504.59-1 .785-1.55.057-.163.21-.376.006-.502-.182-.11-.31.102-.421.219-.744.782-1.327 1.687-1.949 2.561-.987 1.388-1.963 2.786-3.093 4.065-.564.639-1.156 1.253-1.938 1.64-.443.218-.893.322-1.325-.011-.44-.34-.485-.806-.367-1.305.2-.848.668-1.562 1.152-2.264 1.066-1.547 2.328-2.94 3.505-4.4.465-.576.933-1.153 1.29-1.805.136-.247.373-.567.096-.805-.273-.234-.563.039-.792.205-.723.526-1.308 1.2-1.91 1.853-1.228 1.332-2.368 2.753-3.82 3.863-.307.234-.639.42-1.004.548-.442.155-.852.13-1.212-.192-.378-.338-.416-.771-.303-1.226.107-.436.334-.821.582-1.192.657-.979 1.472-1.825 2.292-2.662 1.097-1.12 2.236-2.197 3.34-3.31.486-.49.956-.999 1.357-1.565.12-.17.24-.346.334-.532.164-.32.335-.656.072-1.005-.274-.364-.658-.449-1.09-.39-.62.082-1.185.333-1.76.557-.828.324-1.653.654-2.544.774-.935.126-1.794-.067-2.567-.608-.614-.429-.667-.988-.16-1.535.54-.58 1.218-.963 1.906-1.328 2.204-1.17 4.512-2.124 6.723-3.28 1.184-.62 2.39-1.184 3.687-1.528 1.514-.401 3.04-.553 4.571-.115 2.318.662 3.736 2.252 4.53 4.465.15.418.266.847.345 1.285.116.645.19 1.294.16 1.778" mask="url(#q9fi6fqe0b)"/>
                    </g>
                    <path fill="#373C46" d="M36.832 41.003c-.016-1.437.167-2.728.669-3.956.96-2.348 2.716-3.731 5.218-4.083 2.904-.41 5.462.5 7.75 2.253.748.573 1.386 1.26 1.972 1.999.473.594 1.163.908 1.798 1.283 1.574.928 3.185 1.796 4.66 2.884.507.374.98.787 1.396 1.265.19.219.333.462.43.73.276.761-.258 1.424-1.06 1.319-.893-.118-1.662-.556-2.41-1.008-1.173-.708-2.314-1.469-3.473-2.2-.355-.224-.727-.424-1.13-.552-.174-.056-.374-.113-.52.049-.16.174-.085.375.007.554.41.793 1.05 1.395 1.677 2.007 1.51 1.473 3.13 2.838 4.452 4.495.447.561.86 1.15.978 1.886.075.463-.053.864-.416 1.16-.336.275-.72.214-1.09.067-.666-.266-1.202-.726-1.718-1.206-1.277-1.187-2.399-2.52-3.56-3.815-.421-.469-.84-.941-1.354-1.312-.097-.07-.215-.18-.332-.09-.133.102-.06.251-.003.373.4.844.99 1.563 1.538 2.307 1.135 1.541 2.323 3.044 3.285 4.704.366.63.7 1.277.89 1.989.068.254.092.51.072.77-.056.709-.648 1.123-1.337.935-.366-.1-.67-.309-.947-.562-.707-.644-1.315-1.374-1.84-2.17-1.04-1.576-2.063-3.164-3.098-4.744-.278-.424-.59-.823-.974-1.16-.15-.13-.32-.279-.528-.173-.235.12-.186.365-.144.564.185.873.658 1.619 1.083 2.383.862 1.553 1.856 3.035 2.516 4.696.17.426.301.864.354 1.32.058.505-.038.97-.502 1.267-.479.307-.95.211-1.38-.11-.833-.62-1.355-1.493-1.871-2.365-.906-1.532-1.635-3.156-2.448-4.736-.469-.911-.932-1.825-1.522-2.668-.163-.234-.344-.451-.552-.646-.56-.527-1.23-.37-1.48.361-.177.523-.161 1.066-.124 1.612.074 1.081.202 2.163-.033 3.243-.184.852-.578 1.573-1.273 2.11-.695.538-1.259.409-1.643-.381-.417-.855-.575-1.784-.714-2.711-.415-2.757-.7-5.53-1.158-8.282-.096-.581-.143-1.176-.11-1.655M36.075 24.117c.008-2.014.853-3.848 2.174-5.483 1.335-1.652 3.022-2.819 5.033-3.519.575-.2.989-.646 1.43-1.035 1.314-1.16 2.583-2.371 3.977-3.438.667-.51 1.352-.996 2.144-1.305.267-.105.541-.167.83-.163.81.01 1.235.655.89 1.4-.312.67-.824 1.194-1.364 1.688-1.165 1.069-2.453 1.99-3.643 3.03-.28.244-.547.5-.754.812-.095.143-.208.302-.102.477.115.19.322.228.524.199.405-.059.789-.2 1.163-.363 1.306-.567 2.514-1.32 3.772-1.977 1.334-.696 2.646-1.446 4.135-1.79.341-.079.686-.081 1.031-.063.486.026.862.251 1.045.705.169.42.02.8-.269 1.126-.482.547-1.098.914-1.72 1.269-1.335.76-2.761 1.322-4.158 1.947-.687.308-1.39.584-2.024 1-.102.067-.21.137-.287.23-.114.139-.073.257.108.297.174.039.344-.006.512-.048 1.634-.401 3.197-1.028 4.8-1.53 1.367-.428 2.735-.857 4.164-1.034.539-.067 1.086-.098 1.619.052.892.251 1.125 1.14.492 1.82-.487.523-1.122.8-1.76 1.066-1.626.675-3.345 1.042-5.04 1.488-.992.26-1.99.494-2.945.878-.22.088-.432.19-.611.343-.258.22-.215.47.103.593.37.142.754.106 1.135.058 1.791-.227 3.529-.732 5.307-1.03.842-.141 1.687-.234 2.543-.193.414.02.81.103 1.145.367.506.398.569 1.09.143 1.572-.31.354-.722.555-1.149.725-1.458.582-3.002.798-4.538 1.044-1.67.268-3.353.452-5.002.837-.553.13-1.108.268-1.596.576-.497.313-.56.888-.155 1.322.224.24.504.39.812.5.712.25 1.449.411 2.174.613 1.008.281 1.977.646 2.7 1.456.377.422.665.897.73 1.469.065.565-.149.86-.702.997-.621.154-1.253.113-1.879.047-2.14-.225-4.231-.736-6.348-1.1-1.119-.191-2.245-.348-3.357-.576-1.774-.364-3.436-1.005-4.85-2.18-1.576-1.309-2.39-2.98-2.382-5.176M109.625 18.84c-.632.074-1.15.376-1.488.974-.146.258-.136.481.039.718.361.49.79.913 1.265 1.291.14.11.25.117.392.004.506-.402.961-.85 1.327-1.384.085-.125.136-.25.08-.414-.193-.583-.971-1.176-1.615-1.188m-14.343 3.8c.173 0 .346.004.518-.001.726-.023 1.453.054 2.177-.066.84-.14 1.415-.764 1.402-1.543-.011-.698-.446-1.26-1.228-1.542-2.245-.81-4.61.68-5.365 2.872-.096.276.09.28.278.28h2.218m-2.554-3.77c.197-.173.381-.35.58-.509 1.057-.839 2.267-1.317 3.607-1.383 1.611-.079 3.788.665 4.654 2.514.415.887.47 1.801.183 2.738-.124.405-.117.409.308.41h4.796c-.01-.193-.138-.28-.233-.383-.38-.407-.726-.839-1.03-1.306-.166-.252-.221-.492-.15-.798.306-1.312.848-2.47 2.128-3.086 2.683-1.294 5.46.011 6.22 2.877.121.46.063.827-.222 1.203-.373.492-.802.935-1.188 1.413.1.126.22.077.32.077 1.372.004 2.743.004 4.114 0 .159 0 .32-.018.477-.046.583-.104.814-.358.83-.948.016-.53.006-1.061.006-1.592v-5.887c0-.484.003-.485.5-.486.531-.002 1.062.006 1.593-.003.238-.004.328.09.327.327-.006 2.69.03 5.382-.019 8.071-.031 1.778-1.231 2.929-3.041 2.966-1.988.04-3.977.019-5.965.004-.545-.004-1.078-.138-1.579-.362-.195-.087-.363-.093-.563-.01-.657.276-1.346.383-2.06.383-6.767-.004-13.535-.003-20.303 0-.41 0-.817-.025-1.214-.116-1.28-.291-2.113-1.325-2.216-2.722-.13-1.75-.033-3.502-.057-5.254-.014-.937.012-1.876-.01-2.813-.008-.38.124-.499.494-.479.505.028 1.013.027 1.518 0 .369-.019.462.13.46.474-.01 2.345.011 4.69-.012 7.034-.011 1.093.142 1.48 1.468 1.463.84-.01 1.68-.016 2.52.006.338.008.444-.093.442-.438-.013-2.665-.007-5.331-.007-7.997 0-.533.001-.534.523-.535.506 0 1.013.013 1.519-.004.293-.01.392.098.38.387-.058 1.478-.104 2.956-.15 4.435-.003.116-.045.243.052.374M126.845 50.465c-1.544.039-2.998-.29-4.291-1.151-1.457-.97-2.221-2.374-2.427-4.095-.16-1.346-.019-2.657.494-3.917.634-1.556 1.738-2.656 3.3-3.262 2.199-.852 4.409-.836 6.606.02.58.226.564.237.402.828-.097.356-.157.722-.228 1.084-.024.12-.008.257-.166.296-.142.035-.231-.055-.317-.147-.118-.126-.239-.25-.355-.377-1.417-1.557-4.021-1.374-5.382.238-.681.806-1.053 1.746-1.221 2.775-.19 1.159-.16 2.308.176 3.44.897 3.015 3.939 3.915 6.498 2.349.199-.122.377-.277.56-.424.109-.087.204-.183.357-.083.142.093.092.216.055.33-.125.388-.246.775-.296 1.182-.028.225-.229.275-.397.343-1.08.44-2.209.595-3.368.571M74.146 43.939c0 1.688-.03 3.377.063 5.064.015.287.115.39.38.42 1.03.118 2.06.156 3.096.033 2.245-.266 3.756-1.632 4.212-3.841.241-1.17.241-2.349.047-3.523-.309-1.863-1.421-3.05-3.149-3.39-1.446-.285-2.895-.172-4.344-.019-.175.019-.227.106-.234.266-.019.442-.064.885-.067 1.327-.01 1.221-.004 2.442-.004 3.663m1.192 6.298h-2.445c-.494.002-.52 0-.489-.49.171-2.734.148-5.473.13-8.21-.008-1.133-.079-2.266-.14-3.398-.018-.351.088-.494.455-.462.873.076 1.749.092 2.625.076.975-.017 1.947-.116 2.923-.074 1.034.043 2.038.223 2.96.713 1.454.775 2.194 2.05 2.466 3.627.209 1.212.246 2.434-.074 3.63-.664 2.473-2.305 3.918-4.793 4.44-1.199.252-2.411.118-3.618.148M136.393 28.022c-.808-.05-1.825.106-2.829-.08-2.882-.534-4.081-3.388-2.935-5.892.188-.412.215-.388.576-.123.296.218.34.405.205.764-.806 2.153.661 4.284 2.965 4.32 1.506.024 3.013.013 4.52 0 .6-.005 1.17-.166 1.698-.459 1.319-.732 1.59-2.47.565-3.578-.535-.58-1.196-.99-1.862-1.392-.488-.295-.963-.602-1.308-1.072-.387-.527-.522-1.102-.237-1.702.31-.653.866-1.032 1.587-1.046 1.543-.029 3.087-.003 4.63-.014.313-.003.368.146.367.41-.007 1.245-.005 2.492-.003 3.738.003 1.442.722 2.153 2.173 2.154.728 0 1.457.001 2.185 0 1.415-.001 2.129-.707 2.13-2.109.002-1.431-.002-2.863.004-4.294 0-.16-.077-.395.14-.451.27-.07.565-.079.837.02.098.035.09.168.089.266-.031 1.664.08 3.33-.063 4.993-.104 1.207-.748 2.425-2.404 2.54-1.254.086-2.522.129-3.772-.023-1.427-.172-2.224-1.138-2.328-2.58-.08-1.097-.043-2.194-.045-3.291-.001-.341-.109-.446-.448-.44-1.037.019-2.075.005-3.112.008-.55.001-.981.232-1.075.563-.102.356.097.771.564 1.075.744.485 1.525.912 2.205 1.493.862.734 1.387 1.646 1.41 2.783.022 1.08-.42 1.967-1.322 2.59-.77.532-1.634.807-2.57.826-.778.015-1.557.003-2.537.003M136.07 46.925c0-.383-.004-.692.001-1 .003-.184-.049-.251-.24-.17-.296.124-.603.22-.897.349-1.034.45-1.216 1.107-1.101 2.13.059.52.384.856.787.918.485.074.975-.163 1.213-.603.075-.14.125-.294.17-.447.125-.41.04-.834.067-1.177zm2.481-.748c0 .777-.004 1.554.002 2.331.005.678.134.834.78.971.128.027.243.063.251.22.008.135.039.29-.108.367-.69.362-1.8.62-2.555.176-.285-.168-.5-.405-.638-.702-.098-.212-.173-.215-.325-.038-.91 1.054-2.069 1.165-3.31.799-.911-.27-1.432-1.092-1.484-2.043-.083-1.5.789-2.173 1.76-2.563.607-.245 1.258-.348 1.885-.529.19-.054.382-.102.565-.173.639-.248.814-.627.606-1.284-.175-.556-.697-.976-1.283-1.027-.896-.077-1.68.18-2.343.794-.244.225-.315.203-.407-.124l-.019-.072c-.202-.871-.204-.875.583-1.325 1.212-.693 2.494-.949 3.88-.651 1.32.283 2.158 1.272 2.166 2.616.004.753 0 1.505 0 2.257h-.006zM149.89 44.952c.357 0 .715-.002 1.073 0 .19.002.318-.055.286-.276-.084-.583-.12-1.174-.318-1.739-.16-.454-.424-.802-.93-.825-.487-.021-.793.29-1 .7-.295.584-.358 1.224-.435 1.859-.025.211.092.284.288.282.345-.004.69-.001 1.036-.001m1.25.978c-.74 0-1.48-.001-2.221.002-.157 0-.363-.025-.35.215.05.977.206 1.925.998 2.614.662.577 1.442.566 2.24.367.397-.1.76-.283 1.097-.52.118-.084.235-.203.397-.09.192.134.044.282.016.429-.185.963-.951 1.235-1.748 1.403-.975.207-1.963.193-2.93-.082-1.534-.435-2.425-1.501-2.733-3.011-.294-1.438-.267-2.885.528-4.193.918-1.512 2.357-1.974 4.033-1.864 1.304.086 2.302.676 2.89 1.876.38.774.407 1.616.443 2.453.013.288-.138.41-.438.405-.74-.014-1.48-.005-2.221-.004M95.635 46.222c-.024.764.09 1.524.397 2.255.631 1.508 2.954 1.828 3.867.389 1.07-1.687 1.237-3.494.426-5.33-.411-.932-1.177-1.391-2.235-1.304-1.05.086-1.683.696-2.067 1.613-.313.75-.407 1.546-.388 2.377m.09-3.19c.312-.383.582-.719.918-.993 1.422-1.157 4.118-.943 5.24 1.046 1.031 1.828.838 4.792-.917 6.386-1.416 1.284-3.722 1.299-5.077-.045-.164-.162-.27-.205-.449-.028-.219.216-.464.406-.7.605-.149.126-.297.305-.515.195-.195-.099-.11-.311-.104-.471.11-2.65.162-5.3.132-7.95-.019-1.627-.082-3.253-.142-4.879-.013-.337.07-.455.428-.413.352.041.716.025 1.071-.009.25-.024.283.04.267.277-.135 2.03-.165 4.064-.177 6.098 0 .036.01.072.025.18M75.65 25.052c-.951 0-1.902-.007-2.853.004-.317.004-.387-.1-.288-.397.188-.56.36-1.127.519-1.697.069-.247.203-.324.451-.326.836-.008.842-.016.84-.872-.003-.78.135-1.524.543-2.197.643-1.06 1.647-1.382 2.82-1.334.195.008.392.036.586.072 1.232.231 1.893 1.032 2.163 2.202.212.922.203.924-.74.924-.394 0-.79-.008-1.185.002-.202.005-.302-.068-.37-.266-.15-.429-.406-.591-.804-.553-.386.037-.535.3-.616.638-.094.39-.038.785-.047 1.178-.004.16.1.213.244.208.652-.02 1.307.057 1.958-.057.205-.036.394-.105.504-.277.144-.224.26-.194.43-.03.354.344.713.685 1.091 1 .239.2.225.372.056.596-.643.854-1.55 1.148-2.562 1.177-.913.026-1.827.005-2.74.005" transform="translate(-736 -3891) translate(736 3891) translate(12 65)"/>
                    <path fill="#373C46" d="M156.422 50.464c-.765.049-1.51-.182-2.226-.547-.224-.114-.297-.262-.248-.506.076-.374.13-.753.192-1.13.027-.16-.021-.355.243-.379.24-.021.36.09.453.291.287.626.77 1.02 1.448 1.15.428.082.86.102 1.264-.119.646-.353.708-1.061.13-1.513-.395-.308-.862-.477-1.32-.663-.561-.23-1.105-.484-1.575-.882-1.403-1.19-1.14-3.893.872-4.682 1.35-.53 2.632-.37 3.85.41.208.133.25.27.154.49-.142.329-.22.679-.274 1.033-.027.18-.058.344-.29.36-.22.015-.356-.044-.452-.275-.397-.949-.98-1.329-1.866-1.26-.625.048-1.061.51-1.03 1.078.016.29.18.476.394.635.454.335.981.514 1.505.701.55.196 1.083.427 1.524.817.49.434.76.97.815 1.642.2 2.392-1.678 3.427-3.563 3.349M142.63 43.261c.313-.492.573-.981.988-1.367.474-.44 1.029-.664 1.679-.66.238.001.35.05.32.342-.073.685-.14 1.374-.07 2.066.03.3-.106.382-.41.273-.825-.295-1.52-.14-2.02.453-.284.336-.402.735-.405 1.165-.012 1.418-.024 2.836.126 4.25.044.41-.003.45-.406.45-.667-.003-1.334-.01-2 .005-.273.007-.399-.035-.375-.36.148-2.045.086-4.095.08-6.143 0-.677-.04-1.355-.085-2.031-.015-.238.032-.299.28-.271.651.072 1.309.066 1.96.006.284-.026.346.065.341.315-.01.502-.003 1.005-.003 1.507M91.19 48.886c-.348.5-.724.895-1.229 1.152-1.104.563-2.218.549-3.307.004-.996-.499-1.34-1.417-1.349-2.461-.01-1.32.044-2.639.055-3.958.004-.554-.03-1.108-.054-1.662-.012-.3.048-.474.42-.382.273.067.57.062.846-.006.28-.068.343.022.329.291-.076 1.477-.178 2.953-.162 4.434.006.567-.013 1.134.145 1.689.244.853.916 1.405 1.794 1.465.925.063 1.794-.442 2.134-1.237.231-.541.33-1.11.332-1.694.007-1.506.002-3.011.004-4.517 0-.463.002-.453.476-.413.244.02.5.03.737-.02.324-.068.396.06.38.344-.051.873-.118 1.746-.133 2.62-.022 1.295-.011 2.592-.002 3.887.003.48.033.96.067 1.44.021.298-.104.397-.389.378-.258-.017-.52-.017-.778 0-.291.02-.373-.122-.34-.38.038-.302.085-.603.023-.974M125.43 19.369c0 1.738-.006 3.476.007 5.215.002.344-.095.491-.46.475-.53-.025-1.061-.02-1.59-.001-.326.011-.433-.115-.43-.432.01-1.442.004-2.884.004-4.327 0-2.046.007-4.093-.006-6.14-.002-.362.098-.51.482-.488.516.03 1.036.025 1.553.001.342-.015.449.109.447.445-.013 1.75-.006 3.501-.006 5.252M108.2 46.923c0-.284-.004-.568 0-.851.004-.215-.074-.282-.294-.228-.347.085-.702.137-1.052.208-.557.113-1.118.218-1.599.55-.958.662-.963 2.154-.012 2.771 1.024.666 2.747-.136 2.91-1.342.05-.37.022-.74.046-1.108m1.517-1.967c-.034 1.208-.096 2.415-.07 3.624.017.777.147.929.914.993.11.01.158.053.17.15.018.127.002.243-.114.33-.616.462-1.965.181-2.287-.506-.128-.273-.217-.219-.387-.068-.618.546-1.322.888-2.16.952-1.435.11-2.563-.523-2.814-1.904-.173-.957.276-1.892 1.128-2.382.682-.391 1.45-.463 2.197-.614.435-.087.875-.15 1.299-.288.52-.17.616-.304.615-.86-.001-.309-.022-.615-.124-.91-.35-1.016-1.257-1.465-2.427-1.194-.619.144-1.16.417-1.521.969-.062.094-.132.191-.266.157-.149-.039-.104-.174-.122-.276-.1-.544.114-.885.607-1.154 1.065-.581 2.173-.79 3.352-.507 1.197.288 1.982 1.295 2.01 2.526.007.32 0 .641 0 .962M159.979 22.035c0 .876-.008 1.752.004 2.628.004.284-.091.394-.383.393-1.74-.008-3.481-.013-5.222.002-.41.004-.382-.237-.38-.506.003-.264-.04-.514.376-.508 1.37.018 2.74-.002 4.111.012.318.004.435-.087.431-.417-.016-1.27.002-2.542-.01-3.812-.01-1.145-.542-1.661-1.691-1.672-.333-.003-.668-.004-.988.11-.419.148-.752.4-.853.848-.073.325-.248.422-.55.386-.085-.01-.173-.01-.258 0-.355.04-.39-.138-.315-.425.229-.871.772-1.457 1.62-1.728.843-.269 1.704-.274 2.552-.012.94.29 1.536 1.085 1.552 2.074.014.875.003 1.751.003 2.627zM112.883 50.226c-.882.002-.868.004-.779-.91.043-.44.024-.887.024-1.33 0-1.653.002-3.305-.007-4.958-.003-.393-.043-.786-.07-1.179-.016-.245.086-.344.331-.289.305.07.614.06.92.021.405-.052.466-.02.41.397-.1.735-.1 1.476-.118 2.211-.045 1.7-.036 3.402.059 5.101.002.037.001.074.005.11.075.825.075.825-.775.826M112.896 39.355c-.56.001-.995-.426-.986-.967.008-.51.466-.97.97-.977.517-.007.987.469.985.997-.002.528-.429.945-.969.947M136.106 30.366v.41c.003.183-.086.273-.27.272l-.073.003c-.835.045-1.081-.27-.855-1.09.02-.073.042-.156.121-.17.317-.053.654-.099.949.014.255.098.082.398.128.56M138.484 30.395c0 .659 0 .659-.625.657-.535-.002-.54-.002-.535-.562.006-.775-.112-.72.735-.736.314-.006.468.09.426.42-.01.072-.001.147-.001.22M150.862 27.46c-.034.156.097.431-.1.512-.291.12-.627.067-.943.021-.086-.012-.104-.096-.109-.171-.006-.11-.01-.22-.008-.33.008-.778-.09-.68.714-.71.363-.014.494.12.447.465-.008.06 0 .122 0 .213" transform="translate(-736 -3891) translate(736 3891) translate(12 65)"/>
                </g>
            </g>
        </g>
    </g>
</svg>
