<svg xmlns="http://www.w3.org/2000/svg" width="194" height="194" viewBox="0 0 194 194">
    <g fill="none" fill-rule="evenodd">
        <g>
            <g>
                <path fill="#FFF" d="M0 0H194V194H0z" transform="translate(-52 -4086) translate(52 4086)"/>
                <g fill="#373C46">
                    <path fill-rule="nonzero" d="M56.31 24.805h-7.435l-1.382 3.416h-5.075l7.914-18.64h4.898l7.637 18.64h-5.175l-1.381-3.416zm-1.456-3.668l-2.11-6.682-2.412 6.682h4.522zM88.113 27.669c-.402.251-.896.444-1.483.578-.569.134-1.934.2-2.587.2-.26 0 .242-.009 0-.027-1.413-.11-2.526-.535-3.341-1.279-.955-.87-1.432-2.169-1.432-3.894v-5.074h-1.4l-1.053-3.567h2.453V9.58h4.773v5.025h3.115v3.567h-3.115v5.024c0 .486.126.871.377 1.156.268.268.62.402 1.055.402.553 0 1.038-.143 1.457-.427l1.18 3.34zM103.301 14.606V28.22h-4.547v-1.457c-.502.553-1.105.972-1.808 1.256-.704.285-1.45.428-2.236.428-1.759 0-3.165-.52-4.22-1.558-1.039-1.038-1.558-2.596-1.558-4.673v-7.611h4.773v6.833c0 1.021.192 1.766.578 2.235.385.47.946.704 1.683.704.754 0 1.365-.26 1.834-.779.485-.536.728-1.348.728-2.437v-6.556h4.773zM111.285 14.38c2.261 0 3.986.519 5.175 1.557 1.19 1.022 1.784 2.596 1.784 4.723v7.561h-4.446v-1.758c-.687 1.323-2.027 1.985-4.02 1.985-1.055 0-1.968-.185-2.738-.553-.77-.369-1.357-.863-1.759-1.482-.385-.637-.577-1.357-.577-2.16 0-1.29.494-2.287 1.482-2.99.988-.72 2.512-1.08 4.572-1.08h2.713c-.084-1.44-1.047-2.161-2.889-2.161-.653 0-1.315.109-1.985.327-.67.2-1.239.485-1.708.854v-4.005s.059-.124 1.13-.392c1.09-.284 2.178-.427 3.266-.427zm-.175 11.053c.552 0 1.038-.134 1.457-.402.418-.268.72-.661.904-1.18V22.67h-2.06c-1.39 0-2.085.46-2.085 1.381 0 .419.16.754.477 1.005.318.251.754.377 1.307.377zM120.292 9.581L125.065 9.581 125.065 28.221 120.292 28.221z" transform="translate(-52 -4086) translate(52 4086) translate(34 78)"/>
                    <path d="M65.789 27.561c1.144.598 2.435.897 3.872.897 1.437 0 2.727-.3 3.872-.897 1.144-.597 2.04-1.424 2.69-2.48.425-.701.711-1.46.857-2.277h-4.632c-.054.155-.118.304-.193.447-.267.495-.63.883-1.087 1.163-.445.267-.948.4-1.507.4-.56 0-1.068-.133-1.526-.4-.445-.28-.801-.668-1.068-1.163-.267-.509-.4-1.1-.4-1.774 0-.674.133-1.26.4-1.755.267-.509.623-.896 1.068-1.164.458-.28.966-.42 1.526-.42s1.062.14 1.507.42c.457.268.82.655 1.087 1.164.067.125.126.255.176.39h4.642c-.148-.798-.432-1.539-.85-2.221-.65-1.068-1.546-1.901-2.69-2.499-1.145-.597-2.435-.896-3.872-.896-1.437 0-2.728.299-3.872.896-1.144.598-2.04 1.43-2.69 2.499-.648 1.055-.972 2.25-.972 3.586 0 1.335.324 2.536.973 3.605.648 1.055 1.545 1.882 2.689 2.48zm11.382-6.696v1.224c.016-.2.024-.405.024-.612 0-.208-.008-.412-.024-.612zM0 28.472L16.674 38l16.674-9.528V9.528L16.674 0 0 9.528v18.944zm24.572-4.288v8.298l-7.306-4.123 7.306-4.175zm.585-1.008V14.88l7.306 4.123-7.306 4.174zm.3.503l7.306-4.175v8.297l-7.306-4.122zm-.3.502l7.306 4.123-7.306 4.175V24.18zm-8.19 12.978l7.305-4.175-7.306-4.122v8.297zm7.605-31.638v8.353l-7.308-4.176 7.308-4.177zm-.297-.504l-7.309 4.177V.84l7.309 4.176zm-15.202 0L16.38.841v8.353L9.073 5.017zm-.297.504l7.308 4.177-7.308 4.176V5.521zm-.585 0v8.353L.882 9.698 8.191 5.52zm-.3 8.856L.585 10.202v8.297l7.306-4.122zM.585 27.8v-8.297l7.306 4.175L.585 27.8zm.3.503L8.19 24.18v8.298L.885 28.304zm15.496.558l-7.305 4.122 7.305 4.175v-8.297zm-7.605-4.678v8.298l7.305-4.123-7.305-4.175zM8.19 14.88v8.297L.885 19.002l7.306-4.123zm16.966-1.005V5.521l7.309 4.177-7.309 4.176zm7.606 4.625v-8.297l-7.306 4.175 7.306 4.122zM8.945 14.284c-.14-.078-.316-.028-.394.113-.078.14-.028.317.111.395l7.728 4.337v8.902c0 .16.13.29.29.29.16 0 .29-.13.29-.29v-8.902l7.728-4.337c.14-.078.19-.255.111-.395-.078-.14-.254-.19-.394-.113l-7.735 4.341-7.735-4.34z" transform="translate(-52 -4086) translate(52 4086) translate(34 78)"/>
                </g>
            </g>
        </g>
    </g>
</svg>
