<svg xmlns="http://www.w3.org/2000/svg" xmlns:xlink="http://www.w3.org/1999/xlink" width="194" height="194" viewBox="0 0 194 194">
    <defs>
        <path id="91165yyuza" d="M0 25.098L85 25.098 85 0 0 0z"/>
    </defs>
    <g fill="none" fill-rule="evenodd">
        <g>
            <g>
                <path fill="#FFF" d="M0 0H194V194H0z" transform="translate(-736 -4086) translate(736 4086)"/>
                <g transform="translate(-736 -4086) translate(736 4086) translate(55 84)">
                    <path fill="#373C46" d="M72.832 9.68c1.189 0 2.333.002 3.478-.001.08 0 .163-.029.242-.05 1.463-.382 2.324-1.676 2.15-3.225-.153-1.36-1.33-2.387-2.81-2.42-.952-.022-1.906-.005-2.859-.003-.064 0-.128.021-.2.034v5.666zm.002 11.43c1.563 0 3.086.051 4.602-.026.608-.031 1.247-.264 1.793-.553 1.34-.71 2.037-2.428 1.69-3.945-.343-1.506-1.685-2.752-3.19-2.825-1.587-.078-3.178-.048-4.768-.062-.036 0-.073.03-.127.053v7.357zm-2.443 3.988c-.03-.025-.055-.062-.089-.075-1.043-.404-1.474-1.022-1.476-2.138-.003-1.794 0-3.587 0-5.38V2.233c0-1.175.562-1.954 1.573-2.177.2-.044.412-.051.618-.052C72.593 0 74.169-.002 75.745.003c3.889.01 6.811 2.783 6.982 6.66.061 1.4-.333 2.698-1.105 3.875l-.229.353c.33.261.656.494.953.758 1.484 1.317 2.368 2.953 2.597 4.931.006.053.037.102.057.153v1.49c-.027.076-.066.148-.08.225-.514 3.061-2.226 5.145-5.139 6.226-.535.199-1.112.286-1.67.424h-7.72zM57.912 15.228l-2.906-7.695-2.904 7.695h5.81zm-11.26 9.87c-1.477-.575-1.911-1.557-1.35-3.052 2.558-6.808 5.118-13.615 7.67-20.425.295-.788.755-1.383 1.624-1.541 1.144-.208 1.982.32 2.426 1.5l6.396 17.02 1.263 3.366c.585 1.557.223 2.456-1.263 3.132h-.83c-.889-.266-1.346-.905-1.638-1.753-.442-1.289-.96-2.552-1.428-3.831-.091-.248-.213-.331-.477-.33-2.68.01-5.362.01-8.043 0-.262 0-.382.081-.474.332-.468 1.28-.99 2.541-1.43 3.83-.3.874-.798 1.492-1.7 1.752h-.747zM28.473 25.098c-.217-.109-.448-.199-.65-.331-.694-.456-.903-1.14-.901-1.93.006-2.953.002-5.906.002-8.858 0-3.905.003-7.81-.002-11.714-.001-.858.245-1.58 1.043-2.014 1.257-.685 2.797.137 2.929 1.558.019.206.022.414.022.62l.001 18.13v.56h.542c3.029 0 6.057-.004 9.085.004 1.309.003 2.235 1.047 2.046 2.3-.11.726-.543 1.218-1.206 1.517-.124.056-.251.106-.377.158H28.473z"/>
                    <mask id="hlkvpgvorb" fill="#fff">
                        <use xlink:href="#91165yyuza"/>
                    </mask>
                    <path fill="#373C46" d="M.002 25.098L21.667 25.098 21.667 21.147.002 21.147zM10.824 10.711l5.515-7.628c.525-.727 1.045-1.458 1.577-2.18.49-.665 1.143-1.004 1.976-.862.811.138 1.387.601 1.642 1.397.075.232.096.489.097.734.005 4.816.006 9.632.001 14.449 0 1.072-.547 1.83-1.473 2.099-1.183.342-2.372-.462-2.488-1.685-.02-.206-.024-.413-.024-.62-.002-2.594-.001-5.189-.001-7.783v-.566c-.17.217-.262.328-.347.445-1.567 2.17-3.131 4.344-4.701 6.514-.767 1.06-2.023 1.32-3.003.61-.24-.175-.446-.414-.622-.657C7.446 12.863 5.93 10.74 4.41 8.62c-.111-.155-.224-.31-.421-.453v.424c0 2.733.003 5.465-.003 8.197-.001.784-.354 1.382-1.042 1.76-.673.368-1.357.352-2.007-.06-.65-.411-.935-1.025-.934-1.785.002-1.849 0-3.698 0-5.547 0-3.022-.007-6.044.003-9.067C.01.554 1.418-.423 2.807.182c.402.176.767.543 1.033.907 2.25 3.074 4.473 6.168 6.705 9.256.08.11.165.217.279.366" mask="url(#hlkvpgvorb)"/>
                </g>
            </g>
        </g>
    </g>
</svg>
