<svg xmlns="http://www.w3.org/2000/svg" xmlns:xlink="http://www.w3.org/1999/xlink" width="194" height="194" viewBox="0 0 194 194">
    <defs>
        <path id="i8hiv0froa" d="M0 0.704L65 0.704 65 65.694 0 65.694z"/>
    </defs>
    <g fill="none" fill-rule="evenodd">
        <path fill="#FFF" d="M0 0H194V194H0z"/>
        <g transform="translate(65 62)">
            <mask id="bcqrfsx0kb" fill="#fff">
                <use xlink:href="#i8hiv0froa"/>
            </mask>
            <path fill="#373C46" d="M65 33.204C65 15.255 50.45.704 32.5.704S0 15.255 0 33.204C0 49.426 11.885 62.871 27.422 65.31V42.6H19.17v-9.395h8.252v-7.16c0-8.145 4.852-12.644 12.276-12.644 3.555 0 7.275.635 7.275.635v7.998h-4.098c-4.038 0-5.297 2.505-5.297 5.075v6.096h9.014L45.15 42.6h-7.573v22.71C53.115 62.871 65 49.426 65 33.204" mask="url(#bcqrfsx0kb)"/>
            <path fill="#FFF" d="M45.15 44.895l1.442-9.395h-9.014v-6.096c0-2.57 1.26-5.076 5.297-5.076h4.098V16.33s-3.72-.635-7.275-.635c-7.424 0-12.276 4.5-12.276 12.645v7.16H19.17v9.395h8.252v22.71c1.655.26 3.35.395 5.078.395 1.728 0 3.423-.135 5.078-.395v-22.71h7.573" mask="url(#bcqrfsx0kb)"/>
        </g>
    </g>
</svg>
