<svg xmlns="http://www.w3.org/2000/svg" width="194" height="194" viewBox="0 0 194 194">
    <g fill="none" fill-rule="evenodd">
        <g>
            <g>
                <path fill="#FFF" d="M0 0H194V194H0z" transform="translate(-1194 -3891) translate(1194 3891)"/>
                <g fill-rule="nonzero">
                    <path fill="#373C46" d="M63.153 34.547v2.025c0 .647-.216 1.174-.648 1.592-.54.527-1.242.73-2.106.608-.756-.121-1.62-.661-2.227-1.66v-21.83c.702-.945 1.444-1.472 2.227-1.593.864-.121 1.566.081 2.106.607.432.405.648.946.648 1.594v18.657zm2.875-25.124c-.89-.607-1.998-.918-3.32-.918-1.89 0-3.402.702-4.536 2.12V0H52.88v30.227c-.041.877-.392 1.66-1.35 1.93-2.822.432-4.968 2.862-4.968 5.792 0 3.24 2.619 5.872 5.872 5.872 1.445 0 2.781-.526 3.807-1.404.027-.014.04-.027.054-.054.148-.121.283-.27.419-.405.202-.162.431-.297.715-.297.351 0 .607.054.904.324 1.148 1.282 2.606 1.944 4.388 1.944.068 0 .135 0 .216-.014 1.255-.026 2.322-.323 3.172-.904.892-.608 1.499-1.296 1.85-2.039.324-.715.5-1.916.513-3.617 0-.081.014-.162.014-.243v-21.79c0-1.822-.19-3.118-.554-3.86-.392-.756-1.013-1.431-1.904-2.039m10.395 1.161V8.721h-5.237v34.911h5.237V15.215c.77-.932 1.553-1.458 2.35-1.594.877-.121 1.633.082 2.227.608V8.384c-1.89.013-3.415.729-4.576 2.2" transform="translate(-1194 -3891) translate(1194 3891) translate(57 75)"/>
                    <path fill="#FFF" d="M55.431 37.949c0 1.66-1.35 3.01-3.01 3.01-1.661 0-3.011-1.35-3.011-3.01 0-1.661 1.35-3.011 3.01-3.011 1.661 0 3.011 1.337 3.011 3.01" transform="translate(-1194 -3891) translate(1194 3891) translate(57 75)"/>
                    <path fill="#373C46" d="M15.43 43.605h-5.224v-27.58c0-.648-.216-1.175-.648-1.58-.54-.527-1.242-.729-2.106-.607-.783.121-1.526.648-2.228 1.579v28.188H0V8.951h5.224v1.862c1.162-1.404 2.66-2.106 4.51-2.106 1.322 0 2.416.297 3.307.905.877.607 1.498 1.283 1.863 2.025.364.742.54 2.025.54 3.848v28.12h-.014zm9.005-34.668h-5.224v34.668h5.224V8.937zm0-8.653h-5.224v5.103h5.224V.284zm18.643 33.938h-5.224v1.998c0 .716-.243 1.324-.756 1.85-.5.513-1.093.783-1.768.783-.716 0-1.337-.257-1.823-.756-.5-.513-.756-1.107-.756-1.796V16.254c0-.689.243-1.296.756-1.796.5-.499 1.107-.755 1.823-.755.688 0 1.269.256 1.768.756.5.513.756 1.107.756 1.795v12.501h5.224V16.47c0-2.146-.769-3.969-2.281-5.481s-3.348-2.268-5.494-2.268c-2.147 0-3.983.756-5.495 2.268-1.512 1.512-2.282 3.334-2.282 5.467v19.656c0 2.133.77 3.97 2.336 5.468 1.553 1.512 3.389 2.268 5.535 2.268 2.133 0 3.956-.77 5.44-2.282 1.499-1.512 2.241-3.361 2.241-5.508v-1.836z" transform="translate(-1194 -3891) translate(1194 3891) translate(57 75)"/>
                </g>
            </g>
        </g>
    </g>
</svg>
