<svg xmlns="http://www.w3.org/2000/svg" width="194" height="194" viewBox="0 0 194 194">
    <g fill="none" fill-rule="evenodd">
        <g>
            <g>
                <path fill="#FFF" d="M0 0H194V194H0z" transform="translate(-507 -3891) translate(507 3891)"/>
                <path fill="#141923" fill-rule="nonzero" d="M24.987 92V78.085l5.986 7.334 5.975-7.334V92h1.224V76.311h-1.224L30.973 83.6l-5.986-7.289h-1.213V92h1.213zm23 .202c1.94 0 3.52-.636 4.74-1.909 1.22-1.273 1.83-3.08 1.83-5.424V76.31h-1.213v8.625c0 1.962-.496 3.476-1.488 4.543-.992 1.067-2.281 1.6-3.869 1.6-1.572 0-2.854-.528-3.846-1.583-.992-1.056-1.488-2.52-1.488-4.392v-8.793h-1.224v8.838c0 2.187.61 3.909 1.83 5.166 1.22 1.258 2.797 1.887 4.728 1.887zm13.32 0c1.272 0 2.35-.415 3.234-1.246.883-.831 1.325-1.85 1.325-3.055 0-.906-.19-1.644-.573-2.213-.381-.569-.846-1.003-1.392-1.302-.547-.3-1.415-.674-2.606-1.123-1.19-.45-1.972-.917-2.347-1.404-.374-.487-.561-1.033-.561-1.64 0-.846.316-1.555.949-2.128.632-.573 1.42-.86 2.364-.86.98 0 2.152.401 3.515 1.203v-1.337c-1.198-.659-2.407-.988-3.628-.988-1.242 0-2.306.406-3.19 1.218-.883.813-1.324 1.795-1.324 2.948 0 .831.181 1.51.544 2.039.364.528.805.934 1.326 1.218.52.285 1.387.66 2.6 1.123 1.212.464 2.017.964 2.414 1.5.397.535.595 1.136.595 1.802 0 .876-.32 1.615-.96 2.218-.64.603-1.424.904-2.353.904-1.115 0-2.433-.558-3.953-1.673v1.426c1.378.913 2.718 1.37 4.02 1.37zM69.774 92v-7.839L77.984 92h1.55l-8.221-7.861 7.502-7.828h-1.516l-7.525 7.805v-7.805h-1.212V92h1.212zM25.01 118v-7.704h6.188v-1.01H25.01v-5.964h6.862v-1.011h-8.075V118h1.213zm16.52.202c2.32 0 4.288-.78 5.901-2.341 1.614-1.561 2.42-3.461 2.42-5.7 0-2.246-.806-4.15-2.42-5.71-1.613-1.562-3.58-2.342-5.901-2.342-2.314 0-4.273.78-5.88 2.341-1.605 1.561-2.408 3.465-2.408 5.711 0 2.239.803 4.139 2.409 5.7 1.606 1.56 3.565 2.341 5.879 2.341zm.045-1.123c-1.962 0-3.622-.668-4.981-2.005-1.359-1.336-2.038-2.974-2.038-4.913 0-1.946.68-3.588 2.038-4.924 1.359-1.337 3.02-2.005 4.98-2.005 1.955 0 3.604.668 4.948 2.005 1.344 1.336 2.016 2.978 2.016 4.924 0 1.94-.672 3.577-2.016 4.913-1.344 1.337-2.993 2.005-4.947 2.005zm17.463 1.123c1.94 0 3.519-.636 4.74-1.909 1.22-1.273 1.83-3.08 1.83-5.424v-8.558h-1.213v8.625c0 1.962-.496 3.476-1.488 4.543-.992 1.067-2.282 1.6-3.869 1.6-1.572 0-2.854-.528-3.846-1.583-.992-1.056-1.488-2.52-1.488-4.392v-8.793h-1.225v8.838c0 2.187.61 3.909 1.831 5.166 1.22 1.258 2.796 1.887 4.728 1.887zm11.04-.202v-13.712L81.993 118h1.01v-15.689h-1.212v13.712l-11.893-13.712h-1.033V118h1.213zm22.247 0c2.666 0 4.723-.74 6.171-2.218 1.45-1.479 2.173-3.352 2.173-5.62 0-2.314-.731-4.201-2.195-5.661s-3.585-2.19-6.362-2.19H86.62V118h5.705zm-.067-1.01h-4.425v-13.668h4.346c2.119 0 3.845.636 5.177 1.909 1.333 1.273 2 2.916 2 4.93 0 2.06-.676 3.712-2.028 4.958-1.351 1.247-3.041 1.87-5.07 1.87zm10.927 1.01l2.482-5.424h7.66l2.481 5.424h1.27l-7.245-15.801h-.673L101.916 118h1.27zm9.68-6.435h-6.738l3.358-7.39 3.38 7.39zm11.5 6.435v-14.678h5.885v-1.011h-12.993v1.01h5.885V118h1.224zm8.996 0v-15.689h-1.213V118h1.213zm11.23.202c2.322 0 4.289-.78 5.902-2.341 1.614-1.561 2.42-3.461 2.42-5.7 0-2.246-.806-4.15-2.42-5.71-1.613-1.562-3.58-2.342-5.901-2.342-2.314 0-4.273.78-5.88 2.341-1.605 1.561-2.408 3.465-2.408 5.711 0 2.239.803 4.139 2.409 5.7 1.606 1.56 3.565 2.341 5.879 2.341zm.046-1.123c-1.962 0-3.622-.668-4.981-2.005-1.359-1.336-2.038-2.974-2.038-4.913 0-1.946.68-3.588 2.038-4.924 1.359-1.337 3.02-2.005 4.98-2.005 1.955 0 3.604.668 4.948 2.005 1.344 1.336 2.016 2.978 2.016 4.924 0 1.94-.672 3.577-2.016 4.913-1.344 1.337-2.993 2.005-4.947 2.005zm12.443.921v-13.712L168.996 118h1.01v-15.689h-1.213v13.712L156.9 102.311h-1.033V118h1.213z" transform="translate(-507 -3891) translate(507 3891)"/>
            </g>
        </g>
    </g>
</svg>
