<svg xmlns="http://www.w3.org/2000/svg" xmlns:xlink="http://www.w3.org/1999/xlink" width="194" height="194" viewBox="0 0 194 194">
    <defs>
        <path id="6oevzyj7oa" d="M0.374 0.03L35.075 0.03 35.075 18.592 0.374 18.592z"/>
        <path id="3rkvkx1sgc" d="M0.035 0.739L78.423 0.739 78.423 41.901 0.035 41.901z"/>
    </defs>
    <g fill="none" fill-rule="evenodd">
        <path fill="#FFF" d="M0 0H194V194H0z"/>
        <g>
            <g transform="translate(57 60) translate(21.487)">
                <mask id="7jsv7jsndb" fill="#fff">
                    <use xlink:href="#6oevzyj7oa"/>
                </mask>
                <path fill="#373C46" d="M6.57 18.309c-2.389.876-5.036-.35-5.913-2.74-.876-2.391.351-5.037 2.74-5.913L28.88.313c2.388-.876 5.037.351 5.913 2.741.876 2.388-.351 5.037-2.74 5.912L6.57 18.31" mask="url(#7jsv7jsndb)"/>
            </g>
            <path fill="#373C46" d="M28.058 32.101c-2.39.876-5.037-.35-5.914-2.74-.876-2.392.35-5.037 2.74-5.914l25.482-9.342c2.388-.877 5.037.35 5.913 2.74.876 2.39-.351 5.037-2.74 5.914L28.057 32.1" transform="translate(57 60)"/>
            <g transform="translate(57 60) translate(0 26.875)">
                <mask id="2j0qandcgd" fill="#fff">
                    <use xlink:href="#3rkvkx1sgc"/>
                </mask>
                <path fill="#373C46" d="M28.058 19.019c-2.39.875-5.037-.351-5.914-2.741-.876-2.391.35-5.038 2.74-5.914l25.482-9.343c2.388-.875 5.037.352 5.913 2.742.876 2.389-.351 5.037-2.74 5.913l-25.481 9.343M0 30.479L8.548 30.479 8.548 32.802 3.018 32.802 3.018 34.821 8.321 34.821 8.321 37.231 3.018 37.231 3.018 39.317 8.637 39.317 8.637 41.657 0 41.657 0 30.479M21.83 41.663L24.871 41.663 24.871 30.479 21.83 30.479zM35.965 30.838l-.204 2.394c-2.456-1.422-6.222-.969-6.289 2.76-.069 3.725 3.878 4.27 6.38 3.004l.158 2.443c-4.419 1.377-9.697-.024-9.674-5.447.023-5.314 5.344-6.783 9.63-5.154M44.918 30.665l-.205 2.33c-1.533-.845-4.442-.867-4.442.458 0 1.963 5.187.545 5.187 4.749 0 4.134-4.937 4.18-8.14 3.22l.226-2.465c2.007.936 4.849 1.14 4.849-.481 0-1.78-5.21-.778-5.21-4.773 0-3.278 4.059-4.157 7.735-3.038M54.094 30.665l-.203 2.33c-1.533-.845-4.442-.867-4.442.458 0 1.963 5.187.545 5.187 4.749 0 4.134-4.94 4.18-8.141 3.22l.227-2.465c2.006.936 4.847 1.14 4.847-.481 0-1.78-5.209-.778-5.209-4.773 0-3.278 4.058-4.157 7.734-3.038M68.097 30.479L71.95 30.479 75.627 37.693 75.627 30.479 78.423 30.479 78.423 41.663 74.793 41.663 70.916 34.313 70.916 41.663 68.097 41.663 68.097 30.479M58.65 36.095c0 1.704.73 3.633 2.434 3.631 1.705-.002 2.423-1.927 2.434-3.631.013-1.542-.73-3.627-2.434-3.63-1.705 0-2.435 1.926-2.435 3.63zm2.435-5.885c3.159.002 5.57 1.85 5.57 5.885 0 3.856-2.423 5.84-5.57 5.84-3.141.002-5.55-1.938-5.55-5.84 0-4.035 2.395-5.885 5.55-5.885z" mask="url(#2j0qandcgd)"/>
            </g>
            <path fill="#373C46" d="M10.756 57.354h5.48c1.489 0 3.562.653 3.562 2.977 0 1.486-.674 2.32-1.956 2.705.06-.005.732.288 1.01 1.128.01.028 1.567 4.364 1.585 4.374h-3.231l-1.15-3.361c-.177-.516-.56-.857-1.105-.857-.474 0-1.218-.032-1.218 0v4.218h-2.977V57.354zm2.909 4.713h1.668c.751.011 1.428-.44 1.42-1.265-.004-.73-.603-1.249-1.375-1.238h-1.713v2.503z" transform="translate(57 60)"/>
        </g>
    </g>
</svg>
