<svg xmlns="http://www.w3.org/2000/svg" width="194" height="194" viewBox="0 0 194 194">
    <g fill="none" fill-rule="evenodd">
        <path fill="#FFF" d="M0 0H194V194H0z"/>
        <g fill="#373C46">
            <path d="M21.26 53.968v1.626c0 1.99-.472 3.27-1.475 4.305-1.24 1.28-3.657 2.275-8.555 2.275-5.586 0-7.828-1.198-9.126-2.538-1.12-1.158-1.79-2.804-1.79-4.896 0-1.95.59-3.676 1.79-4.915 1.298-1.34 3.894-2.519 9.126-2.519 4.17 0 7.395.752 9.066 1.625v2.885c-1.986-1.117-5.27-1.971-9.066-1.971-3.816 0-5.842.711-6.747 1.644-.727.752-1.1 1.79-1.1 3.25 0 1.546.412 2.56 1.1 3.27.905.936 2.577 1.707 6.747 1.707 3.304 0 5.39-.608 6.175-1.421.531-.549.728-1.097.728-1.808H9.676v-2.519H21.26M38.71 58.823c.275-.285.373-.63.373-.995 0-.426-.098-.752-.334-.996-.433-.446-1.239-.63-6.096-.893-5.489-.285-7.16-.752-8.104-1.726-.55-.57-.786-1.362-.786-2.377 0-1.036.217-2.011.963-2.783.964-.995 2.853-1.686 7.69-1.686 3.835 0 6.727.569 8.556 1.32v2.66c-2.085-.913-5.546-1.583-8.555-1.583-3.757 0-4.838.366-5.292.832-.235.244-.334.57-.334.955 0 .366.099.67.297.874.412.426 1.337.67 5.82.893 5.803.305 7.415.752 8.358 1.727.551.568.846 1.442.846 2.457 0 1.057-.216 2.032-.964 2.804-.983 1.015-2.929 1.808-8.082 1.808-3.816 0-7.553-.631-9.677-1.585v-2.66c2.046 1.015 6.392 1.847 9.677 1.847 3.854 0 5.093-.324 5.645-.893M68.729 61.849L65.925 61.849 65.925 49.947 58.578 61.849 54.779 61.849 47.432 49.947 47.432 61.849 44.645 61.849 44.645 47.631 49.223 47.631 56.733 59.899 64.26 47.631 68.729 47.631 68.729 61.849M77.485 55.98h8.452l-4.235-6.643-4.217 6.643zm6.297-8.43l9.289 14.299h-3.396l-2.136-3.35H75.884l-2.137 3.35h-3.262l9.29-14.299h4.007zM89.815 48.06L88.884 48.06 88.884 47.54 91.267 47.54 91.267 48.06 90.335 48.06 90.335 50.734 89.815 50.734 89.815 48.06M91.812 47.54L92.361 47.54 93.255 49.05 94.149 47.54 94.699 47.54 94.699 50.734 94.183 50.734 94.183 48.444 93.255 49.949 93.238 49.949 92.32 48.452 92.32 50.734 91.812 50.734 91.812 47.54M.754 40.348L10.656 40.348 10.656 28.661.754 28.661zM14.381 40.348L29.231 40.348 29.231 22.821 14.381 22.821zM32.955 40.348L55.209 40.348 55.209 14.06 32.955 14.06zM59.384 40.348L92.323 40.348 92.323.921 59.384.921z" transform="translate(50 63)"/>
        </g>
    </g>
</svg>
