<svg xmlns="http://www.w3.org/2000/svg" width="66" height="80" viewBox="0 0 66 80">
    <g fill="none" fill-rule="evenodd">
        <path fill="#6E737D" d="M41.474 77.419L42.228 74.925 44.764 65.499 44.796 64.815 44.862 63.286 43.755 61.331 42.064 60.03 41.284 59.024 41.154 56.545 44.178 55.506 45.251 56.219 45.48 55.471 44.959 54.918 45.448 54.365 44.796 53.162 43.071 52.705 42.65 51.628 42.943 50.165 48.051 50.133 48.602 49.515 49.481 49.515 49.969 49.97 50.555 49.871 51.433 48.897 52.669 48.57 52.919 49.262 53.669 50.179 53.848 51.175 53.815 52.416 55.054 52.27 54.973 51.401 54.076 49.115 53.553 47.973 53.799 47.465 53.326 46.567 52.886 46.305 52.689 45.588 52.495 45.375 52.056 45.701 51.566 45.537 51.436 44.886 52.897 42.22 51.921 39.813 51.888 39.292 51.401 38.576 51.369 37.145 51.713 36.013 51.614 35.426 51.355 33.811 51.859 33.19 52.934 32.861 53.228 32.308 53.228 31.505 53.587 30.786 53.309 29.037 52.576 28.664 51.795 28.695 51.566 28.942 50.328 28.826 49.431 28.844 48.584 29.316 47.997 28.99 47.084 28.711 46.726 28.844 46.401 28.564 45.161 28.826 41.755 25.462 40.941 25.118 39.507 24.839 38.203 25.069 37.877 25.347 36.787 25.02 35.628 24.987 34.896 25.363 33.95 24.906 33.151 24.807 31.88 24.253 30.853 23.402 30.804 22.749 31.115 22.226 31.049 21.606 31.505 20.625 31.278 19.775 30.479 18.566 28.695 15.297 27.914 15.262 27.329 15.331 27.427 14.873 28.109 13.408 28.24 11.91 27.946 11.133 28.208 10.219 29.639 8.169 30.355 7.55 31.069 6.507 31.851 6.31 32.272 5.792 33.623 3.703 35.939 2.803 36.15 2.64 36.651 2.652 36.777 2.508 37.296 2.116 37.491 1.596 36.972 0.913 35.346 0.035 34.695 0 34.466 0.391 34.402 0.815 33.719 0.913 33.361 1.207 32.613 1.109 31.962 1.37 31.605 1.79 31.995 2.246 31.703 2.67 30.532 3.256 28.97 4.2 27.93 4.947 26.727 5.209 25.392 5.307 23.928 5.145 23.017 5.633 23.082 6.184 23.375 6.901 23.277 7.619 22.595 8.237 22.138 8.043 22.302 7.325 22.204 7.098 22.855 6.871 21.913 6.772 20.773 6.283 20.188 6.317 18.692 7.227 18.334 7.846 17.326 9.018 16.122 11.296 15.959 11.946 16.316 11.786 16.643 12.143 16.773 12.89 16.513 13.706 15.863 14.033 15.016 14.097 14.366 14.454 13.194 15.597 12.706 15.855 11.83 17.155 11.306 17.221 10.559 17.255 10.819 18.099 11.6 18.98 11.6 20.088 11.145 21.062 10.657 21.033 9.845 20.345 9.941 20.022 10.235 19.5 9.552 19.208 9.26 18.361 8.263 17.482 8.072 18.274 8.218 18.862 8.624 19.988 7.973 21.145 7.663 22.243 7.109 22.684 6.67 22.715 6.08 24.079 6.271 24.249 6.466 25.295 6.549 26.328 7.443 27.422 7.786 27.387 8.226 27.159 8.471 27.567 8.585 28.562 8.03 29.183 8.014 29.577 8.552 30.165 8.552 31.421 7.965 31.863 7.608 32.517 7.965 32.664 8.324 33.495 8.211 35.016 8.292 37.122 7.671 37.858 7.558 38.497 8.095 39.247 8.895 38.904 8.781 39.41 9.237 40.062 9.709 40.015 9.758 40.438 9.292 41.019 8.9 42.027 7.209 43.721 6.754 44.666 5.485 45.904 3.798 46.277 2.494 47.254 1.254 49.147 1.06 50.646 0.86 51.474 2.172 51.975 3.655 52.987 5.675 54.311 6.475 54.327 7.534 55.439 7.371 56.107 7.548 56.694 8.935 56.81 10.515 57.578 11.052 57.955 12.503 58.28 13.058 57.774 13.009 56.843 13.668 56.322 13.984 56.331 15.339 56.811 16.047 57.205 16.241 57.794 16.853 58.136 16.954 58.199 17.279 58.174 17.797 58.696 19.424 59.087 20.433 59.313 20.694 59.803 21.766 61.072 21.865 61.917 22.611 63.317 23.198 63.317 25.344 64.034 26.256 65.368 26.222 66.442 26.548 66.54 27.296 66.898 27.687 68.039 27.395 68.494 27.655 69.143 28.499 69.503 29.444 69.277 30.225 69.471 31.329 69.439 31.785 69.05 33.216 68.397 34.453 68.624 35.526 69.143 37.087 68.46 37.902 68.46 38.257 68.983 38.78 68.95 39.787 69.439 40.243 70.057 41.122 69.762 41.186 70.38 38.257 75.33 38.421 75.886 39.43 75.787 40.568 75.687 41.252 76.439z"/>
        <path d="M33.89 0l-.474.813-.013.087-.397.057-.282.233-.637-.084-.932.375-.79.931.383.45-.915.459-1.59.962-.968.696-1.025.223-1.224.09-1.582-.175-1.436.773.108.916-.392-.041-1.175-.506-.876.05-1.744 1.066-.404.701-.961 1.122-1.27 2.378-.518 2.008 1.027-.462.048.283-.133.422-.307.154-.85.065-.833.46-1.157 1.131-.54.288-.799 1.19-1.723.095.53 1.724.614.696-.838-.358-.253-.738-1.867-1.654-.462 1.922.18.73.326.916-.508.906-.309 1.035-.246.198-.615.043-.909 2.105.365.325.148.802.095 1.185 1.214 1.491.717-.073.041.36-.513.577-.035.863.542.595v.706l-.443.334-.744 1.368.755.311.198.458-.105 1.397.074 1.89-.569.677-.185 1.052.967 1.357.431-.186.527.758-.097.122-.376.969-1.657 1.667-.448.936-1.056 1.033-1.63.362-1.483 1.116-1.363 2.09-.206 1.596L0 52.188l1.734.665 1.419.972L5.3 55.238l.713.014.644.678-.122.502.344 1.142 1.673.14 1.419.692.59.417 1.866.419.997-.914-.047-.898.23-.182 1.2.427.448.25.192.585.787.44.27.171.242-.02.436.442 1.788.431.726.164.127.239 1.016 1.228.09.771.966 1.82h.847l1.837.615.675.992-.041 1.339.726.218.467.225.21.61-.3.469.467 1.175 1.255.537.987-.238.71.178 1.393-.04.55-.472 1.164-.533.955.176 1.24.603 1.688-.741h.357l.366.539.703-.043.718.35.627.85.269-.09-2.669 4.528.379 1.295 2.321-.22.367.404.696 3.078 1.419-4.718 2.511-9.37.126-2.51-1.244-2.204-1.711-1.321-.607-.787-.095-1.81 2.276-.785 1.492.995.571-1.87-.377-.402.398-.451-.975-1.806-1.664-.442-.24-.614.159-.789 4.832-.03.544-.613h.358l.527.495 1.087-.185.89-.991.509-.136.093.26.709.87.138.771-.05 1.88 2.519-.299-.144-1.545-.933-2.385-.398-.874.254-.523-.694-1.32-.372-.222-.168-.617-.663-.73-.42.312 1.413-2.587-1.038-2.571-.037-.586-.475-.7-.025-1.144.354-1.17-.334-2.055.21-.26 1.128-.347.481-.909V32.1l.379-.76-.355-2.243-1.145-.585-1.185.047-.193.21-.96-.09-1.076.02-.675.379-.285-.159-1.218-.388-.212.079-.278-.24-1.202.255-3.223-3.196-.914-.388L39 24.704l-1.567.277-.196.168-.84-.252-1.384-.04-.595.306-.753-.365-.803-.1-1.1-.48-.75-.625-.014-.197.313-.529-.07-.65.475-1.023-.309-1.157-.832-1.263-1.918-3.53-.855-.039.502-1.081.151-1.737-.269-.714.176-.614 1.315-1.89.712-.618.621-.912.747-.189.545-.673 1.27-1.964 2.191-.855.108-.084.565.014.272-.311.605-.459.375-1-.8-1.055L35.042.062 33.89 0zm-.373 2.122l.956-.138.109-.719.121.007 1.374.744.23.304-.012.033-.39.296-.438-.01-.31.241-2.395.934-1.427 2.215-.27.332-.8.203-.794 1.163-.707.613-1.518 2.184-.344 1.203.313.832-.108 1.242-.63 1.359-.32 1.422 1.377-.162.381.018 1.602 2.947.763 1.163.143.533-.43.927.062.584-.303.51.083 1.102 1.282 1.068 1.42.62.778.098 1.12.542.856-.441.911.026 1.32.397.45-.384 1.016-.18 1.247.244.64.271 3.524 3.494 1.253-.266.366.316.499-.186.645.198.822.459 1.003-.562.701-.013 1.493.14.259-.282.363-.014.307.156.195 1.237-.332.667v.79l-.101.192-1.002.307-.787.976.374 2.322-.328 1.081.038 1.703.49.722.029.45.895 2.216-1.415 2.591.243 1.215 1.121.377.086-.064.104.383.5.298.245.466-.187.387-1.805.478-.849.947-.073.012-.439-.41H47.73l-.548.615-5.285.034-.422 2.12.595 1.528 1.752.466.317.586-.498.565-3.648 1.258.163 3.118.937 1.215 1.64 1.265.948 1.683-.086 1.955-2.49 9.29-.27.896-.542-.598-1.753.158 2.745-4.66-.163-1.575-1.171.393-.277-.376-1.277-.623-.331.02-.338-.498h-1.258l-1.405.617-.885-.429-1.493-.276-1.67.765-.354.303-.795.023-.836-.21-.886.214-.417-.179-.046-.116.278-.437-.566-1.658-.934-.448.026-.81-1.13-1.663-2.415-.81h-.314l-.513-.965-.105-.908-1.14-1.353-.359-.678-2.706-.633-.59-.597-.41.033-.347-.196-.194-.585-.908-.509-1.525-.55-.63-.02-1.075.854.05.952-.102.092-1.009-.227-.433-.305-1.75-.863-1.074-.09-.008-.024.202-.828-1.455-1.532-.87-.018-1.845-1.213L2.362 51.8l-.925-.373.073-.299.186-1.415 1.092-1.674 1.1-.828 1.712-.38 1.46-1.428.452-.944 1.691-1.702.401-1.033.562-.705-.146-1.273-.71.07-.092-.132.315-1.41-1.439.62-.096-.136.039-.218.661-.787-.088-2.297.121-1.628-.483-1.122.699-.529v-1.793l-.488-.536.548-.616-.16-1.395-.605-1.013-.763.398-.534-.655-.066-.835-.239-1.31-.016-.014.261-.607.255-.019.85-.68.34-1.21.73-1.302-.142.478 1.264 1.075 1.1.066.684-1.47v-1.47l-.804-.91.772-.098.937-1.396.426-.226 1.164-1.14.455-.25.827-.063.981-.495.381-1.2-.185-1.067-.438-.481 1.052-1.998.953-1.113.342-.572 1.218-.745.285-.016.956.412.027.063-.232 1.02 1.282.544 1.13-1.026.106-.785 1.675-.587-1.822-.192-.131-.323-.006-.05.369-.198 1.317.147 1.378-.102 1.4-.3 1.113-.803 1.506-.913 1.278-.642.645-.94-.313-.367.235-.094.845.11.427-.351zM10.339 20.67l.407-.725v.522l-.183.393-.224-.19zM8.96 20.24l.181.077-.069.232-.112-.31z"/>
        <g>
            <path fill="#FFF" d="M26.486 17.59c-.324-.42-.783-.65-1.79-.65-.28 0-.535.03-.768.082l-.344.13-.037 3.8c-.003.4-.334.72-.74.716-.406-.003-.733-.33-.73-.728l.04-4.066c.045-1.27-.146-1.819-.4-2.087-.24-.258-.717-.442-1.826-.442-.875 0-1.515.278-1.87.727l-.113.096-.037 3.811c-.003.4-.335.72-.741.716-.406-.004-.733-.331-.729-.73l.04-4.063c.045-1.272-.146-1.821-.4-2.09-.24-.258-.717-.44-1.825-.44-.657 0-1.182.157-1.551.424l-.295.28-.017 6.017c0 .398-.331.722-.737.72-.406 0-.734-.325-.733-.724l.039-14.251c.045-1.274-.146-1.822-.4-2.093-.241-.256-.717-.44-1.826-.44-.749 0-1.328.206-1.698.544-.352.321-.608.848-.554 1.699l.001.044V25.25c0 .399-.33.722-.734.722-.406 0-.736-.323-.736-.722v-4.723l-.441.058c-3.913.779-3.573 4.81-1.778 7.51 2.223 3.346 5.058 6.954 5.96 11.441l.17 1.302 13.42.06.09-.473c1.287-5.6 6.115-12.945 5.045-19.827-.282-1.6-.563-2.499-.955-3.009" transform="translate(36.129 36.99)"/>
            <path fill="#000" d="M22.395 40.425l-.089.473-13.42-.06-.17-1.302c-.902-4.487-3.737-8.096-5.96-11.44-1.795-2.7-2.135-6.732 1.778-7.51l.441-.06v4.723c0 .4.33.723.736.723.405 0 .734-.323.734-.723V4.548c-.055-.851.2-1.378.553-1.7.37-.337.95-.543 1.699-.543 1.108 0 1.584.184 1.826.44.254.27.444.818.399 2.092l-.039 14.252c0 .399.327.723.733.725.405 0 .736-.323.737-.721l.017-6.017.294-.28c.37-.267.895-.424 1.552-.424 1.108 0 1.584.183 1.825.44.254.269.445.819.4 2.09l-.04 4.064c-.004.399.323.725.73.73.405.003.737-.318.74-.717l.038-3.811.112-.096c.356-.449.995-.726 1.87-.726 1.11 0 1.586.183 1.827.44.253.27.444.818.399 2.09l-.039 4.064c-.004.399.323.725.729.728.406.005.737-.316.74-.715l.037-3.8.344-.131c.233-.053.489-.082.769-.082 1.006 0 1.465.23 1.789.65.392.51.673 1.407.955 3.008 1.069 6.882-3.758 14.227-5.046 19.827m2.302-24.93c-.378 0-.75.038-1.105.12l-.061.019-.066-.491c-.118-.523-.327-.976-.667-1.337-.694-.737-1.744-.906-2.907-.906-.584 0-1.162.095-1.681.302l-.388.21-.033-.243c-.119-.523-.327-.975-.668-1.338-.693-.736-1.744-.905-2.905-.905-.584 0-1.162.095-1.684.303l-.157.085.017-6.45c.046-1.29-.108-2.375-.789-3.098C10.91 1.029 9.86.86 8.697.86c-1.003 0-1.982.275-2.699.93-.643.586-1.002 1.41-1.03 2.41l.007.392v14.48l-.745.097c-4.873.961-5.19 5.977-2.705 9.716 2.652 3.991 5.674 7.768 5.984 12.718.023.379.343.676.73.678l14.673.064c.367.001.68-.264.73-.62.774-5.34 6.464-13.546 5.252-21.359-.57-3.228-1.334-4.871-4.197-4.871" transform="translate(36.129 36.99)"/>
        </g>
    </g>
</svg>
