<svg xmlns="http://www.w3.org/2000/svg" width="66" height="80" viewBox="0 0 66 80">
  <g fill="none" fill-rule="evenodd">
    <path fill="#6E737D" d="M41.47 77.42l.76-2.5 2.53-9.42.04-.69.06-1.52-1.1-1.96-1.7-1.3-.78-1-.13-2.48 3.03-1.04 1.07.7.23-.74-.52-.55.49-.55-.65-1.2-1.73-.47-.42-1.07.3-1.47 5.1-.03.55-.62h.88l.49.46.59-.1.87-.97 1.24-.33.25.7.75.9.18 1-.04 1.25 1.24-.15-.08-.87-.9-2.28-.52-1.15.25-.5-.47-.9-.44-.27-.2-.71-.2-.22-.43.33-.5-.16-.12-.65 1.46-2.67-.98-2.4-.03-.53-.49-.71-.03-1.43.34-1.14-.1-.58-.26-1.62.5-.62 1.08-.33.3-.55v-.8l.36-.72-.28-1.75-.73-.38-.78.04-.23.24-1.24-.11-.9.01-.85.48-.58-.33-.92-.28-.35.13-.33-.28-1.24.27-3.4-3.37-.82-.34-1.43-.28-1.3.23-.33.28-1.1-.33-1.15-.03-.73.37-.95-.45-.8-.1-1.27-.56-1.03-.85-.05-.65.31-.52-.06-.62.45-.98-.22-.86-.8-1.2-1.79-3.27-.78-.04-.58.07.1-.46.68-1.46.13-1.5-.3-.78.27-.91 1.43-2.05.71-.62.72-1.04.78-.2.42-.52 1.35-2.09 2.32-.9.21-.16.5.01.13-.14.52-.4.2-.51-.53-.69-1.62-.88-.66-.03-.22.4-.07.41-.68.1-.36.3-.75-.1-.65.26-.36.42.4.46-.3.42-1.17.59-1.56.94-1.04.75-1.2.26-1.34.1-1.46-.17-.91.5.06.54.3.72-.1.72-.69.62-.45-.2.16-.71-.1-.23.66-.23-.95-.1-1.14-.49-.58.04-1.5.9-.36.63-1 1.17-1.2 2.28-.17.65.36-.16.32.35.13.75-.26.82-.65.32-.84.07-.65.35-1.18 1.15-.48.26-.88 1.3-.52.06-.75.04.26.84.78.88v1.1l-.46.98-.48-.03-.81-.69.1-.32.29-.52-.69-.3-.29-.84-1-.88-.19.8.15.58.4 1.13-.65 1.16-.3 1.1-.56.43-.44.04-.59 1.36.2.17.19 1.05.08 1.03.9 1.1.34-.04.44-.23.24.4.12 1-.56.62-.02.4.54.59v1.25l-.59.44-.35.66.35.14.36.84-.1 1.52.07 2.1-.62.74-.11.64.54.75.8-.35-.12.51.46.65.47-.05.05.43-.47.58-.39 1-1.7 1.7-.45.95L5.5 45.9l-1.7.38-1.3.97-1.24 1.9-.19 1.5-.2.82 1.31.5L3.65 53l2.02 1.32.8.02 1.06 1.1-.16.68.18.58 1.39.12 1.58.77.53.38 1.45.32.56-.5-.05-.94.66-.52.31.01 1.36.48.7.4.2.58.61.35.1.06.33-.03.52.53 1.62.39 1.01.22.26.5 1.08 1.26.1.85.74 1.4h.59l2.14.71.92 1.34-.04 1.07.33.1.75.36.39 1.14-.3.45.27.65.84.36.94-.22.79.2 1.1-.04.46-.39 1.43-.65 1.23.22 1.08.52 1.56-.68h.81l.36.52.52-.03 1 .49.46.62.88-.3.07.62-2.93 4.95.16.56 1.01-.1 1.14-.1.68.75z"/>
    <path d="M33.89 0l-.47.81-.02.09-.4.06-.28.23-.63-.08-.93.37-.8.93.39.45-.92.46-1.59.96-.96.7-1.03.22-1.22.1-1.59-.18-1.43.77.1.92-.39-.04-1.17-.51-.88.05-1.74 1.06-.4.7-.97 1.13-1.27 2.38-.51 2 1.02-.46.05.29-.13.42-.3.15-.86.07-.83.46-1.16 1.13-.54.28-.8 1.2-1.72.09.53 1.72.61.7-.83-.36-.26-.74-1.86-1.65-.47 1.92.18.73.33.92-.5.9-.32 1.04-.24.2-.62.04-.9 2.1.36.33.15.8.09 1.19 1.21 1.49.72-.07.04.36-.51.57-.04.87.55.59v.7l-.45.34-.74 1.37.75.3.2.47-.1 1.4.07 1.88-.57.68-.18 1.05.96 1.36.44-.19.52.76-.1.12-.37.97-1.66 1.67-.45.94L5 45.7l-1.63.36-1.48 1.12-1.37 2.09-.2 1.6-.32 1.3 1.73.67 1.42.98 2.15 1.4.71.02.65.68-.13.5.35 1.14 1.67.14 1.42.7.6.41 1.86.42 1-.91-.05-.9.23-.18 1.2.42.44.25.2.59.78.44.27.17.25-.02.43.44 1.79.43.73.17.12.24 1.02 1.22.09.78.96 1.82h.85l1.84.61.67 1-.04 1.33.73.22.47.22.2.61-.3.47.47 1.18 1.26.54.98-.24.71.18 1.4-.04.55-.48 1.16-.53.96.18 1.24.6 1.68-.74h.36l.37.54.7-.05.72.35.63.85.27-.09-2.67 4.53.38 1.3 2.32-.22.36.4.7 3.08 1.42-4.72 2.5-9.37.13-2.5-1.24-2.21-1.71-1.32-.6-.79-.1-1.81 2.27-.79 1.5 1 .57-1.87-.38-.4.4-.45-.98-1.8-1.66-.45-.24-.62.16-.78 4.83-.03.54-.62h.36l.53.5 1.09-.19.89-.99.5-.13.1.26.7.87.14.77-.05 1.88 2.52-.3-.14-1.55-.93-2.38-.4-.88.25-.52-.7-1.32-.36-.22-.17-.62-.66-.73-.42.31 1.4-2.58-1.03-2.57-.04-.59-.47-.7-.03-1.14.36-1.17-.34-2.06.21-.26 1.13-.35.48-.9v-.81l.38-.76-.35-2.24-1.15-.59-1.18.05-.2.2-.96-.08-1.07.02-.68.38-.28-.16-1.22-.39-.21.08-.28-.24-1.2.26-3.23-3.2-.9-.39L39 24.7l-1.57.28-.2.17-.83-.25-1.39-.04-.6.3-.74-.36-.8-.1-1.1-.48-.76-.63-.01-.2.31-.52-.07-.65.48-1.03-.31-1.15-.84-1.27-1.91-3.53-.86-.03.5-1.09.15-1.73-.26-.72.17-.61 1.32-1.9.7-.6.63-.92.75-.19.54-.67 1.27-1.97 2.2-.85.1-.09.57.02.27-.31.6-.46.38-1-.8-1.06-1.85-1L33.9 0zm-.37 2.12l.95-.14.11-.71h.12l1.38.75.23.3-.01.03-.4.3-.43-.01-.31.24-2.4.93-1.42 2.22-.27.33-.8.2-.8 1.17-.7.61-1.52 2.18-.35 1.2.31.84-.1 1.24-.63 1.36-.32 1.42 1.37-.16.38.02 1.6 2.95.77 1.16.14.53-.43.93.07.58-.3.51.07 1.1 1.29 1.07 1.42.62.77.1 1.12.54.86-.44.91.03 1.32.4.45-.39 1.02-.18 1.24.24.65.28 3.52 3.49 1.25-.27.37.32.5-.19.64.2.82.46 1-.56.7-.01 1.5.14.26-.29.36-.01.31.16.2 1.23-.34.67v.79l-.1.2-1 .3-.79.97.38 2.33-.33 1.08.04 1.7.49.72.03.45.9 2.22-1.42 2.59.24 1.21 1.12.38.09-.06.1.38.5.3.25.46-.2.4-1.8.47-.85.95h-.07l-.44-.4h-1.38l-.55.61-5.28.04-.43 2.12.6 1.53 1.75.46.32.59-.5.56L40 56.42l.17 3.12.93 1.21 1.64 1.27.95 1.68-.09 1.96-2.49 9.29-.27.9-.54-.6-1.75.15 2.74-4.66-.16-1.57-1.17.39-.28-.38-1.27-.62-.33.02-.34-.5h-1.26l-1.4.62-.89-.43-1.5-.27-1.66.76-.36.3-.8.03-.83-.21-.88.21-.42-.18-.05-.11.28-.44-.57-1.66-.93-.45.03-.8-1.13-1.67-2.42-.81h-.31L22.1 62l-.1-.9-1.14-1.36-.36-.67-2.7-.64-.6-.6-.4.04-.35-.2-.2-.58-.9-.51-1.53-.55-.63-.02-1.07.85.05.95-.1.1-1.02-.23-.43-.3-1.75-.87-1.07-.09-.01-.02.2-.83-1.45-1.53-.87-.02-1.85-1.21-1.47-1.01-.92-.37.07-.3.19-1.42 1.09-1.67 1.1-.83 1.71-.38 1.46-1.43.45-.94 1.7-1.7.4-1.04.56-.7-.15-1.27-.71.07-.1-.14.32-1.4-1.44.61-.1-.13.05-.22.66-.79-.09-2.3.12-1.62-.48-1.12.7-.53v-1.8l-.5-.53.56-.62-.16-1.4-.6-1-.77.4-.54-.66-.06-.84-.24-1.3-.02-.02.26-.6.26-.03.85-.68.34-1.2.73-1.31-.14.48 1.26 1.07 1.1.07.69-1.47v-1.47l-.8-.91.76-.1.94-1.4.43-.22 1.16-1.14.46-.25.82-.06.98-.5.38-1.2-.18-1.07-.44-.48 1.05-2 .96-1.1.34-.58 1.22-.75.28-.01.96.41.02.06L21.08 9l1.29.55 1.12-1.03.11-.78 1.68-.59-1.83-.2-.13-.32v-.05l.37-.2 1.31.15 1.38-.1 1.4-.3 1.11-.8 1.51-.91 1.28-.65.64-.94-.31-.36.23-.1.85.11.43-.35zM10.34 20.67l.4-.72v.52l-.18.39-.22-.19zm-1.38-.43l.18.08-.07.23-.11-.31z"/>
    <path fill="#FFF" d="M62.61 54.58c-.32-.42-.78-.65-1.79-.65-.28 0-.53.03-.76.08l-.35.13-.03 3.8c0 .4-.34.72-.74.72a.73.73 0 01-.73-.73l.04-4.07c.04-1.27-.15-1.82-.4-2.08-.24-.26-.72-.45-1.83-.45-.88 0-1.52.28-1.87.73l-.11.1-.04 3.8c0 .4-.34.73-.74.72a.73.73 0 01-.73-.73l.04-4.06c.04-1.27-.15-1.82-.4-2.09-.24-.26-.72-.44-1.82-.44-.66 0-1.19.16-1.56.43l-.3.28v6.01c0 .4-.34.73-.75.72a.73.73 0 01-.73-.72l.04-14.25c.05-1.28-.15-1.82-.4-2.1-.24-.25-.72-.43-1.83-.43-.74 0-1.32.2-1.7.54-.35.32-.6.85-.55 1.7v20.7c0 .4-.33.72-.73.72a.73.73 0 01-.74-.72v-4.72l-.44.05c-3.91.78-3.57 4.81-1.78 7.51 2.23 3.35 5.06 6.96 5.96 11.45l.17 1.3 13.42.06.1-.47c1.28-5.6 6.11-12.95 5.04-19.83-.28-1.6-.56-2.5-.95-3.01"/>
    <path fill="#000" d="M58.52 77.41l-.09.48-13.41-.06-.18-1.3c-.9-4.5-3.73-8.1-5.96-11.44-1.79-2.7-2.13-6.74 1.78-7.51l.44-.06v4.72c0 .4.33.72.74.72.4 0 .73-.32.73-.72v-20.7c-.05-.85.2-1.38.56-1.7.37-.34.95-.55 1.7-.55 1.1 0 1.58.19 1.82.44.26.27.45.82.4 2.1l-.04 14.25c0 .4.33.72.73.72.41 0 .74-.32.74-.72l.02-6.01.3-.28c.36-.27.89-.43 1.54-.43 1.11 0 1.59.18 1.83.44.25.27.44.82.4 2.1l-.04 4.06c0 .4.32.72.73.73.4 0 .74-.32.74-.72l.04-3.81.11-.1c.36-.45 1-.72 1.87-.72 1.11 0 1.59.18 1.83.44.25.27.44.81.4 2.09l-.04 4.06c0 .4.32.72.73.73.4 0 .73-.32.74-.72l.03-3.8.35-.13c.23-.05.49-.08.77-.08 1 0 1.46.23 1.78.65.4.51.68 1.4.96 3 1.07 6.89-3.76 14.23-5.05 19.83m2.3-24.93c-.37 0-.74.04-1.1.12l-.06.02-.07-.49a2.8 2.8 0 00-.66-1.33c-.7-.74-1.75-.91-2.91-.91-.58 0-1.16.1-1.68.3l-.39.21-.03-.24a2.8 2.8 0 00-.67-1.34c-.7-.74-1.74-.9-2.9-.9-.59 0-1.17.1-1.69.3l-.16.08.02-6.45c.05-1.29-.1-2.37-.79-3.1-.7-.73-1.74-.9-2.9-.9-1 0-1.99.27-2.7.93-.65.59-1 1.41-1.03 2.41V56.06l-.74.1c-4.87.96-5.2 5.98-2.7 9.71 2.65 4 5.67 7.77 5.98 12.72.02.38.34.68.73.68l14.67.06c.37 0 .68-.26.73-.62.77-5.34 6.46-13.54 5.25-21.35-.57-3.23-1.33-4.88-4.2-4.88"/>
  </g>
</svg>
