<?xml version="1.0" encoding="UTF-8"?>
<svg width="81px" height="81px" viewBox="0 0 81 81" version="1.1" xmlns="http://www.w3.org/2000/svg" xmlns:xlink="http://www.w3.org/1999/xlink">
    <!-- Generator: Sketch 60.1 (88133) - https://sketch.com -->
    <title>Group 4</title>
    <desc>Created with Sketch.</desc>
    <g id="Desktop" stroke="none" stroke-width="1" fill="none" fill-rule="evenodd">
        <g id="Methods-and-data-sharing" transform="translate(-51.000000, -2112.000000)">
            <g id="Group-4" transform="translate(51.000000, 2112.000000)">
                <rect id="Rectangle" fill="#141923" x="0" y="0" width="81" height="81"></rect>
                <g id="noun_Globe_527382" transform="translate(14.000000, 14.000000)" fill="#FFFFFF" fill-rule="nonzero">
                    <path d="M52.5859375,26.2929687 C52.5859375,19.4195312 49.9773438,12.9808594 45.2259766,8.07421875 L45.2363281,8.06386719 L44.6152344,7.453125 C39.6878906,2.65 33.1767578,0 26.2929688,0 C25.4337891,0 24.5746094,0.04140625 23.7257813,0.12421875 C17.8046875,0.693554687 12.2873047,3.25039062 7.97070312,7.453125 C7.97070312,7.453125 7.97070312,7.453125 7.97070312,7.453125 L7.97070312,7.453125 L7.34960938,8.06386719 L7.35996094,8.07421875 C2.60859375,12.9808594 0,19.4195312 0,26.2929687 C0,33.1664062 2.60859375,39.6050781 7.35996094,44.5117187 L7.34960938,44.5220703 L7.97070312,45.1328125 C12.8773437,49.9152344 19.3470703,52.5548828 26.1894531,52.5755859 C26.2205078,52.5755859 26.2619141,52.5755859 26.2929688,52.5755859 C26.3240234,52.5755859 26.3654297,52.5755859 26.3964844,52.5755859 C27.2246094,52.5755859 28.0423828,52.5341797 28.8498047,52.4513672 C34.78125,51.8923828 40.2986328,49.3355469 44.6152344,45.1328125 C44.6152344,45.1328125 44.6152344,45.1328125 44.6152344,45.1328125 C44.6152344,45.1328125 44.6152344,45.1328125 44.6152344,45.1328125 L45.2363281,44.5220703 L45.2259766,44.5117187 C49.9773438,39.6050781 52.5859375,33.1664062 52.5859375,26.2929687 Z M42.6587891,44.6359375 C42.5242188,44.7498047 42.3896484,44.8636719 42.2654297,44.9775391 C42.0998047,45.1121094 41.9445312,45.2570312 41.7685547,45.3916016 C41.6339844,45.5054687 41.4890625,45.6089844 41.3441406,45.7228516 C41.1785156,45.8470703 41.0128906,45.9816406 40.8472656,46.1058594 C40.7023437,46.209375 40.5574219,46.3128906 40.4125,46.4164062 C40.246875,46.540625 40.0708984,46.6544922 39.9052734,46.7683594 C39.75,46.871875 39.6050781,46.9650391 39.4498047,47.0582031 C39.2738281,47.1720703 39.1082031,47.2755859 38.9322266,47.3791016 C38.7769531,47.4722656 38.6216797,47.5654297 38.4664062,47.6482422 C38.2904297,47.7517578 38.1144531,47.8449219 37.928125,47.9484375 C37.7728516,48.03125 37.6072266,48.1140625 37.4519531,48.196875 C37.265625,48.2900391 37.0896484,48.3832031 36.9033203,48.4660156 C36.7376953,48.5384766 36.5824219,48.6212891 36.4167969,48.69375 C36.2304687,48.7765625 36.0441406,48.859375 35.8578125,48.9421875 C35.6921875,49.0146484 35.5265625,49.0767578 35.3609375,49.1492187 C35.1746094,49.2216797 34.9779297,49.2941406 34.78125,49.3666016 C34.615625,49.4287109 34.45,49.4908203 34.284375,49.5425781 C34.0876953,49.6046875 33.8910156,49.6771484 33.6943359,49.7392578 C33.5287109,49.7910156 33.3630859,49.8427734 33.1871094,49.8945312 C33.1042969,49.9152344 33.0111328,49.9462891 32.9283203,49.9669922 C35.2470703,48.03125 37.2449219,45.1121094 38.7355469,41.5201172 C40.1744141,42.3689453 41.5408203,43.3626953 42.8037109,44.5013672 C42.7416016,44.5634766 42.7001953,44.5945312 42.6587891,44.6359375 Z M18.9019531,49.7496094 C18.7052734,49.6875 18.4982422,49.6253906 18.3015625,49.5529297 C18.1359375,49.4908203 17.9703125,49.4390625 17.8046875,49.3769531 C17.6080078,49.3044922 17.4113281,49.2320312 17.225,49.1595703 C17.059375,49.0974609 16.89375,49.025 16.7384766,48.9525391 C16.5521484,48.8697266 16.3554688,48.7869141 16.1691406,48.7041016 C16.0035156,48.6316406 15.8482422,48.5591797 15.6929687,48.4763672 C15.5066406,48.3832031 15.3203125,48.2900391 15.1339844,48.196875 C14.9787109,48.1140625 14.8234375,48.03125 14.6681641,47.9484375 C14.4818359,47.8449219 14.3058594,47.7517578 14.1195312,47.6482422 C13.9642578,47.5654297 13.8089844,47.4722656 13.6640625,47.3791016 C13.4880859,47.2755859 13.3121094,47.1617187 13.1257812,47.0478516 C12.9808594,46.9546875 12.8255859,46.8615234 12.6806641,46.7580078 C12.5046875,46.6441406 12.3287109,46.5199219 12.1527344,46.3957031 C12.0078125,46.2921875 11.8628906,46.1990234 11.7283203,46.0955078 C11.5523437,45.9712891 11.3867187,45.8367188 11.2107422,45.7021484 C11.0761719,45.5986328 10.9416016,45.4847656 10.8070312,45.38125 C10.6414062,45.2466797 10.4757812,45.1017578 10.2998047,44.9568359 C10.1652344,44.8429687 10.0410156,44.7394531 9.90644531,44.6152344 C9.86503906,44.5738281 9.82363281,44.5427734 9.78222656,44.5013672 C11.0451172,43.3626953 12.4115234,42.3585937 13.8503906,41.5201172 C15.3410156,45.1017578 17.3285156,48.03125 19.6576172,49.9669922 C19.5644531,49.9462891 19.4816406,49.9255859 19.3884766,49.8945312 C19.2435547,49.8634766 19.0675781,49.8117187 18.9019531,49.7496094 Z M9.92714844,7.95 C10.0617187,7.83613281 10.1962891,7.72226562 10.3205078,7.60839844 C10.4861328,7.47382812 10.6414062,7.32890625 10.8173828,7.19433594 C10.9519531,7.08046875 11.096875,6.97695312 11.2417969,6.86308594 C11.4074219,6.73886719 11.5730469,6.60429687 11.7386719,6.48007812 C11.8835937,6.3765625 12.0285156,6.27304687 12.1734375,6.16953125 C12.3390625,6.0453125 12.5150391,5.93144531 12.6806641,5.81757812 C12.8359375,5.7140625 12.9808594,5.62089844 13.1361328,5.52773437 C13.3121094,5.41386719 13.4777344,5.31035156 13.6537109,5.20683594 C13.8089844,5.11367187 13.9642578,5.02050781 14.1195312,4.93769531 C14.2955078,4.83417969 14.4714844,4.74101562 14.6578125,4.6375 C14.8130859,4.5546875 14.9787109,4.471875 15.1339844,4.3890625 C15.3203125,4.29589844 15.4962891,4.20273437 15.6826172,4.11992187 C15.8482422,4.04746094 16.0035156,3.96464844 16.1691406,3.8921875 C16.3554688,3.809375 16.5417969,3.7265625 16.728125,3.64375 C16.89375,3.57128906 17.059375,3.50917969 17.225,3.43671875 C17.4113281,3.36425781 17.6080078,3.29179687 17.8046875,3.21933594 C17.9703125,3.15722656 18.1359375,3.09511719 18.3015625,3.04335937 C18.4982422,2.98125 18.6949219,2.90878906 18.8916016,2.84667969 C19.0572266,2.79492187 19.2228516,2.74316406 19.3988281,2.69140625 C19.4919922,2.66035156 19.5748047,2.63964844 19.6679688,2.61894531 C17.3388672,4.5546875 15.3513672,7.47382812 13.8607422,11.0658203 C12.421875,10.2169922 11.0554687,9.22324219 9.79257812,8.08457031 C9.84433594,8.02246094 9.88574219,7.98105469 9.92714844,7.95 Z M33.6839844,2.82597656 C33.8806641,2.88808594 34.0876953,2.95019531 34.284375,3.02265625 C34.45,3.08476562 34.615625,3.13652344 34.78125,3.19863281 C34.9779297,3.27109375 35.1746094,3.34355469 35.3609375,3.41601562 C35.5265625,3.478125 35.6921875,3.55058594 35.8474609,3.62304687 C36.0337891,3.70585937 36.2304688,3.78867187 36.4167969,3.87148437 C36.5824219,3.94394531 36.7376953,4.01640625 36.8929688,4.09921875 C37.0792969,4.19238281 37.265625,4.27519531 37.4519531,4.37871094 C37.6072266,4.46152344 37.7625,4.54433594 37.9177734,4.62714844 C38.1041016,4.73066406 38.2800781,4.82382812 38.4664062,4.92734375 C38.6216797,5.01015625 38.7769531,5.10332031 38.921875,5.19648437 C39.0978516,5.3 39.2738281,5.41386719 39.4498047,5.52773437 C39.5947266,5.62089844 39.75,5.7140625 39.8949219,5.81757812 C40.0708984,5.93144531 40.246875,6.05566406 40.4125,6.17988281 C40.5574219,6.28339844 40.7023437,6.38691406 40.8369141,6.49042969 C41.0128906,6.61464844 41.1785156,6.74921875 41.3441406,6.88378906 C41.4787109,6.98730469 41.6236328,7.10117187 41.7582031,7.21503906 C41.9238281,7.34960937 42.0894531,7.49453125 42.2550781,7.62910156 C42.3896484,7.74296875 42.5242187,7.85683594 42.6484375,7.97070312 C42.6898437,8.01210937 42.73125,8.04316406 42.7726562,8.08457031 C41.5097656,9.22324219 40.1433594,10.2273437 38.7044922,11.0658203 C37.2138672,7.47382812 35.2160156,4.5546875 32.8972656,2.61894531 C32.9904297,2.63964844 33.0732422,2.67070312 33.1664063,2.69140625 C33.3527344,2.72246094 33.5183594,2.77421875 33.6839844,2.82597656 Z M41.5511719,25.4441406 C41.4683594,20.7755859 40.6712891,16.396875 39.3462891,12.6496094 C41.0025391,11.6972656 42.565625,10.5585938 44.0044922,9.24394531 C48.2589844,13.6330078 50.6708984,19.3367187 50.8675781,25.4544922 L41.5511719,25.4544922 L41.5511719,25.4441406 Z M27.1417969,1.74941406 C31.2927734,2.21523438 34.946875,6.08671875 37.265625,11.8421875 C34.1394531,13.4052734 30.7027344,14.2748047 27.1417969,14.3990234 L27.1417969,1.74941406 Z M25.4441406,1.74941406 L25.4441406,14.3990234 C21.8832031,14.2748047 18.4464844,13.4052734 15.3203125,11.8421875 C17.6390625,6.08671875 21.2931641,2.21523438 25.4441406,1.74941406 Z M25.4441406,16.0966797 L25.4441406,25.4441406 L12.7324219,25.4441406 C12.8152344,21.0550781 13.5294922,16.9558594 14.7302734,13.4363281 C18.0427734,15.0615234 21.6761719,15.9724609 25.4441406,16.0966797 Z M25.4441406,27.1417969 L25.4441406,36.4892578 C21.6761719,36.6134766 18.0427734,37.5244141 14.7302734,39.1496094 C13.5398437,35.6300781 12.8152344,31.5308594 12.7324219,27.1417969 L25.4441406,27.1417969 Z M25.4441406,38.1869141 L25.4441406,50.8365234 C21.2828125,50.3707031 17.6287109,46.4992187 15.3203125,40.74375 C18.4464844,39.1806641 21.8832031,38.3007812 25.4441406,38.1869141 Z M27.1417969,38.1869141 C30.7027344,38.3111328 34.1394531,39.1806641 37.265625,40.74375 C34.9572266,46.4992187 31.303125,50.3707031 27.1417969,50.8365234 L27.1417969,38.1869141 Z M27.1417969,36.4892578 L27.1417969,27.1417969 L39.8535156,27.1417969 C39.7707031,31.5308594 39.0564453,35.6300781 37.8556641,39.1496094 C34.5431641,37.5244141 30.9097656,36.6134766 27.1417969,36.4892578 Z M27.1417969,25.4441406 L27.1417969,16.0966797 C30.9097656,15.9724609 34.5431641,15.0615234 37.8556641,13.4363281 C39.0460937,16.9558594 39.7707031,21.0550781 39.8535156,25.4441406 L27.1417969,25.4441406 Z M13.25,12.6496094 C11.925,16.4072266 11.1279297,20.7755859 11.0451172,25.4441406 L1.71835938,25.4441406 C1.92539063,19.3263672 4.33730469,13.6330078 8.58144531,9.23359375 C10.0306641,10.5585938 11.5833984,11.6972656 13.25,12.6496094 Z M11.0451172,27.1417969 C11.1279297,31.8103516 11.925,36.1787109 13.25,39.9363281 C11.59375,40.8886719 10.0306641,42.0273437 8.59179688,43.3419922 C4.34765625,38.9529297 1.92539062,33.2595703 1.72871094,27.1417969 L11.0451172,27.1417969 L11.0451172,27.1417969 Z M39.3359375,39.9363281 C40.6609375,36.1787109 41.4580078,31.8103516 41.5408203,27.1417969 L50.8572266,27.1417969 C50.6501953,33.2595703 48.2382812,38.9529297 43.9941406,43.3419922 C42.565625,42.0273437 41.0025391,40.8886719 39.3359375,39.9363281 Z" id="Shape"></path>
                </g>
            </g>
        </g>
    </g>
</svg>