<?xml version="1.0" encoding="UTF-8"?>
<svg width="1em" height="1em" viewBox="0 0 81 81" version="1.1" xmlns="http://www.w3.org/2000/svg" xmlns:xlink="http://www.w3.org/1999/xlink">
    <!-- Generator: Sketch 60.1 (88133) - https://sketch.com -->
    <title>Group 6</title>
    <desc>Created with Sketch.</desc>
    <g id="Desktop" stroke="none" stroke-width="1" fill="none" fill-rule="evenodd">
        <g id="Methods-and-data-sharing" transform="translate(-51.000000, -1918.000000)">
            <g id="Group-6" transform="translate(51.000000, 1918.000000)">
                <g id="Group-5">
                    <rect id="Rectangle" fill="#141923" x="0" y="0" width="81" height="81"></rect>
                    <g id="noun_Location_3505554" transform="translate(20.000000, 11.000000)" fill="#FFFFFF" fill-rule="nonzero">
                        <path d="M20.8613512,2.67863334 C10.8147185,2.67863334 2.67863334,10.8147185 2.67863334,20.8613512 C2.67863334,32.9028978 12.4739244,46.375158 20.2813321,54.8803462 C20.6574657,55.2564797 21.0652366,55.2564797 21.4413702,54.8803462 C29.2487779,46.375158 39.044069,32.9028978 39.044069,20.8613512 C39.044069,10.8147185 30.9079838,2.67863334 20.8613512,2.67863334 Z M20.8613512,0 C32.379123,0 41.7227023,9.3435793 41.7227023,20.8613512 C41.7227023,33.6868023 31.6989189,47.6635033 23.3694941,56.7311342 C21.8948396,58.2057886 19.8278627,58.2057886 18.3532083,56.7311342 C10.0237834,47.6635033 0,33.6868023 0,20.8613512 C0,9.3435793 9.3435793,0 20.8613512,0 Z" id="Shape"></path>
                    </g>
                </g>
                <g id="school-location" transform="translate(21.000000, 11.000000)" fill="#FFFFFF" fill-rule="nonzero">
                    <path d="M27.2967158,35.9887651 L14.7836584,35.9887651 C12.1971605,35.9887651 10.1,33.8916047 10.1,31.3051068 L10.1,17.6036584 C10.1,15.0171605 12.1971605,12.92 14.7836584,12.92 L27.2268105,12.92 C27.7860533,12.92 28.2753907,13.4093374 28.2753907,13.9685802 C28.2753907,14.527823 27.7860533,15.0171605 27.2268105,15.0171605 L14.7836584,15.0171605 C13.3855514,15.0171605 12.1971605,16.2055514 12.1971605,17.6036584 L12.1971605,17.6036584 C12.1971605,19.0716707 13.3855514,20.1901563 14.7836584,20.1901563 L27.2268105,20.1901563 C27.7860533,20.1901563 28.2753907,20.6794937 28.2753907,21.2387365 L28.2753907,34.9401849 C28.3452961,35.5693331 27.8559586,35.9887651 27.2967158,35.9887651 Z M12.1971605,21.5183579 L12.1971605,31.3051068 C12.1971605,32.7032137 13.3855514,33.8916047 14.7836584,33.8916047 L26.1782303,33.8916047 L26.1782303,22.2873168 L14.8535637,22.2873168 C13.8748888,22.2873168 12.9661193,22.0076954 12.1971605,21.5183579 Z" id="Shape"></path>
                    <path d="M26.7885714,18.6371429 L15.1314286,18.6371429 C14.6133333,18.6371429 14.16,18.2504762 14.16,17.8085714 C14.16,17.3666667 14.6133333,16.98 15.1314286,16.98 L26.7885714,16.98 C27.3066667,16.98 27.76,17.3666667 27.76,17.8085714 C27.76,18.2504762 27.3066667,18.6371429 26.7885714,18.6371429 Z" id="Path"></path>
                </g>
            </g>
        </g>
    </g>
</svg>
