<svg
  width="15"
  height="15"
  viewBox="0 0 15 15"
  fill="none"
  xmlns="http://www.w3.org/2000/svg"
>
  <path
    fillRule="evenodd"
    clipRule="evenodd"
    d="M0 5.91986C0 2.65975 2.65978 0 5.91987 0C9.17994 0 11.8397 2.65975 11.8397 5.91986C11.8397 7.2663 11.3872 8.51222 10.6249 9.50877L14.7688 13.6527C15.0771 13.9609 15.0771 14.4606 14.7688 14.7688C14.4606 15.0771 13.9547 15.077 13.6465 14.7688L9.50878 10.6249C8.51213 11.3875 7.26659 11.8397 5.91987 11.8397C2.65978 11.8397 0 9.17994 0 5.91986ZM10.2611 5.91986C10.2611 3.51292 8.32676 1.57863 5.91987 1.57863C3.51294 1.57863 1.57863 3.51292 1.57863 5.91986C1.57863 8.32675 3.51294 10.2611 5.91987 10.2611C8.32676 10.2611 10.2611 8.32675 10.2611 5.91986Z"
    fill="white"
  />
</svg>