<svg xmlns="http://www.w3.org/2000/svg" width="90" height="48" viewBox="0 0 90 48">
  <g fill="#FFF" fill-rule="evenodd">
    <path d="M82.38 14.82c-1.12-.6-1.14-1.45-1.08-1.76.06-.32.28-.18.41-.18.74 0 1.5-.21 2.45-1.18a3.69 3.69 0 00-.24-5.07c-1.77-1.7-3.65-1.4-4.86.12-.25.31-.86.54-1.38.52-.78-.03-.29.59-.29.71 0 .13-.12.22-.19.2-.26-.08-.15.31-.15.43s-.11.18-.17.18c-.33 0-.24.3-.23.37.01.08-.02.22-.13.28-.1.06-.22.31-.22.51 0 .35.32.6.87 1 .54.4.6.8.62 1.07 0 .27.03.72.16 1.01.14.35.12 1-.63 1.03-.91.04-2.54.77-2.68.82-.52.18-1.2.25-1.74.11-.28-.2-.56-.42-.82-.66-.1-.37.08-.76.27-1.03.3.31.76.29 1.01.3.26.01 1.51-.19 1.7-.25.17-.06.25-.04.36 0 .48.18 1.13.23 1.4-.68.27-.92-.37-.66-.44-.62-.08.04-.2.03-.15-.05.11-.24-.06-.21-.16-.22-.26-.03-.6.25-.7.34-.11.1-.22.1-.26.07-.34-.17-1.35.08-1.67-.47.03-.15-.25-2.37-.4-2.75a.38.38 0 01.04-.37c.26-.38.97.03 1.35.02.46-.01.54-.2.66-.36.12-.15.21-.06.28-.1.08-.06 0-.17.03-.23.03-.05.07-.03.15-.1.07-.06-.02-.21.02-.27.12-.17.43-.03.24-.48-.1-.25.04-.51.18-.69.22-.29 1.09-1.5-.43-2.75-1.46-1.2-2.93-1.1-3.87-.08-.95 1.02-.48 2.52-.38 2.9.1.4-.18.76-.51.91a7.4 7.4 0 00-1.3.9 7.95 7.95 0 015.02-7.23c.13.16.27.31.43.45-.34.25-1.06.9-1.06.9a2.47 2.47 0 00.39.09s.64-.55.94-.76c.23.18.5.32.76.44l-.5.93a4 4 0 00.28.2s.4-.75.55-1c.33.11.68.18 1.03.2v1.36c-.2 0-.7-.02-.9-.04l-.13-.02.07.11.14.23.01.03h.03l.78.04v2.5h.35v-.58c.51-.02.94-.06 1.45-.1h.02l.45-.4-.24.02c-.55.07-1.02.1-1.45.13l-.23.01V4.2c.63 0 1.26-.1 1.88-.26.17.42.48 1.42.48 1.42l.33-.1s-.32-1-.48-1.41a8.14 8.14 0 001.5-.64c.38.47.72.99.99 1.53-.25.12-.7.28-.7.28.36.04.64.12.64.12l.2-.09.1.22.45.2-.05-.13-.19-.44c.48-.23.95-.5 1.4-.8a7.94 7.94 0 01-1.86 10.73zM76.65.52c-.5.21-.97.47-1.42.77a4.09 4.09 0 01-.37-.37c.58-.2 1.18-.34 1.79-.4zm-.49 1.35c-.23-.1-.44-.22-.64-.36.45-.3.94-.55 1.44-.76-.28.36-.55.73-.8 1.12zM77.34.82v1.32a3.55 3.55 0 01-.85-.15c.26-.4.55-.8.85-1.17zm.35 1.66c.36-.01.71-.08 1.05-.19.26.42.49.87.69 1.33a7.7 7.7 0 01-1.74.23V2.48zm0-1.67c.31.37.6.76.87 1.18a3.5 3.5 0 01-.87.15V.8zm1.84.7c-.2.15-.42.27-.64.36-.24-.38-.52-.76-.8-1.12.5.2.98.46 1.44.76zm.65-.6c-.1.14-.23.27-.37.38-.44-.3-.9-.56-1.4-.77.61.07 1.2.2 1.77.4zm1 2.03c-.46.24-.93.43-1.42.58-.2-.46-.43-.92-.7-1.36.28-.11.53-.26.77-.44.49.35.94.76 1.34 1.22zm-.66-1.9a8 8 0 011.88 1.08c-.29.23-.6.45-.92.64-.41-.47-.88-.9-1.38-1.26.15-.14.3-.3.42-.46zm3.52 2.77c-.42.29-.88.55-1.34.78a8.69 8.69 0 00-1-1.56c.34-.21.67-.44.97-.7.52.44.98.93 1.37 1.48zM77.52.13a8.36 8.36 0 00-8.36 8.33 8.36 8.36 0 0016.72 0c0-4.6-3.75-8.33-8.36-8.33zM68.4 2.34l-.13.12c-.49.43-1.6 1.57-1.44 2.82l.02.1.06.24.15-.14a5.16 5.16 0 001.41-2.91l.06-.35-.13.12M66.13 4.5l-.06.16c-.08.2-.22.65-.3 1.23-.1.83-.08 2 .65 2.87l.07.1.09.11.1-.53c.12-.94-.03-2.9-.38-3.79l-.12-.3-.05.16M65.3 7.9l-.01.15c-.06.84-.02 2.92 1.67 4.02l.2.13-.01-.24c-.03-.79-.95-3.14-1.65-3.99l-.2-.23v.15M65.59 11.6l.03.15c.24 1.2 1.38 3.13 3.13 3.7l.24.07-.08-.24c-.33-.89-2.02-2.97-3.1-3.66l-.25-.15.03.14M69.11 4.14l-.14.08c-1.3.8-1.91 1.76-1.87 2.95l.01.27.2-.16a7.8 7.8 0 001.85-2.92l.09-.3-.14.08M68.34 6.74l-.1.1c-.33.31-1.41 1.46-1.32 2.88.02.22.07.45.15.7l.08.22.14-.2a8.08 8.08 0 001.16-3.52v-.27l-.1.1M68.4 9.2l-.07.11a4.2 4.2 0 00-.81 2.4c.01.57.2 1.11.54 1.61l.11.17.1-.18a8.59 8.59 0 00.28-3.96l-.08-.25-.07.1M69.03 11.84l-.03.11a4.68 4.68 0 00-.23 1.53c.03 1.1.52 1.96 1.46 2.56l.15.1.04-.22.01-.16c-.02-.9-.7-3.15-1.22-3.84l-.14-.2-.04.12M67.2 15.33l.06.12c.7 1.17 1.9 2.69 4.13 2.3l.19-.03-.11-.16c-.42-.62-3.13-2.14-4.09-2.3l-.26-.04.07.11zM70.5 18.32l-.36.1.34.13c1.42.58 3.2.75 4.23.4.39-.13.62-.34.91-.62 1.82.19 3.52 1.7 4.51 2.92l.06.06.07-.02c.11-.04.29-.17.36-.25l.07-.07-.06-.09a8.98 8.98 0 00-2.73-2.21c-1.46-.71-4.03-1.26-7.4-.35"/>
    <path d="M70.57 14.56l.02.11c.21 1.34.76 3.09 3.01 2.9l.15-.02-.04-.14c-.15-.6-2.22-2.37-2.94-2.86l-.22-.11.02.12M86.54 2.22l.06.35a5.16 5.16 0 001.41 2.9l.16.15.05-.25.02-.09c.17-1.25-.95-2.4-1.44-2.82l-.13-.12-.13-.12M88.9 4.36l-.13.3c-.34.87-.5 2.84-.38 3.78l.1.53.09-.1.08-.1c.72-.88.75-2.05.64-2.88a5.77 5.77 0 00-.3-1.23l-.05-.15-.06-.15M89.77 7.74l-.2.23c-.7.85-1.62 3.2-1.64 4l-.01.23.2-.13c1.68-1.1 1.73-3.18 1.67-4.02l-.01-.16-.01-.15M89.52 11.47l-.25.15a10.87 10.87 0 00-3.1 3.66l-.1.24.25-.08c1.75-.56 2.9-2.5 3.14-3.69l.03-.14.03-.14M85.9 4.02l.08.3c.24.86 1.1 2.36 1.8 2.96l.18.16.02-.27c.07-1.19-.53-2.16-1.82-2.98l-.13-.09-.14-.08M86.63 6.65v.27c-.04.89.64 2.8 1.16 3.53l.14.2.08-.23c.08-.25.13-.48.14-.7.1-1.42-.99-2.57-1.32-2.89l-.1-.09-.1-.1M86.6 9.1l-.07.25a8.6 8.6 0 00.28 3.97l.1.17.1-.17c.35-.5.53-1.04.54-1.6.02-.77-.26-1.6-.8-2.4l-.07-.11-.08-.11M86 11.73l-.14.19c-.52.69-1.2 2.94-1.22 3.84l.02.16.03.22.16-.1a2.99 2.99 0 001.45-2.56c.02-.49-.06-1-.22-1.53l-.04-.11-.04-.11M87.95 15.22l-.26.04c-.96.16-3.67 1.68-4.09 2.3l-.1.16.18.03c2.24.39 3.43-1.13 4.14-2.3l.06-.12.07-.11zM77.18 18.67c-.08.03-1.7.87-2.73 2.21l-.06.09.07.07c.07.08.24.21.35.25l.08.02.05-.06c1-1.23 2.7-2.73 4.51-2.92.29.28.52.5.91.62 1.03.35 2.81.18 4.24-.4l.33-.14-.35-.1c-3.37-.9-5.95-.35-7.4.36M84.52 14.44l-.21.1c-.73.5-2.8 2.26-2.95 2.87l-.03.14.14.01c2.26.2 2.8-1.55 3.02-2.89l.02-.11.01-.12M26.96 18.9h2.4V6.26h-2.4V18.9zm-.22-15.6h2.85V.72h-2.85v2.6zM8.84 6.27h2.4V18.9H8.9v-1.86h-.05c-.96 1.58-2.58 2.24-4.35 2.24-2.65 0-4.17-2.02-4.17-4.56V6.27h2.4v7.48c0 2.19.51 3.8 2.8 3.8 1 0 2.33-.5 2.84-1.81.45-1.19.48-2.67.48-2.97v-6.5M16.03 8.13h.05a4.4 4.4 0 013.85-2.24c.88 0 4.8.23 4.8 4.28v8.74h-2.4v-7.96c0-2.09-.89-3.22-2.91-3.22 0 0-1.31-.08-2.32.93-.36.35-1.02.9-1.02 3.38v6.87h-2.4V6.27h2.35v1.86M39.42 10.32c-.13-1.57-.88-2.67-2.59-2.67-2.28 0-3.16 1.97-3.16 4.92 0 2.96.88 4.94 3.16 4.94 1.58 0 2.56-1.03 2.68-2.83h2.4c-.21 2.83-2.32 4.55-5.1 4.55-4.05 0-5.65-2.85-5.65-6.56C31.16 9 33 5.92 37 5.92c2.66 0 4.67 1.68 4.79 4.4h-2.38M51.86 11.37c.05-2.1-.9-3.72-3.21-3.72-1.99 0-3.16 1.67-3.16 3.72h6.37zm-6.37 1.65c-.18 2.2.72 4.49 3.16 4.49 1.86 0 2.78-.73 3.06-2.56h2.51c-.38 2.86-2.58 4.28-5.6 4.28-4.04 0-5.65-2.85-5.65-6.56 0-3.68 1.86-6.75 5.85-6.75 3.77.07 5.55 2.45 5.55 5.93v1.17H45.5zM57.07 18.86V7.95H54.9V6.29h2.17V3.6C57.15.84 59.23.11 61.02.11c.57 0 1.13.15 1.7.25v1.98c-.4-.02-.8-.08-1.2-.08-1.36 0-2.14.36-2.06 1.73v2.3h2.91v1.66h-2.91v10.9h-2.39M.27 28.05h88.64v-.48H.27zM1.75 44.78v-7.1H.13v-.88h1.62v-1.7c0-1.37.55-1.99 1.93-1.99.3 0 .62.11.9.18v.76a3.7 3.7 0 00-.59-.06c-1.3 0-1.34.65-1.29 1.8v1h1.82v.88H2.7v7.1h-.95M8.61 37.44c-1.93 0-2.7 1.87-2.7 3.35s.77 3.35 2.7 3.35c1.93 0 2.7-1.87 2.7-3.35s-.77-3.35-2.7-3.35zm3.73 3.35c0 2.1-1.18 4.23-3.73 4.23s-3.73-2.13-3.73-4.23c0-2.1 1.18-4.23 3.73-4.23s3.73 2.13 3.73 4.23zM14.7 44.78h-.96V38.6c.01-.62-.05-1.26-.08-1.8h.99l.04 1.18h.03c.3-.82 1-1.39 1.8-1.42.33-.01.64 0 .96.02v.92c-.19-.02-.4-.06-.59-.06-1.42 0-2.17 1.01-2.2 2.54v4.8M27.28 40.14c-.12-1.54-.95-2.7-2.6-2.7-1.57 0-2.4 1.3-2.52 2.7h5.12zm-5.16.87c.04 1.7.82 3.13 2.78 3.13 1.13 0 2.07-.8 2.31-1.9h1c-.49 1.9-1.68 2.78-3.61 2.78-2.4 0-3.51-2.05-3.51-4.23 0-2.16 1.2-4.23 3.57-4.23 2.68 0 3.65 1.96 3.65 4.45h-6.19zM29.6 36.8l2.76 6.66 2.67-6.66h1.05l-3.18 7.98h-1.08l-3.27-7.98h1.05M42.46 40.14c-.1-1.54-.94-2.7-2.6-2.7-1.56 0-2.39 1.3-2.51 2.7h5.11zm-5.15.87c.04 1.7.82 3.13 2.78 3.13 1.13 0 2.07-.8 2.31-1.9h1c-.49 1.9-1.68 2.78-3.61 2.78-2.4 0-3.51-2.05-3.51-4.23 0-2.16 1.2-4.23 3.57-4.23 2.68 0 3.65 1.96 3.65 4.45h-6.19zM45.95 44.78h-.96V38.6c.02-.62-.05-1.26-.08-1.8h.99l.05 1.18h.03c.29-.82 1-1.39 1.8-1.42.32-.01.64 0 .96.02v.92c-.2-.02-.4-.06-.6-.06-1.41 0-2.16 1.01-2.2 2.54v4.8M50.8 36.8l2.69 6.68 2.68-6.68h1.04l-4.42 11.03h-1.05l1.21-3.05-3.32-7.98h1.17M66.33 39.25c-.08-1.23-.86-1.81-2.19-1.81-1.46 0-2.37 1.52-2.37 3.33 0 1.83.9 3.37 2.37 3.37 1.25 0 2.1-.76 2.19-1.86h1.03c-.25 1.83-1.3 2.74-3.12 2.74-2.4 0-3.51-2.05-3.51-4.23 0-2.16 1.2-4.23 3.57-4.23 1.64 0 2.98.99 3.06 2.69h-1.03M69.66 38h.03a2.75 2.75 0 012.5-1.44c2.62 0 2.83 2.3 2.83 3.23v4.99h-.96v-5.15c0-1.38-.8-2.2-2.1-2.2-1.59 0-2.3 1.32-2.3 2.75v4.6h-.96V33.3h.96V38M76.63 44.78h.95V36.8h-.95v7.98zm-.08-10.29h1.11V33.3h-1.11v1.2zM79.46 44.78h.96V33.3h-.96zM85.34 37.44c-1.82 0-2.41 1.68-2.41 3.2 0 1.48.43 3.5 2.26 3.5 2.1 0 2.73-1.73 2.73-3.54 0-1.62-.72-3.16-2.58-3.16zm2.61 6.16l-.03-.06a3.25 3.25 0 01-2.74 1.48c-2.38 0-3.29-2.26-3.29-4.26 0-2.07.91-4.2 3.29-4.2 1.07 0 2.18.5 2.74 1.45l.03-.03V33.3h.96v9.68c0 .62.05 1.26.08 1.8H88l-.05-1.18z"/>
  </g>
</svg>
