<?xml version="1.0" encoding="UTF-8"?>
<svg width="90px" height="48px" viewBox="0 0 90 48" version="1.1" xmlns="http://www.w3.org/2000/svg" xmlns:xlink="http://www.w3.org/1999/xlink">
    <!-- Generator: Sketch 60.1 (88133) - https://sketch.com -->
    <title>UNICEF_ForEveryChild_Black_Vertical_RGB_ENG Copy</title>
    <desc>Created with Sketch.</desc>
    <g id="Desktop" stroke="none" stroke-width="1" fill="none" fill-rule="evenodd">
        <g id="About" transform="translate(-316.000000, -4686.000000)" fill="#FFFFFF">
            <g id="UNICEF_ForEveryChild_Black_Vertical_RGB_ENG-Copy" transform="translate(316.000000, 4686.000000)">
                <path d="M82.3750869,14.8208372 C81.2618556,14.2120186 81.2403525,13.3692279 81.2997099,13.0589023 C81.3588433,12.7432186 81.5761138,12.881414 81.7145398,12.881414 C82.4451958,12.881414 83.2141542,12.6655256 84.1614088,11.7012837 C85.2302901,10.6144744 85.5653794,8.19973953 83.9233072,6.62556279 C82.1542326,4.92837209 80.2724908,5.22507907 79.0591359,6.75036279 C78.8107307,7.06314419 78.2034933,7.2919814 77.6784602,7.27434419 C76.9005422,7.24465116 77.3906328,7.85570233 77.3906328,7.98206512 C77.3906328,8.11066047 77.272366,8.19973953 77.203601,8.17986977 C76.9390685,8.10463256 77.0452399,8.49421395 77.0452399,8.61253953 C77.0452399,8.73064186 76.9363807,8.79025116 76.8783672,8.79025116 C76.5513415,8.79025116 76.6411616,9.08338605 76.6512411,9.16442791 C76.6604247,9.24189767 76.63153,9.37786047 76.5224468,9.43836279 C76.4182913,9.49707907 76.2955447,9.7536 76.2955447,9.95028837 C76.2955447,10.3045953 76.6210024,10.5497302 77.1657466,10.9542698 C77.706907,11.3579163 77.77612,11.7410233 77.7859755,12.0169674 C77.7962791,12.2913488 77.821142,12.7360744 77.9452326,13.0301023 C78.0912742,13.3835163 78.072235,14.0336372 77.3223158,14.0624372 C76.4050759,14.0992744 74.7766671,14.8295442 74.6386891,14.8793302 C74.1212717,15.0619535 73.4367576,15.1282605 72.903437,14.9949767 C72.6160575,14.7922605 72.3421175,14.5707907 72.0831848,14.3323535 C71.9758935,13.9644279 72.1615814,13.5701581 72.3488372,13.304707 C72.6545838,13.6096744 73.109284,13.5898047 73.3644088,13.5985116 C73.6211016,13.6096744 74.8741028,13.4132093 75.051951,13.3540465 C75.2304712,13.2948837 75.3084198,13.3145302 75.4172791,13.3540465 C75.8952742,13.5270698 76.5520135,13.5790884 76.8183378,12.6655256 C77.0853341,11.7506233 76.4543537,12.0064744 76.3750612,12.0455442 C76.2955447,12.0859535 76.1864614,12.0754605 76.2261077,11.9973209 C76.3434786,11.7640186 76.1680942,11.7883535 76.0684186,11.7794233 C75.8128458,11.7541953 75.4773084,12.0258977 75.3684492,12.1236837 C75.259366,12.2223628 75.1511787,12.2123163 75.1115324,12.1926698 C74.7715153,12.0241116 73.7581836,12.267907 73.4430294,11.7202605 C73.4725961,11.5740279 73.1858886,9.35017674 73.039623,8.96684651 C73.0075924,8.88424186 72.9798176,8.75051163 73.0779253,8.6036093 C73.3355141,8.21804651 74.045339,8.63196279 74.4308262,8.6228093 C74.891798,8.60986047 74.9654908,8.41830698 75.0922693,8.26336744 C75.213224,8.11266977 75.3021481,8.19728372 75.3684492,8.15553488 C75.4526695,8.10106047 75.372929,7.99300465 75.4027197,7.93428837 C75.4331824,7.87534884 75.4676769,7.90459535 75.5451775,7.83583256 C75.624694,7.76573023 75.534202,7.61949767 75.5749682,7.56055814 C75.6885312,7.38976744 75.9989816,7.52595349 75.8128458,7.07966512 C75.7107062,6.83386047 75.852492,6.56684651 75.990246,6.39025116 C76.2140122,6.10292093 77.0772705,4.8919814 75.555929,3.63505116 C74.1049204,2.43661395 72.6337528,2.53306047 71.6864982,3.55624186 C70.7403635,4.57897674 71.2129829,6.07546047 71.3117625,6.46816744 C71.4103182,6.86221395 71.1260747,7.21875349 70.798601,7.37324651 C70.5392203,7.49581395 69.9476622,7.88874419 69.5012497,8.27609302 C69.5729266,5.0667907 71.5276891,2.24372093 74.5244541,1.04148837 C74.6516805,1.20089302 74.7943623,1.35092093 74.9484676,1.49246512 C74.6133782,1.7355907 73.88541,2.3848186 73.88541,2.3848186 C73.88541,2.3848186 73.9853097,2.39977674 74.0773696,2.42232558 C74.1418788,2.43750698 74.2778409,2.47836279 74.2778409,2.47836279 C74.2778409,2.47836279 74.9195728,1.93473488 75.2201677,1.71795349 C75.4544614,1.89611163 75.7113782,2.04390698 75.9828543,2.16290233 C75.8368127,2.40870698 75.4721567,3.09387907 75.4721567,3.09387907 C75.4721567,3.09387907 75.556377,3.14388837 75.6316377,3.19434419 C75.7080184,3.24502326 75.7557283,3.28945116 75.7557283,3.28945116 C75.7557283,3.28945116 76.1546548,2.54042791 76.3054002,2.29015814 C76.6411616,2.40133953 76.9903623,2.46586047 77.3444908,2.48148837 C77.3444908,2.58195349 77.3444908,3.74176744 77.3444908,3.85428837 C77.1484994,3.84870698 76.6431775,3.8283907 76.4384504,3.8071814 L76.30988,3.79445581 L76.3815569,3.90117209 C76.4359865,3.98087442 76.4780967,4.0587907 76.5155031,4.13023256 L76.5298384,4.15992558 L76.563661,4.16282791 C76.7119425,4.17488372 77.1731383,4.1911814 77.3444908,4.19564651 C77.3444908,4.30660465 77.3444908,6.69343256 77.3444908,6.69343256 L77.6925716,6.69343256 C77.6925716,6.69343256 77.6925716,6.21454884 77.6925716,6.12189767 C78.2021493,6.09756279 78.6261628,6.06228837 79.1391004,6.01830698 L79.1612754,6.01540465 L79.6110477,5.61890233 L79.3660024,5.64011163 C78.8243941,5.71088372 78.3484149,5.74347907 77.9170098,5.76736744 C77.9170098,5.76736744 77.7700722,5.77607442 77.6925716,5.78053953 C77.6925716,5.66511628 77.6925716,4.29856744 77.6925716,4.19497674 C78.3217601,4.18180465 78.9518446,4.09451163 79.5682656,3.93309767 C79.7364823,4.34500465 80.0538764,5.34586047 80.0538764,5.34586047 L80.3809021,5.2436093 C80.3809021,5.2436093 80.0639559,4.2507907 79.8977552,3.83821395 C80.4189804,3.67724651 80.9231824,3.46225116 81.3993856,3.20171163 C81.7837528,3.6727814 82.1150343,4.18671628 82.3889743,4.73257674 C82.1423611,4.84688372 81.6928127,5.0056186 81.6934847,5.0056186 C82.053437,5.04513488 82.326929,5.1304186 82.326929,5.1304186 C82.326929,5.1304186 82.4541554,5.07616744 82.5354639,5.04022326 C82.5672705,5.11166512 82.6297638,5.2567814 82.6297638,5.2567814 L83.0797601,5.45614884 L83.0277944,5.33157209 C83.0277944,5.33157209 82.8788409,4.97614884 82.8438984,4.8939907 C83.3203256,4.65934884 83.7889131,4.39077209 84.2371175,4.09049302 C85.0898482,5.39028837 85.5425324,6.89927442 85.5425324,8.45983256 C85.5425324,11.0516093 84.2984908,13.3582884 82.3750869,14.8208372 Z M76.6463133,0.516837209 C76.1521909,0.731609302 75.6800196,0.990139535 75.2345031,1.29265116 C75.099661,1.17276279 74.9775863,1.04662326 74.8635753,0.915348837 C75.4394541,0.713972093 76.0352681,0.581581395 76.6463133,0.516837209 Z M76.1640624,1.87110698 C75.9340245,1.77443721 75.7214578,1.65454884 75.5221065,1.51322791 C75.9736707,1.21562791 76.4574896,0.961786047 76.9643794,0.75415814 C76.6794639,1.10980465 76.4082118,1.48375814 76.1640624,1.87110698 Z M77.3444908,0.824930233 C77.3444908,1.0848 77.3444908,2.03140465 77.3444908,2.13946047 C77.0564394,2.12450233 76.7708519,2.07293023 76.493552,1.98831628 C76.7504688,1.58868837 77.0365043,1.19910698 77.3444908,0.824930233 Z M77.6925716,2.48372093 C78.0516279,2.46675349 78.4044125,2.40312558 78.7442056,2.29015814 C78.9995545,2.71367442 79.2291444,3.15817674 79.4300636,3.61585116 C78.8615765,3.7611907 78.277858,3.84178605 77.6925716,3.85473488 C77.6925716,3.74444651 77.6925716,2.58306977 77.6925716,2.48372093 Z M77.6925716,0.809525581 C78.0003341,1.17946047 78.2904015,1.5744 78.5558299,1.98831628 C78.2758421,2.07426977 77.9851028,2.12584186 77.6925716,2.13946047 C77.6925716,2.03140465 77.6925716,1.07073488 77.6925716,0.809525581 Z M79.5299633,1.51322791 C79.3288201,1.65566512 79.1135655,1.77510698 78.8889033,1.87043721 C78.6460979,1.48866977 78.3723819,1.11493953 78.0820906,0.751032558 C78.5892044,0.958437209 79.0748152,1.21384186 79.5299633,1.51322791 Z M80.1844627,0.917134884 C80.0711236,1.05220465 79.947929,1.17745116 79.8139829,1.29376744 C79.3727222,0.991925581 78.9027907,0.734511628 78.4129241,0.521302326 C79.0217295,0.586493023 79.6155275,0.71732093 80.1844627,0.917134884 Z M81.1729315,2.93603721 C80.7240551,3.17715349 80.2505398,3.37428837 79.764705,3.52208372 C79.5617699,3.05860465 79.3279241,2.60249302 79.0671995,2.16379535 C79.3368837,2.04546977 79.5920086,1.89812093 79.8298862,1.71884651 C80.3197528,2.07426977 80.7704211,2.48372093 81.1729315,2.93603721 Z M80.5249278,1.04416744 C81.1915226,1.31252093 81.8204871,1.67307907 82.3988299,2.11557209 C82.1112264,2.35289302 81.801,2.56989767 81.4766622,2.76323721 C81.0667601,2.2944 80.6042203,1.86887442 80.1009143,1.49514419 C80.2532277,1.35538605 80.3965814,1.20580465 80.5249278,1.04416744 Z M84.04247,3.80829767 C83.6150967,4.09696744 83.1637564,4.35661395 82.6969608,4.58545116 C82.4216769,4.03490233 82.0865875,3.51092093 81.6986365,3.02846512 C82.0417895,2.81949767 82.3692632,2.58731163 82.6723219,2.33324651 C83.1901873,2.76613953 83.6504871,3.26243721 84.04247,3.80829767 Z M77.5212191,0.125469767 C72.9106047,0.125469767 69.1596646,3.86366512 69.1596646,8.45983256 C69.1596646,13.0544372 72.9106047,16.7935256 77.5212191,16.7935256 C82.1307136,16.7935256 85.8823256,13.0544372 85.8823256,8.45983256 C85.8823256,3.86366512 82.1307136,0.125469767 77.5212191,0.125469767 L77.5212191,0.125469767 Z" id="Fill-1"></path>
                <path d="M68.4030257,2.34083721 L68.2726634,2.4555907 C67.7816769,2.88870698 66.6617258,4.03088372 66.8337503,5.28424186 C66.8344223,5.28848372 66.8514455,5.37153488 66.8514455,5.37153488 C66.8518935,5.37309767 66.9074431,5.62024186 66.9074431,5.62024186 L67.0631163,5.47802791 C67.7496463,4.85179535 68.2643758,3.79133023 68.4744786,2.56788837 L68.53406,2.22407442 L68.4030257,2.34083721" id="Fill-2"></path>
                <path d="M66.1275092,4.50530233 L66.0710636,4.65733953 C65.9931151,4.86653023 65.8515532,5.30567442 65.7756206,5.89015814 C65.6703452,6.71776744 65.6945361,7.88785116 66.4155606,8.76167442 C66.4144406,8.76100465 66.4946291,8.86504186 66.4946291,8.86504186 L66.5784015,8.97108837 L66.6852448,8.43996279 C66.8041836,7.50072558 66.6471665,5.53272558 66.3017736,4.6539907 L66.1821628,4.35594419 L66.1275092,4.50530233" id="Fill-3"></path>
                <path d="M65.2967295,7.89053023 L65.285978,8.04546977 C65.2259486,8.88781395 65.2696267,10.9658791 66.9578409,12.068093 C66.9578409,12.0692093 67.1585361,12.1971349 67.1585361,12.1971349 L67.1493525,11.9613767 C67.1202338,11.1723907 66.1967222,8.81815814 65.5034725,7.97469767 L65.307033,7.7355907 L65.2967295,7.89053023" id="Fill-4"></path>
                <path d="M65.5874688,11.6090791 L65.6161395,11.7515163 C65.8629767,12.9459349 66.9995031,14.8804465 68.7540184,15.4412651 L68.9941359,15.5187349 L68.9074517,15.2827535 C68.579978,14.389507 66.8886279,12.3083163 65.8022754,11.6224744 L65.5570061,11.4673116 L65.5874688,11.6090791" id="Fill-5"></path>
                <path d="M69.1124027,4.1396093 L68.9735288,4.22377674 C67.6669939,5.01812093 67.0557246,5.98124651 67.1023146,7.16941395 L67.114186,7.44133953 L67.3041297,7.28260465 C68.0108188,6.69990698 68.8942362,5.21012093 69.1556328,4.36442791 L69.2501567,4.05566512 L69.1124027,4.1396093" id="Fill-6"></path>
                <path d="M68.3443403,6.7412093 L68.2446646,6.83453023 C67.9100233,7.152 66.8279266,8.29908837 66.9217785,9.71899535 C66.9361138,9.93778605 66.9860636,10.1713116 67.070284,10.4162233 L67.1466646,10.6430512 L67.2868825,10.4474791 C67.8038519,9.72212093 68.4897099,7.80814884 68.4525275,6.91780465 L68.441104,6.64811163 L68.3443403,6.7412093" id="Fill-7"></path>
                <path d="M68.4003378,9.20528372 L68.3259731,9.31378605 C67.7803329,10.1213023 67.5021371,10.9506977 67.5191603,11.7146791 C67.5341677,12.2797395 67.7153758,12.8204651 68.0571848,13.3223442 L68.1714198,13.4920186 L68.2675116,13.3127442 C68.5035973,12.8706977 68.6899572,11.4378419 68.6630783,10.3045953 C68.6523268,9.90429767 68.6115606,9.57276279 68.5450355,9.34705116 L68.4733586,9.0967814 L68.4003378,9.20528372" id="Fill-8"></path>
                <path d="M69.0331102,11.8394791 L68.9988397,11.9533395 C68.8348788,12.4777674 68.7571542,12.990586 68.7708176,13.477507 C68.8028482,14.5788279 69.2913709,15.4405953 70.226978,16.0378047 L70.3844431,16.1371535 L70.4189376,15.9248372 C70.4189376,15.9210419 70.433049,15.7560558 70.433049,15.7560558 C70.4070661,14.8603535 69.7375594,12.6052465 69.2134223,11.9165023 L69.0685006,11.7276279 L69.0331102,11.8394791" id="Fill-9"></path>
                <path d="M67.1912387,15.3336558 L67.2591077,15.4468465 C67.9628849,16.6222884 69.1565288,18.1386419 71.3892632,17.749507 L71.575623,17.7169116 L71.4701236,17.5610791 C71.0532778,16.9433302 68.3432203,15.4191628 67.3849902,15.263107 L67.1233696,15.2200186 L67.1912387,15.3336558 L67.1912387,15.3336558 Z" id="Fill-10"></path>
                <path d="M70.4946463,18.3188093 L70.4946463,18.3188093 L70.1438776,18.4128 L70.4803109,18.5503256 C71.8997368,19.1292279 73.679787,19.3009116 74.7117099,18.9546419 C75.099661,18.8229209 75.3346267,18.6112744 75.6229021,18.3313116 C77.4392387,18.5186233 79.1404443,20.0242605 80.132049,21.2537302 C80.132049,21.2544 80.1858066,21.3146791 80.1858066,21.3146791 L80.2624113,21.2905674 C80.3739584,21.2528372 80.5455349,21.1202233 80.6176597,21.0429767 L80.6873207,20.9677395 L80.6250514,20.8849116 C79.5904406,19.5373395 77.9703195,18.7010233 77.8995386,18.6673116 C76.4415863,17.9591442 73.8681628,17.4061395 70.4946463,18.3188093" id="Fill-11"></path>
                <path d="M70.569459,14.555386 L70.5896181,14.6739349 C70.8021848,16.0072186 71.3451371,17.7564279 73.6045263,17.5628651 L73.749448,17.5512558 L73.7133856,17.4106047 C73.5606242,16.8044651 71.4905067,15.0434233 70.7674663,14.5482419 L70.5506438,14.4361674 L70.569459,14.555386" id="Fill-12"></path>
                <path d="M86.5401848,2.22407442 L86.5999902,2.56788837 C86.809869,3.79133023 87.3252705,4.85179535 88.0115765,5.47802791 L88.1683696,5.62024186 C88.1683696,5.62024186 88.2225753,5.37309767 88.2225753,5.37153488 C88.2225753,5.37153488 88.2395985,5.28848372 88.2404945,5.28424186 C88.4131909,4.03088372 87.2932399,2.88870698 86.8027013,2.4555907 L86.6716671,2.34083721 L86.5401848,2.22407442" id="Fill-13"></path>
                <path d="M88.892306,4.35594419 L88.7735912,4.6539907 C88.4268543,5.53272558 88.2689412,7.50072558 88.388552,8.43996279 L88.4953953,8.97108837 L88.5796157,8.86504186 C88.5796157,8.86504186 88.6598042,8.76100465 88.6593562,8.76167442 C89.3799327,7.88785116 89.4050196,6.71776744 89.2981763,5.89015814 C89.2224676,5.30567442 89.0820257,4.86653023 89.0045251,4.65733953 L88.9476316,4.50530233 L88.892306,4.35594419" id="Fill-14"></path>
                <path d="M89.7676597,7.7355907 L89.5705483,7.97469767 C88.8788666,8.81815814 87.954459,11.1723907 87.9262362,11.9613767 L87.9172766,12.1971349 C87.9172766,12.1971349 88.115284,12.0692093 88.115284,12.068093 C89.8046181,10.9658791 89.8476242,8.88781395 89.7887148,8.04546977 L89.7770673,7.89053023 L89.7676597,7.7355907" id="Fill-15"></path>
                <path d="M89.5172387,11.4673116 L89.2717454,11.6224744 C88.1853929,12.3083163 86.4933709,14.389507 86.1667931,15.2827535 L86.079213,15.5187349 L86.3204504,15.4412651 C88.0747417,14.8804465 89.2112681,12.9459349 89.4576573,11.7515163 L89.4887919,11.6090791 L89.5172387,11.4673116" id="Fill-16"></path>
                <path d="M85.8906132,4.01525581 L85.9806573,4.3255814 C86.2232387,5.17685581 87.0777613,6.68338605 87.7730269,7.28014884 L87.9611787,7.4420093 L87.976634,7.17008372 C88.0471909,5.98325581 87.4538409,5.00807442 86.1638813,4.18850233 L86.0261273,4.10165581 L85.8906132,4.01525581" id="Fill-17"></path>
                <path d="M86.6324688,6.64811163 L86.6221652,6.91780465 C86.5861028,7.80814884 87.2699449,9.72212093 87.7873623,10.4474791 L87.9275802,10.6430512 L88.0053048,10.4162233 C88.0888531,10.1713116 88.138131,9.93778605 88.1520184,9.71899535 C88.2467662,8.29908837 87.1642215,7.152 86.8291322,6.83453023 L86.7314725,6.7412093 L86.6324688,6.64811163" id="Fill-18"></path>
                <path d="M86.6033501,9.0967814 L86.5289853,9.34705116 C86.4615643,9.57276279 86.421918,9.90429767 86.4122864,10.3045953 C86.3842876,11.4378419 86.5713195,12.8706977 86.8060612,13.3127442 L86.902825,13.4920186 L87.0184039,13.3223442 C87.359317,12.8204651 87.5398531,12.2797395 87.5537405,11.7146791 C87.5723317,10.9506977 87.2948078,10.1213023 86.7482717,9.31378605 L86.6756989,9.20528372 L86.6033501,9.0967814" id="Fill-19"></path>
                <path d="M86.0035043,11.7276279 L85.8603745,11.9165023 C85.3364614,12.6052465 84.6662827,14.8603535 84.6416438,15.7560558 C84.6416438,15.7560558 84.6541873,15.9210419 84.6553072,15.9248372 L84.6893537,16.1371535 C84.6893537,16.1371535 84.8472668,16.0378047 84.8477148,16.0378047 C85.7824259,15.4405953 86.2727405,14.5788279 86.3043231,13.477507 C86.3177625,12.990586 86.2407099,12.4777674 86.0751812,11.9533395 L86.0386707,11.8394791 L86.0035043,11.7276279" id="Fill-20"></path>
                <path d="M87.9506512,15.2200186 C87.9506512,15.2200186 87.6903745,15.263107 87.6899266,15.263107 C86.7314725,15.4191628 84.0211909,16.9433302 83.6038972,17.5610791 L83.4990698,17.7169116 L83.6849816,17.749507 C85.9199559,18.1386419 87.1120318,16.6222884 87.8153611,15.4468465 L87.8830061,15.3336558 L87.9506512,15.2200186 L87.9506512,15.2200186 Z" id="Fill-21"></path>
                <path d="M77.1756022,18.6673116 C77.1043733,18.7010233 75.4835802,19.5373395 74.4505373,20.8849116 L74.3875961,20.9677395 L74.457929,21.0429767 C74.5300539,21.1202233 74.7005104,21.2528372 74.8127295,21.2905674 L74.8891102,21.3146791 C74.8891102,21.3146791 74.9421958,21.2544 74.9421958,21.2537302 C75.9326805,20.0242605 77.6341102,18.5186233 79.4508947,18.3313116 C79.7384982,18.6112744 79.9741359,18.8229209 80.3638788,18.9546419 C81.3946818,19.3009116 83.17406,19.1292279 84.5950539,18.5503256 L84.9314871,18.4128 L84.5804945,18.3188093 C81.205858,17.4061395 78.6326585,17.9591442 77.1756022,18.6673116" id="Fill-22"></path>
                <path d="M84.523825,14.4361674 L84.3074504,14.5482419 C83.5837381,15.0434233 81.5140685,16.8044651 81.3615312,17.4106047 L81.3261408,17.5512558 L81.4690465,17.5628651 C83.7291077,17.7564279 84.272284,16.0072186 84.4855226,14.6739349 L84.5054578,14.555386 L84.523825,14.4361674" id="Fill-23"></path>
                <path d="M26.9621493,18.8988279 L29.3633244,18.8988279 L29.3633244,6.25585116 L26.9621493,6.25585116 L26.9621493,18.8988279 Z M26.7359192,3.30887442 L29.5913464,3.30887442 L29.5913464,0.713972093 L26.7359192,0.713972093 L26.7359192,3.30887442 Z" id="Fill-24"></path>
                <path d="M8.84022154,6.2667907 L11.2407246,6.2667907 L11.2407246,18.9106605 L8.89017136,18.9106605 L8.89017136,17.0464744 L8.84022154,17.0464744 C7.87952754,18.6336 6.26231824,19.2879628 4.49279559,19.2879628 C1.83985557,19.2879628 0.32344186,17.2733023 0.32344186,14.7295256 L0.32344186,6.2667907 L2.72506487,6.2667907 L2.72506487,13.7476465 C2.72506487,15.9393488 3.23016279,17.550586 5.52942228,17.550586 C6.51565116,17.550586 7.85421665,17.0464744 8.35931457,15.7384186 C8.81311873,14.5538233 8.84022154,13.0678326 8.84022154,12.7655442 L8.84022154,6.2667907" id="Fill-25"></path>
                <path d="M16.0338911,8.13008372 L16.0849608,8.13008372 C16.8928935,6.54385116 18.6617442,5.88948837 19.9254969,5.88948837 C20.8093623,5.88948837 24.7262791,6.11609302 24.7262791,10.1708651 L24.7262791,18.9106605 L22.326896,18.9106605 L22.326896,10.9520372 C22.326896,8.86146977 21.4416867,7.72866977 19.420175,7.72866977 C19.420175,7.72866977 18.1051285,7.6532093 17.0951567,8.66009302 C16.7421481,9.01216744 16.0849608,9.56606512 16.0849608,12.0350512 L16.0849608,18.9106605 L13.6837858,18.9106605 L13.6837858,6.2667907 L16.0338911,6.2667907 L16.0338911,8.13008372" id="Fill-26"></path>
                <path d="M39.4157809,10.3224558 C39.2898984,8.74537674 38.5381873,7.64651163 36.829814,7.64651163 C34.5473537,7.64651163 33.6670722,9.61986977 33.6670722,12.5748837 C33.6670722,15.5276651 34.5473537,17.5054884 36.829814,17.5054884 C38.4098409,17.5054884 39.3891261,16.4825302 39.5138886,14.6772837 L41.9016242,14.6772837 C41.6980171,17.5054884 39.5911652,19.2308093 36.8031591,19.2308093 C32.7625998,19.2308093 31.156366,16.3798326 31.156366,12.6749023 C31.156366,8.99185116 33.0125728,5.91650233 37.0078862,5.91650233 C39.6688898,5.91650233 41.6756181,7.5956093 41.7974688,10.3224558 L39.4157809,10.3224558" id="Fill-27"></path>
                <path d="M51.8629168,11.3748837 C51.9133146,9.27337674 50.9571004,7.64651163 48.6477613,7.64651163 C46.6620881,7.64651163 45.4863635,9.31780465 45.4863635,11.3748837 L51.8629168,11.3748837 Z M45.4863635,13.0238512 C45.3107552,15.2267163 46.2145557,17.5054884 48.6477613,17.5054884 C50.5062081,17.5054884 51.4346475,16.7810233 51.7094835,14.9494326 L54.2231016,14.9494326 C53.8447821,17.8066605 51.6351187,19.2308093 48.6246903,19.2308093 C44.5818911,19.2308093 42.9722974,16.3798326 42.9722974,12.6749023 C42.9722974,8.99185116 44.834104,5.91650233 48.8249376,5.91650233 C52.589317,5.99486512 54.3707111,8.3691907 54.3707111,11.8510884 L54.3707111,13.0238512 L45.4863635,13.0238512 L45.4863635,13.0238512 Z" id="Fill-28"></path>
                <path d="M57.073377,18.8559628 L57.073377,7.94567442 L54.9047038,7.94567442 L54.9047038,6.29067907 L57.073377,6.29067907 L57.073377,3.59129302 C57.1511016,0.837655814 59.2317466,0.112967442 61.0151567,0.112967442 C61.5917075,0.112967442 62.1467552,0.26187907 62.7259939,0.360781395 L62.7259939,2.33704186 C62.3198996,2.31583256 61.9198531,2.26068837 61.5164468,2.26068837 C60.1637699,2.26068837 59.384284,2.6152186 59.4582007,3.98913488 L59.4582007,6.29067907 L62.3714174,6.29067907 L62.3714174,7.94567442 L59.4582007,7.94567442 L59.4582007,18.8559628 L57.073377,18.8559628" id="Fill-29"></path>
                <polygon id="Fill-30" points="0.274835985 28.0498605 88.914033 28.0498605 88.914033 27.5687442 0.274835985 27.5687442"></polygon>
                <path d="M1.74555569,44.7788651 L1.74555569,37.6735256 L0.134842105,37.6735256 L0.134842105,36.7992558 L1.74555569,36.7992558 L1.74555569,35.098493 C1.74555569,33.7314977 2.30373929,33.1117395 3.67523133,33.1117395 C3.97829009,33.1117395 4.29725214,33.2229209 4.58440759,33.2865488 L4.58440759,34.049414 C4.39289596,34.0174884 4.18548103,33.9860093 3.99419339,33.9860093 C2.68653856,33.9860093 2.65450796,34.637693 2.70244186,35.7821023 L2.70244186,36.7992558 L4.52034639,36.7992558 L4.52034639,37.6735256 L2.70244186,37.6735256 L2.70244186,44.7788651 L1.74555569,44.7788651" id="Fill-31"></path>
                <path d="M8.61085557,37.4350884 C6.68117993,37.4350884 5.9155814,39.3106605 5.9155814,40.7892837 C5.9155814,42.2674605 6.68117993,44.1430326 8.61085557,44.1430326 C10.5403072,44.1430326 11.3059058,42.2674605 11.3059058,40.7892837 C11.3059058,39.3106605 10.5403072,37.4350884 8.61085557,37.4350884 Z M12.3425324,40.7892837 C12.3425324,42.8872186 11.162328,45.0173023 8.61085557,45.0173023 C6.05915912,45.0173023 4.8791787,42.8872186 4.8791787,40.7892837 C4.8791787,38.6909023 6.05915912,36.5608186 8.61085557,36.5608186 C11.162328,36.5608186 12.3425324,38.6909023 12.3425324,40.7892837 L12.3425324,40.7892837 Z" id="Fill-32"></path>
                <path d="M14.6928617,44.7788651 L13.7361995,44.7788651 L13.7361995,38.5953488 C13.7521028,37.9755907 13.6882656,37.3397581 13.656235,36.7992558 L14.6451518,36.7992558 L14.6928617,37.9755907 L14.7248923,37.9755907 C15.0118237,37.1649488 15.7294884,36.5927442 16.5268935,36.5608186 C16.8458556,36.5451907 17.1648176,36.5608186 17.4837797,36.5766698 L17.4837797,37.4987163 C17.2922681,37.4828651 17.0850771,37.4350884 16.8937895,37.4350884 C15.4743635,37.4350884 14.7248923,38.4524651 14.6928617,39.9784186 L14.6928617,44.7788651" id="Fill-33"></path>
                <path d="M27.2750636,40.1373767 C27.1635165,38.5953488 26.3343048,37.4350884 24.6756573,37.4350884 C23.1128776,37.4350884 22.2836659,38.7386791 22.1559914,40.1373767 L27.2750636,40.1373767 Z M22.1239608,41.0116465 C22.1559914,42.7124093 22.9374933,44.1430326 24.8989755,44.1430326 C26.031246,44.1430326 26.9720049,43.3323907 27.2114504,42.2355349 L28.2160465,42.2355349 C27.7217001,44.1430326 26.5255924,45.0173023 24.5959168,45.0173023 C22.2037013,45.0173023 21.0875581,42.9666977 21.0875581,40.7892837 C21.0875581,38.6272744 22.2836659,36.5608186 24.659754,36.5608186 C27.3389009,36.5608186 28.3116903,38.516093 28.3116903,41.0116465 L22.1239608,41.0116465 L22.1239608,41.0116465 Z" id="Fill-34"></path>
                <polyline id="Fill-35" points="29.6032179 36.7992558 32.3621053 43.4594233 35.0253488 36.7992558 36.0778788 36.7992558 32.9043856 44.7788651 31.819825 44.7788651 28.5506879 36.7992558 29.6032179 36.7992558"></polyline>
                <path d="M42.4647356,40.1373767 C42.3529645,38.5953488 41.5237528,37.4350884 39.8651053,37.4350884 C38.3023256,37.4350884 37.4731138,38.7386791 37.3454394,40.1373767 L42.4647356,40.1373767 Z M37.3136328,41.0116465 C37.3454394,42.7124093 38.1269412,44.1430326 40.0884235,44.1430326 C41.220918,44.1430326 42.1616769,43.3323907 42.4008984,42.2355349 L43.4054945,42.2355349 C42.9111481,44.1430326 41.7152644,45.0173023 39.7853647,45.0173023 C37.3933733,45.0173023 36.2770061,42.9666977 36.2770061,40.7892837 C36.2770061,38.6272744 37.4731138,36.5608186 39.8494259,36.5608186 C42.5283488,36.5608186 43.5013623,38.516093 43.5013623,41.0116465 L37.3136328,41.0116465 L37.3136328,41.0116465 Z" id="Fill-36"></path>
                <path d="M45.9473354,44.7788651 L44.9904492,44.7788651 L44.9904492,38.5953488 C45.0063525,37.9755907 44.9427393,37.3397581 44.9107087,36.7992558 L45.8994015,36.7992558 L45.9473354,37.9755907 L45.979142,37.9755907 C46.2662974,37.1649488 46.9839621,36.5927442 47.7813672,36.5608186 C48.1001053,36.5451907 48.4192913,36.5608186 48.7382534,36.5766698 L48.7382534,37.4987163 C48.5467417,37.4828651 48.3395508,37.4350884 48.1480392,37.4350884 C46.7288372,37.4350884 45.979142,38.4524651 45.9473354,39.9784186 L45.9473354,44.7788651" id="Fill-37"></path>
                <polyline id="Fill-38" points="50.7951554 36.7992558 53.4902056 43.4754977 56.1693525 36.7992558 57.2059792 36.7992558 52.7884443 47.8307721 51.7359143 47.8307721 52.9479253 44.7788651 49.6308543 36.7992558 50.7951554 36.7992558"></polyline>
                <path d="M66.3275324,39.2472558 C66.2477919,38.0233674 65.4665141,37.4350884 64.1427319,37.4350884 C62.6755961,37.4350884 61.7666438,38.9610419 61.7666438,40.7732093 C61.7666438,42.6012279 62.6755961,44.1430326 64.1427319,44.1430326 C65.3867736,44.1430326 66.2477919,43.3799442 66.3275324,42.2833116 L67.3641591,42.2833116 C67.1090343,44.111107 66.0565043,45.0173023 64.2383758,45.0173023 C61.8463843,45.0173023 60.7300171,42.9666977 60.7300171,40.7892837 C60.7300171,38.6272744 61.9261248,36.5608186 64.302213,36.5608186 C65.9447332,36.5608186 67.2844186,37.546493 67.3641591,39.2472558 L66.3275324,39.2472558" id="Fill-39"></path>
                <path d="M69.6573709,38.0075163 L69.6891775,38.0075163 C70.2473611,37.0218419 71.1563133,36.5608186 72.19294,36.5608186 C74.8082497,36.5608186 75.0156646,38.8657116 75.0156646,39.7875349 L75.0156646,44.7788651 L74.0587785,44.7788651 L74.0587785,39.6285767 C74.0587785,38.2459535 73.2613733,37.4350884 71.9537185,37.4350884 C70.3748115,37.4350884 69.6573709,38.7545302 69.6573709,40.1849302 L69.6573709,44.7788651 L68.7004847,44.7788651 L68.7004847,33.3024 L69.6573709,33.3024 L69.6573709,38.0075163" id="Fill-40"></path>
                <path d="M76.6259302,44.7788651 L77.5828164,44.7788651 L77.5828164,36.7992558 L76.6259302,36.7992558 L76.6259302,44.7788651 Z M76.5464137,34.494586 L77.6625569,34.494586 L77.6625569,33.3024 L76.5464137,33.3024 L76.5464137,34.494586 Z" id="Fill-41"></path>
                <polygon id="Fill-42" points="79.4643341 44.7788651 80.4212203 44.7788651 80.4212203 33.3024 79.4643341 33.3024"></polygon>
                <path d="M85.3375814,37.4350884 C83.5194529,37.4350884 82.9294627,39.12 82.9294627,40.6459535 C82.9294627,42.1243535 83.3599718,44.1430326 85.1940037,44.1430326 C87.2831603,44.1430326 87.9210845,42.4103442 87.9210845,40.5984 C87.9210845,38.976893 87.2034198,37.4350884 85.3375814,37.4350884 Z M87.9528911,43.6025302 L87.9210845,43.5389023 C87.267033,44.4926512 86.2944676,45.0173023 85.1781004,45.0173023 C82.8017882,45.0173023 81.892836,42.760186 81.892836,40.7573581 C81.892836,38.6909023 82.8017882,36.5608186 85.1781004,36.5608186 C86.2465337,36.5608186 87.3629009,37.0693953 87.9210845,38.0075163 L87.9528911,37.9755907 L87.9528911,33.3024 L88.9097772,33.3024 L88.9097772,42.9827721 C88.9097772,43.6025302 88.9574871,44.2383628 88.9895177,44.7788651 L88.000825,44.7788651 L87.9528911,43.6025302 L87.9528911,43.6025302 Z" id="Fill-43"></path>
            </g>
        </g>
    </g>
</svg>